<?xml version="1.0" encoding="utf-8"?>
<!-- Generator: Adobe Illustrator 17.0.0, SVG Export Plug-In . SVG Version: 6.00 Build 0)  -->
<!DOCTYPE svg PUBLIC "-//W3C//DTD SVG 1.1//EN" "http://www.w3.org/Graphics/SVG/1.1/DTD/svg11.dtd">
<svg version="1.1" id="Layer_1" xmlns="http://www.w3.org/2000/svg" xmlns:xlink="http://www.w3.org/1999/xlink" x="0px" y="0px"
	 width="200px" height="100px" viewBox="0 0 200 100" enable-background="new 0 0 200 100" xml:space="preserve">
<g>
	<path fill="none" stroke="#000000" stroke-width="0.4857" stroke-miterlimit="10" d="M10.8,39c-0.1,0.1-0.3,0.2-0.4,0.4
		c-0.9,1.2-1.6,2.5-1.8,4c-0.2,1.6-0.4,3.2-0.5,4.9c-0.1,2.3-0.1,4.7-0.1,7c0,2-0.2,3.9-0.8,5.8c-0.4,1.5-1.2,2.8-2.5,3.8
		c-1,0.8-2.1,1.3-3.3,1.7c-0.3,0.1-0.6,0.2-1,0.4c0.3,0.2,0.5,0.4,0.8,0.5c5,3.3,9.9,6.6,14.9,9.8c1.7,1.1,3.4,2.2,5.1,3.3
		c0.2,0.1,0.5,0.3,0.7,0.2c1.1-0.2,2.3-0.4,3.2-1.2c0.9-0.8,1.8-1.7,2.6-2.7c0.3-0.4,0.5-0.8,0.7-1.3c0.6-1.5,0.9-3.1,1-4.7
		c0.1-2.6,0.1-5.2,0.2-7.8c0-2,0.1-4.1,0.5-6.1c0.3-1.4,0.8-2.8,1.7-3.9c1.3-1.5,2.9-2.4,4.8-2.9c0.4-0.1,0.8-0.1,1.2,0.2
		c1.9,1.3,3.8,2.5,5.8,3.7c0.6,0.4,0.8,0.8,0.8,1.4c0,0.9,0,1.8,0,2.8c0.3,0,0.6,0,0.8,0c0.8,0,1.7,0,2.5,0c0.5,0,0.9,0.1,1.3,0.4
		c4.9,3.3,9.8,6.5,14.6,9.8c1.2,0.8,2.3,1.2,3.7,1.1c0.6-0.1,1.2,0,1.8,0c0.2-0.9,0.1-14.8,0-15.3c-1.1-0.1-3.3-0.1-3.8,0.1
		c0,0,0,0,0,0.1c0,3.5,0,7.1,0,10.6c0,0,0,0.1,0,0.1c0,0,0,0,0,0.1c0,0,0,0-0.1,0.1C49.2,55,33.3,44.5,17.4,33.9
		c-0.5,0.6-1.1,1.2-1.6,1.8c-0.3,0.3-0.6,0.5-1,0.7c-0.8,0.3-1.5,0.7-2.3,1.1C11.9,37.8,11.2,38.3,10.8,39L10.8,39z M89.9,80.9
		c-0.4,0-0.7,0-1,0c-9,0-18.1,0-27.1,0c-0.2,0-0.4,0-0.6,0c-0.5,0-0.8,0.3-0.8,0.8c0,0.2,0,0.4,0,0.6c0,0.8,0.2,1.1,1,1.1
		c10.3,0,20.6,0,30.9,0c0.2,0,0.4,0,0.6-0.1c0.1-1.3,0-2.5,0.1-3.7c0.1,0,0.2-0.1,0.2-0.1c2.8,0,5.5,0,8.3,0c0.4,0,0.5,0.2,0.7,0.4
		c0.9,0.9,1.8,1.9,2.6,2.8c0.6,0.7,1.2,1.1,2.1,0.9c0.6-0.1,1.3,0,1.9,0c0-0.1,0-0.1,0-0.2c-1.2-1.3-2.4-2.6-3.7-4
		c0.5,0,0.8-0.1,1.1-0.1c0.3-0.1,0.7-0.1,1-0.2c1.1-0.3,1.6-1,1.6-2.1c0-0.4,0-0.9,0-1.3c0-1.3-0.6-2.3-1.9-2.7
		c-0.7-0.2-1.4-0.3-2.1-0.3c-5.4,0-10.8,0-16.1,0c-14.2,0-28.5,0-42.7,0c-0.2,0-0.4,0-0.6,0c-0.6,0-1,0.5-1,1c0,0.3,0,0.5,0,0.8
		c0,0.2,0.1,0.5,0.3,0.6c0.3,0.4,0.7,0.4,1.1,0.4c14.2,0,28.4,0,42.6,0c5.5,0,10.9,0,16.4,0c0.3,0,0.6,0,0.9,0c0,0.4,0,0.8,0,1.2
		c-0.3,0-0.6,0-0.9,0c-5.5,0-11,0-16.5,0c-11.6,0-23.1,0-34.7,0c-0.2,0-0.4,0-0.7,0c-0.5,0-0.8,0.4-0.9,0.9c0,0.3,0,0.6,0,0.9
		c0,0.5,0.4,0.9,0.9,0.9c0.2,0,0.4,0,0.7,0c11.7,0,23.5,0,35.2,0c0.3,0,0.6,0,0.9,0C89.9,80.2,89.9,80.5,89.9,80.9z M164.8,55.8
		c-1.5,0-2.8,0.3-4.2-0.5c-2.4-1.3-4.9-2.3-7.4-3.4c-0.5-0.2-1-0.4-1.5-0.3c-2.5,0.4-5,0.5-7.4,0.5c-3.6,0-7.2-0.1-10.7-0.1
		c-1,0-2.1-0.2-3.1-0.5c-1.2-0.3-2.1-1-2.9-1.9c-0.4-0.4-0.7-1-0.8-1.6c-0.1-0.6-0.1-1.2-0.1-1.8c0-0.2,0-0.4,0.1-0.5
		c0.1,0,0.2-0.1,0.3-0.1c0.2,0,0.5,0,0.7-0.1c0.6,0,0.7-0.1,0.7-0.7c0.1-1.2,0.2-2.3,0.2-3.5c0-0.7-0.1-1.4-0.2-2.1
		c-0.1-0.7-0.6-1.2-1.3-1.4c-0.5-0.1-1-0.2-1.4-0.2c-0.8,0-1.6,0.1-2.4,0.1c-2.1,0.2-4.1,0.6-6.1,1.1c-0.6,0.2-1.2,0.4-1.8,0.7
		c-1.4,0.7-1.6,2.4-0.5,3.4c0.7,0.6,1.3,0.4,1.8-0.4c-0.3-0.2-0.7-0.5-1-0.7c-0.3-0.2-0.2-0.4-0.1-0.7c0.2-0.4,0.5-0.6,0.9-0.7
		c1-0.3,2-0.6,3-0.8c1.3-0.1,2.5-0.5,3.8-0.6c0.9-0.1,1.9-0.1,2.8-0.1c0.8,0,1,0.2,1,1c0,0.9,0,1.7,0,2.6c0,0.5-0.1,0.9-0.1,1.4
		c-0.1,0-0.2,0.1-0.3,0.1c-1.4,0.1-1.4,0.1-1.6,1.5c-0.1,1.1-0.1,2.3,0.4,3.4c1,2.3,2.9,3.7,5.4,4.2c1,0.2,2.1,0.3,3.1,0.3
		c3.1,0.2,6.3,0.2,9.4,0.2c1.6,0,3.2-0.2,4.7-0.2c1.3-0.1,2.6-0.2,3.8-0.2c0.4,0,0.8,0.1,1.1,0.2c1.6,0.7,3.1,1.4,4.7,2.2
		c0.4,0.2,0.7,0.4,1.1,0.6c-0.2,0.1-0.4,0.2-0.6,0.2c-2.1-0.1-4.1-0.1-6.2-0.2c-1.6-0.1-3.3-0.3-4.9-0.5c-2.4-0.3-4.8-0.6-7.2-1
		c-1.2-0.2-2.4-0.3-3.7-0.5c-1-0.1-2-0.3-3-0.4c-0.2,0-0.4,0-0.7,0.1c0.2,0.2,0.3,0.4,0.5,0.5c0.6,0.4,1.3,0.7,1.9,1
		c0.2,0.1,0.4,0.1,0.6,0.2c1.5,0.2,3,0.4,4.5,0.6c2.1,0.3,4.2,0.5,6.2,0.8c2.5,0.4,4.9,0.7,7.4,0.8c3.5,0.1,7,0,10.5-0.3
		c0.3,0,0.5-0.1,0.8,0.1c0.3,0.2,0.6,0.1,0.8-0.1c0.4-0.4,0.8-0.3,1.2-0.2c-0.5,1-1,2-1.4,2.9c-0.1,0.2-0.2,0.5-0.2,0.7
		c0,1.1,0,2.1,0,3.2c0,0.8,0.2,1.5,0.6,2.1c0.1,0.2,0.2,0.5,0.4,0.8c-0.4,0.1-0.7,0.2-1,0.2c-2.1,0.3-4.2,0.7-6.4,1
		c-1.4,0.2-2.8,0.4-4.3,0.4c-3.7,0.1-7.4,0.1-11.1,0.1c-3.5,0-7.1,0-10.6,0c-0.3,0-0.6,0-0.9,0.1c0.4,1.1,0.9,1.5,1.9,1.5
		c2.2,0,4.4,0,6.6,0c3.8,0,7.6-0.1,11.5-0.1c0.6,0,1.3,0,1.9-0.1c2-0.2,3.9-0.3,5.9-0.6c2.3-0.3,4.6-0.7,6.9-1.1
		c0.3,0,0.5,0,0.7,0.2c0.6,0.5,1.2,1.1,1.8,1.5c1,0.7,2.2,1.2,3.5,1.1c0.8,0,1.6,0,2.4,0c0.4,0,0.9-0.1,1.3-0.2
		c1.4-0.6,2.7-1.3,3.7-2.5c0.3-0.4,0.6-0.7,1-1.1c0,0,0.1,0.1,0.1,0.1c-0.2,0.4-0.4,0.7-0.6,1.1c-0.4,0.7-0.2,1.1,0.6,1.2
		c0,0,0.1,0,0.1,0c5.8,0,11.5,0,17.3,0c0.9,0,1-0.6,0.7-1.2c-0.1-0.1-0.2-0.3-0.3-0.4c-0.8-0.9-1.6-1.9-2.4-2.8
		c-0.2-0.2-0.5-0.4-0.9-0.3c-0.6,0.1-1.3,0.1-1.9,0.1c-1,0-2,0-3,0c-0.3,0-0.7,0-0.7-0.6c0.4-0.2,0.8-0.3,1.2-0.5
		c1.5-0.6,2.2-1.7,2.3-3.3c0-1.1-0.3-1.6-1.3-2c-2-0.8-4-1.4-6.1-1.9c-2-0.5-4-0.8-6-1.1c-0.8-0.1-1.6-0.3-2.3-0.6
		c-1.3-0.6-2.6-1-4-1c-1.1,0-2.1,0.1-3.1,0.4c-0.3,0.1-0.7,0.2-1-0.1c-0.7-0.5-1.5-1-2.2-1.5c0.1-0.4,0.2-0.7,0.1-1
		c0-0.2-0.1-0.5-0.3-0.7c-0.9-0.7-1.8-1-2.9-1c-0.3,0-0.5,0.2-0.5,0.5c0.2,0.8-0.2,1.8,0.5,2.5c0.1,0.1,0.1,0.2,0.1,0.3
		C164.8,54.2,164.8,55,164.8,55.8z M131.2,54.6c0-0.1-0.1-0.1-0.1-0.2c-1.2,0-2.3,0-3.5,0c-0.5,0-0.8,0.2-1.1,0.5
		c-1.4,1.7-2.8,3.3-4.2,4.9c-0.3,0.4-0.6,0.5-1.1,0.5c-3.4,0-6.8,0-10.2,0c-0.2,0-0.4,0-0.7,0c0-2,0-3.9,0-5.8c-1.4,0-2.6,0-3.9,0
		c0,5.1,0,10.1,0,15.2c1.3,0,2.6,0,3.9,0c0-2,0-3.9,0-5.8c0.2,0,0.4,0,0.5,0c3.5,0,7.1,0,10.6,0c0.4,0,0.6,0.2,0.9,0.5
		c1.4,1.7,2.8,3.3,4.2,5c0.3,0.4,0.6,0.5,1.1,0.5c1,0,2,0,3,0c0.2,0,0.3,0,0.5-0.1c-2.1-2.6-4.2-5.1-6.3-7.7
		C127.1,59.5,129.1,57.1,131.2,54.6z M199.6,72.9c-0.3,0-0.6,0-0.8,0c-3.7,0-7.4,0-11.1,0c-1.2,0-2.4,0-3.6,0
		c-0.9,0-1.8,0.3-2.6,0.8c-0.7,0.5-1.1,1.2-1.1,2.1c0,1.6,0,3.3,0,4.9c0,1.2,0.5,2,1.5,2.5c0.7,0.4,1.5,0.5,2.4,0.5
		c2.8,0,5.5,0,8.3,0c1.1,0,2.3,0,3.4,0c0.9,0,1.8-0.3,2.6-0.8c0.7-0.5,1.1-1.1,1-2c0-1.1,0-2.2,0-3.3c0-0.2,0-0.4,0-0.6
		c-4.4,0-8.7,0-13.1,0c0,0.8,0,1.6,0,2.5c3.3,0,6.6,0,9.9,0c0,0.1,0,0.2,0,0.2c0,0.1-0.1,0.2-0.1,0.3c-0.5,0.5-1.1,0.7-1.8,0.8
		c-2.9,0-5.8,0-8.7,0c-0.4,0-0.9-0.2-1.3-0.4c-0.6-0.2-0.9-0.7-0.8-1.4c0-0.5,0-0.9,0-1.4c-0.1-0.8,0.3-1.3,1.1-1.6
		c0.6-0.2,1.2-0.3,1.8-0.3c4.1,0,8.2,0,12.3,0c0.3,0,0.6,0,0.9,0C199.6,74.8,199.6,73.9,199.6,72.9z M78.8,54.5c0,1.3,0,2.6,0,4
		c3.4,0,6.9,0,10.3,0c0,3.8,0,7.5,0,11.2c1.3,0,2.6,0,3.9,0c0-0.8,0-1.5,0-2.3c0-0.7,0-1.5,0-2.2c0-0.8,0-1.5,0-2.3
		c0-0.7,0-1.5,0-2.2c0-0.7,0-1.5,0-2.3c3.5,0,7,0,10.4,0c0-1.4,0-2.7,0-4C95.4,54.5,87.2,54.5,78.8,54.5z M70.3,52.3
		c0.3,0,0.6,0,0.8,0c1.6,0,3.2,0,4.7,0.1c0.5,0,0.8-0.1,1.1-0.5c1.3-1.5,2.6-2.9,3.8-4.4c6.5-7.5,13-14.9,19.6-22.4
		c0.2-0.2,0.3-0.4,0.5-0.7c-0.3,0-0.4-0.1-0.5,0c-0.2,0.1-0.4,0.3-0.6,0.4C92,31,84.2,37.1,76.4,43.3c-1.9,1.5-3.8,3-5.7,4.6
		c-0.2,0.2-0.4,0.4-0.4,0.6C70.2,49.7,70.3,51,70.3,52.3z M151.7,72.9c-0.4,0-0.6,0-0.9,0c-2.3,0-4.7,0-7,0c-2.5,0-4.9,0-7.4,0
		c-1,0-1.9,0.2-2.7,0.8c-0.7,0.5-1.1,1.2-1.1,2.1c0,1.7,0,3.4,0,5.1c0,0.9,0.4,1.6,1.1,2.1c0.8,0.6,1.7,0.8,2.6,0.8
		c4.9,0,9.9,0,14.8,0c0.2,0,0.4,0,0.6-0.1c0-1,0-1.9,0-2.9c-0.3,0-0.6,0-0.9,0c-4,0-8,0-12,0c-0.4,0-0.8,0-1.1,0
		c-0.5-0.1-1-0.3-1.5-0.5c-0.4-0.2-0.7-0.6-0.7-1.2c0-0.5,0-1,0-1.5c0-0.9,0.3-1.3,1.1-1.6c0.6-0.2,1.2-0.3,1.8-0.3
		c4.1,0,8.2,0,12.3,0c0.3,0,0.6,0,0.9,0C151.7,74.8,151.7,73.9,151.7,72.9z M162.2,83.7c0-0.7,0-1.4,0-2.1c0-0.6,0-1.3,0-1.9
		c0-0.7,0-1.3,0-2c0-0.7-0.1-1.3,0-1.9c0.2,0,0.2,0,0.3,0c3.4,0,6.8,0,10.2,0c0.5,0,1,0.1,1.4,0.3c0.7,0.3,1.2,0.8,1.1,1.7
		c0,1.7,0,3.5,0,5.2c0,0.2,0,0.5,0,0.7c1,0,2,0,3,0c0-2.8,0-5.5,0-8.2c0-0.6-0.3-1.1-0.8-1.5c-0.8-0.7-1.8-1.1-2.9-1.1
		c-5,0-10,0-15,0c-0.2,0-0.3,0-0.5,0.1c-0.1,1.3-0.1,10.2,0.1,10.8C160.3,83.7,161.2,83.7,162.2,83.7z M91.2,53.1
		c0.7,0.1,1.4,0.3,2.1-0.1c1.2-0.8,2.4-1.3,3.8-1.5c2.4-0.4,4.6,0.1,6.6,1.5c0.8,0.6,1.6,0.8,2.7,0.5c-0.4-0.5-0.8-0.9-1.2-1.3
		c0.4-0.3,0.8-0.6,1.1-0.9c0.3-0.2,0.3-0.5,0.3-0.8c0-0.3,0-0.7-0.4-0.8c-0.2,0.1-0.4,0.2-0.6,0.4c-0.4,0.3-0.9,0.6-1.3,1
		c-0.3,0.3-0.6,0.2-0.9,0.1c-1.4-0.8-2.9-1.2-4.5-1.1c-0.4,0-0.7,0-1.1,0c-1.1,0-2.1,0.1-3.1,0.5c-0.1,0-0.2,0-0.4,0.1
		c-0.4-0.6-0.7-1.2-1.1-1.9c0.2,0,0.4-0.1,0.5-0.1c0.7,0,1.5,0,2.2,0c1.6,0,3.3-0.1,4.9-0.1c0.2,0,0.5-0.1,0.7-0.1
		c0.5-0.1,0.6-0.4,0.6-0.9c0-0.2,0-0.4-0.1-0.6c-0.6-1.5-1.5-2.9-2.6-4.1c-0.2-0.2-0.5-0.3-0.9-0.4c-0.8-0.1-1.6-0.1-2.4-0.3
		c-2.3-0.4-4.6-0.9-6.9-1.4c-0.8-0.2-1.2,0-1.5,1c0.1,0,0.2,0.1,0.3,0.1c1.5,0.4,3,0.8,4.5,1.1c1.7,0.3,3.4,0.6,5.2,0.9
		c0.7,0.1,1.1,0.3,1.5,0.9c0.4,0.7,0.9,1.4,1.2,2.2c-0.2,0-0.3,0.1-0.4,0.1c-0.8,0-1.6,0-2.4,0c-4.8,0-9.5-0.1-14.3-0.1
		c-0.8,0-1.2,0.3-1.6,1.4c1.5,0.2,2.9,0.1,4.4,0.2c0.1,0.1,0.1,0.2,0.1,0.3c0.4,1.2,0.8,2.5,1.3,3.7c0.1,0.2,0.2,0.5,0.3,0.5
		c0.4,0.1,0.8,0.2,1.3-0.1c-0.5-1.4-1-2.9-1.5-4.5c1.2,0,2.3,0,3.3,0c0.2,0,0.4,0.1,0.5,0.3c0.5,0.8,0.9,1.7,1.4,2.5
		C92.4,52,91.6,52.3,91.2,53.1z M122.1,77.1c-0.4,0-0.6,0-0.8,0c-1.5,0-2.9,0-4.4,0c-0.4,0-0.7,0.1-1,0.5c-1.4,1.9-2.8,3.7-4.1,5.6
		c-0.1,0.1-0.2,0.3-0.4,0.6c0.9,0,1.7,0,2.5,0c0.4,0,0.6-0.1,0.9-0.4c0.9-1.1,1.8-2.1,2.6-3.2c0.3-0.4,0.7-0.6,1.2-0.5
		c1.6,0,3.1,0,4.7,0c0.5,0,0.9,0.1,1.2,0.6c0.8,1.1,1.7,2.2,2.6,3.2c0.1,0.2,0.3,0.4,0.5,0.4c0.9,0,1.8,0,2.9,0
		c-0.2-0.3-0.3-0.5-0.5-0.7c-2.3-3.1-4.6-6.2-6.8-9.3c-0.5-0.6-0.9-0.9-1.7-0.9c-0.7,0.1-1.3,0-2,0c-0.4,0.5-0.9,1.1-1.3,1.6
		c-0.3,0.4-0.5,0.7-0.9,1.2c0.4,0,0.6,0,0.9,0c0.8,0,1.7,0,2.5,0c0.2,0,0.5,0.1,0.6,0.2C121.5,76.3,121.7,76.6,122.1,77.1z M72,69.7
		c1.3,0,2.6,0,3.8,0c0.2-0.9,0.1-14.7,0-15.2c-1.1-0.1-3.3-0.1-3.8,0.1C72,59.6,72,64.6,72,69.7z M139.8,58.4c0.2,0,0.3,0,0.4,0
		c1,0.1,1.9,0.2,2.9,0.3c1.6,0.2,3.3,0.5,4.9,0.6c1.1,0.1,2.2,0.2,3.2,0.2c0.4,0,0.6-0.1,0.7-0.5c0.1-0.4-0.1-0.6-0.5-0.7
		c-0.3-0.1-0.7-0.2-1-0.2c-1.6-0.2-3.1-0.3-4.7-0.5c-2.3-0.4-4.6-0.4-6.9-0.5c-0.6,0-0.8,0.2-0.7,0.8c0.4,1.6,0.7,3.2,1.1,4.8
		c0.1,0.5,0.3,0.8,0.9,0.7c-0.5,0.5-0.6,0.5-0.5,1.1c0.1,0.8,0.2,1.7,0.4,2.5c0.1,0.8,0.1,0.8,1,0.8c2.8,0,5.6,0,8.4,0
		c0.5,0,1-0.1,1.5-0.2c0.2,0,0.4-0.2,0.4-0.4c0.1-0.3-0.2-0.5-0.4-0.5c-0.3-0.1-0.5-0.1-0.8-0.1c-2.2,0-4.3-0.1-6.5-0.1
		c-0.5,0-1.1,0-1.6,0c-0.2,0-0.4,0-0.6-0.1c-0.1-0.5-0.2-1-0.3-1.6c0.3,0,0.6,0,0.8,0c1.4,0,2.7-0.1,4.1-0.1c0.3,0,0.6,0,0.8-0.2
		c0.4-0.2,0.3-0.6,0-0.8c-0.1-0.1-0.2-0.1-0.4-0.1c-0.8-0.1-1.6-0.2-2.4-0.2c0.5,0,0.9,0,1.4,0c0.4,0,0.8,0,1.2-0.1
		c0.3,0,0.6-0.1,0.6-0.5c0-0.4-0.1-0.5-0.6-0.6c0,0-0.1,0-0.1,0c-0.5,0-1.1-0.1-1.6-0.1c-1.2,0-2.5,0-3.7,0c-0.2,0-0.4,0-0.7-0.1
		C140.3,60.9,139.8,59.7,139.8,58.4z M48.2,69.7c0-3.2,0-6.2,0-9.4c-1.3,0-2.6,0-3.9,0c0,3.1,0,6.2,0,9.4
		C45.7,69.7,46.9,69.7,48.2,69.7z M154,73c0,3.6,0,7.2,0,10.8c0.5,0,1,0,1.5,0c0.5,0,1,0,1.4,0c0-3.6,0-7.2,0-10.8
		C155.9,73,155,73,154,73z M34.2,41.8c2.9,1.3,5.8,2.6,8.7,3.9c0.5-1,1-2,1.5-3c-0.7-0.5-8.5-4-9.1-4C35,39.7,34.6,40.8,34.2,41.8z
		 M51.6,32.6c-2.6-2.2-5.1-4.2-7.6-6.4c-0.7,1-1.4,1.9-2,2.8c2.5,2.1,4.9,4.1,7.4,6.1C50.1,34.2,50.8,33.4,51.6,32.6z M63.5,26.4
		c-1.4-3-2.8-6-4.3-9c-1,0.5-2,0.9-2.9,1.4c1.5,3,3,6,4.5,9C61.8,27.3,62.6,26.8,63.5,26.4z M74,24.6c1.1,0,2.1,0.1,3.1,0.1
		c0.2-1.1,0.1-9.1-0.1-9.7c-1,0.1-1.9,0.1-2.9,0.2C74.1,18.4,74.1,21.4,74,24.6z M100.8,35.9c0.7,0.9,1.3,1.7,1.9,2.5
		c2.6-2,5.1-4,7.7-6c-0.6-0.9-1.2-1.7-1.8-2.5C106,32,103.4,33.9,100.8,35.9z M96.5,20.4c-1-0.5-1.8-1-2.8-1.5
		c-1.5,2.9-3,5.7-4.5,8.6c1,0.5,1.8,0.9,2.8,1.4C93.5,26,95,23.2,96.5,20.4z M116.9,44.8c-3.1,0.9-6.2,1.7-9.3,2.5
		c0.2,1,0.2,1.9,0.4,2.8c3.2-0.8,6.4-1.7,9.6-2.5C117.5,46.6,117.2,45.7,116.9,44.8z M104.4,57.2c0,0.4-0.1,0.6-0.1,0.9
		c-0.1,1.3,0,2.6-0.3,3.9c-0.6,2.6-2.8,4.5-5.5,4.6c-1.5,0-2.8-0.6-3.9-1.6c-0.1-0.1-0.3-0.2-0.4-0.4c-0.4,1.5-0.1,2.1,1.1,2.6
		c2.5,1.2,5,1.1,7.3-0.5c2.9-2,3.9-5.9,2.2-9.1C104.7,57.5,104.6,57.4,104.4,57.2z M125,70.1c-0.5-1.1-1.1-1.6-2.1-1.6
		c-0.2,0-0.5,0-0.7,0c-2.5,0-5-0.1-7.5-0.1c-0.7,0-1.2-0.3-1.4-1c-0.2-0.7-0.4-1.4-0.5-2.2c-0.1-0.7-0.3-0.7-1-0.5
		c0,0.2,0,0.4,0,0.6c0.1,0.7,0.2,1.5,0.4,2.2c0.3,1.7,1,2.3,2.9,2.5c0.7,0.1,1.4,0.1,2.1,0.1c2.4,0,4.8,0,7.2,0
		C124.5,70.1,124.7,70.1,125,70.1z M109.2,52.8c0,0,0,0.1,0,0.1c0.6,0.3,1.2,0.7,1.8,1c0.3,0.2,0.7,0.3,1.1,0.3
		c3.6,0.1,7.3,0.1,10.9,0.1c0.1,0,0.3,0,0.4,0c0.9,0.1,2-0.4,2.5-1.3c-0.3,0-0.5-0.1-0.7-0.1c-0.5,0-1.1,0-1.6,0
		c-1.7-0.2-3.5-0.1-5.2-0.2c-2.8-0.2-5.7,0-8.5,0C109.7,52.8,109.5,52.8,109.2,52.8z M105.5,67.3c-0.1,0-0.1-0.1-0.2-0.1
		c-0.8,0.7-1.5,1.4-2.4,1.8c-0.9,0.4-1.8,0.9-2.8,0.9c-1,0.1-2,0.1-3,0c-1-0.1-1.9-0.5-2.9-0.7c-0.3,1.3-0.2,1.5,0.9,1.8
		c2.4,0.7,4.8,0.7,7.1-0.1c1.1-0.4,2.1-0.9,3-1.7c0.1-0.1,0.2-0.3,0.2-0.4C105.5,68.3,105.5,67.8,105.5,67.3z M75.5,38.5
		c0.4,0,0.6-0.1,0.7-0.1c1.4,0,2.7,0,4.1,0.1c0.7,0,1.1-0.3,1.5-0.8C81.1,37,81,37,80.2,37c-1.7,0-3.4,0.1-5,0.1
		c-0.2,0-0.5,0-0.7,0.1c-0.5,1.7-0.2,5.3,0.5,6.1c0.2-0.1,0.3-0.3,0.5-0.4c0.4-0.2,0.4-0.5,0.4-0.9C75.7,40.8,75.6,39.7,75.5,38.5z
		 M87.9,67.3c0.2-0.8,0.2-0.8-0.3-1.2c-1-0.8-1.9-1.5-2.9-2.3c-0.2-0.2-0.4-0.5-0.5-0.7c0-0.6,0-1.3,0.2-1.9
		c0.5-1.4,0.3-1.2,1.6-1.3c0.3,0,0.6-0.1,0.9-0.2c0.1,0,0.2-0.2,0.2-0.4c0-0.1-0.2-0.2-0.3-0.2c-0.8,0-1.6,0-2.4,0.1
		c-0.2,0-0.4,0.2-0.4,0.3c-0.3,0.7-0.6,1.4-0.7,2.2c-0.2,1.3,0,2.4,1.2,3.2c0.8,0.6,1.6,1.3,2.4,1.9C87.2,66.9,87.5,67.3,87.9,67.3z
		"/>
	<path fill="none" stroke="#000000" stroke-width="0.4857" stroke-miterlimit="10" d="M10.8,39c0.4-0.8,1.1-1.2,1.8-1.6
		c0.7-0.4,1.5-0.8,2.3-1.1c0.4-0.2,0.7-0.4,1-0.7c0.5-0.6,1.1-1.2,1.6-1.8C33.3,44.5,49.2,55,65,65.5c0.1,0,0.1,0,0.1-0.1
		c0,0,0,0,0-0.1c0,0,0-0.1,0-0.1c0-3.5,0-7.1,0-10.6c0,0,0,0,0-0.1c0.5-0.2,2.7-0.2,3.8-0.1c0.2,0.5,0.2,14.4,0,15.3
		c-0.6,0-1.2-0.1-1.8,0c-1.4,0.2-2.5-0.3-3.7-1.1c-4.8-3.3-9.8-6.5-14.6-9.8c-0.4-0.3-0.8-0.4-1.3-0.4c-0.8,0-1.7,0-2.5,0
		c-0.2,0-0.5,0-0.8,0c0-1,0-1.9,0-2.8c0-0.7-0.2-1.1-0.8-1.4c-1.9-1.2-3.9-2.5-5.8-3.7c-0.4-0.3-0.7-0.3-1.2-0.2
		c-1.9,0.5-3.5,1.4-4.8,2.9c-0.9,1.1-1.4,2.5-1.7,3.9c-0.4,2-0.5,4.1-0.5,6.1c0,2.6-0.1,5.2-0.2,7.8c-0.1,1.6-0.4,3.2-1,4.7
		c-0.2,0.5-0.4,0.9-0.7,1.3c-0.8,0.9-1.7,1.9-2.6,2.7c-0.9,0.8-2,1-3.2,1.2c-0.2,0-0.5-0.1-0.7-0.2c-1.7-1.1-3.4-2.2-5.1-3.3
		c-5-3.3-9.9-6.5-14.9-9.8C1,67.4,0.8,67.2,0.4,67c0.4-0.2,0.7-0.3,1-0.4c1.2-0.4,2.3-0.9,3.3-1.7c1.2-1,2-2.3,2.5-3.8
		C7.8,59.2,8,57.2,8,55.3c0.1-2.3,0-4.7,0.1-7c0.1-1.6,0.2-3.2,0.5-4.9c0.2-1.5,0.9-2.8,1.8-4C10.5,39.2,10.7,39.1,10.8,39
		c0,0.2-0.1,0.5,0.2,0.7c1.2,0.8,2.5,1.7,3.7,2.6c1.4-1.5,3-2.6,5.1-3.2c-1.4-0.9-2.4-1.8-3.7-2.3c-0.5-0.2-1-0.2-1.5,0
		c-0.8,0.4-1.5,0.8-2.3,1.2C11.8,38.3,11.3,38.7,10.8,39z M8.3,58.4c-0.5,1.9-0.9,3.8-2,5.4c0.3,0.2,0.5,0.4,0.8,0.6
		c0.9,0.6,1.8,1.2,2.8,1.9c0.2,0.1,0.3,0.3,0.5,0.5c-0.4,0.4-0.7,0.7-1.1,1c-0.9,0.8-2,1.2-3,1.7c-0.2,0.1-0.5,0.2-0.8,0.4
		c0.2,0.2,0.4,0.3,0.5,0.3c1,0.6,2.1,1.3,3.1,1.9c0.5,0.3,1.1,0.3,1.6,0.1c1.2-0.5,2.3-1.1,3.3-2c0.2-0.2,0.4-0.5,0.6-0.8
		c-1.2-1.2-2.7-1.8-4-3c1-1.6,1.4-3.4,1.9-5.3c0.8,0.5,1.4,0.9,2,1.3c0.7,0.4,1.3,0.9,2,1.2c0-0.3,0.1-0.5,0.1-0.7
		c0-1.5,0.1-3,0.1-4.5c0-0.3,0.1-0.7,0.1-1.1c1.4,0.7,2.6,1.6,4,2.3c0-1.1,0.1-2.2,0.1-3.2c0.1-1,0-2.1,0.2-3.2
		c1.5,0.8,2.7,1.8,4.1,2.6c0.2-0.7,0.3-1.2,0.5-1.7c0.3-0.9,0.7-1.9,1.1-2.7c0.3-0.7,0.4-0.8-0.2-1.2c-1-0.7-2-1.4-3.1-2.1
		c-0.1-0.1-0.3-0.1-0.4-0.2c-1.2,1.5-1.5,3.3-2,5.2c-0.7-0.4-1.4-0.8-2-1.2c-0.6-0.4-1.2-0.9-2-1.2c-0.1,0.4-0.1,0.7-0.1,1
		c-0.1,1.5-0.1,3-0.2,4.4c0,0.3-0.1,0.5-0.1,0.8c-1.4-0.7-2.6-1.6-4-2.3c0,0.7-0.1,1.3-0.1,1.8c0,1.2-0.1,2.4-0.1,3.6
		c0,0.3-0.1,0.5-0.2,0.9C10.9,60.1,9.6,59.3,8.3,58.4z M24.9,69.1c0.1-0.6,0.1-1,0.2-1.4c0-1.5,0.1-2.9,0.1-4.4c0-0.2,0-0.4,0.1-0.6
		c0.2,0.1,0.4,0.2,0.6,0.3c0.8,0.5,1.7,1,2.5,1.6c0.2,0.1,0.5,0.2,0.7,0.3c0-0.2,0.1-0.3,0.1-0.4c0.1-1.8,0.2-3.7,0.3-5.5
		c0-0.4-0.2-0.5-0.4-0.7c-1-0.6-2-1.3-3-1.9c-0.1-0.1-0.3-0.1-0.5-0.2c-0.2,0.5-0.2,1-0.3,1.4c-0.1,1.4-0.1,2.9-0.2,4.3
		c0,0.2-0.1,0.4-0.1,0.6c-1.4-0.8-2.6-1.7-4.1-2.4c0,0.4,0,0.7,0,0.9c0,1.5-0.1,3.1-0.1,4.6c0,0.3,0.1,0.6-0.2,0.9
		c-0.7-0.4-1.3-0.9-1.9-1.3c-0.6-0.4-1.2-0.8-2-1.2c-0.3,1-0.5,1.9-0.8,2.8c-0.3,0.9-0.7,1.7-1.1,2.6c1.3,1,2.7,1.7,4,2.8
		c-0.6,0.8-1.4,1.4-2.2,1.9c-0.8,0.5-1.8,0.8-2.7,1.2c0.1,0.1,0.1,0.2,0.2,0.2c1.2,0.8,2.3,1.6,3.5,2.3c0.1,0.1,0.4,0.1,0.5,0.1
		c1.7-0.5,3.2-1.2,4.4-2.4c0.2-0.2,0.3-0.4,0.5-0.6c-1.4-0.9-2.7-1.8-4.1-2.8c0.9-1.7,1.5-3.4,1.9-5.4
		C22.2,67.5,23.5,68.3,24.9,69.1z M14.7,42.4c-0.2,0.3-0.4,0.6-0.6,0.9c-0.6,1.1-0.9,2.4-1.2,3.6c-0.1,0.2-0.1,0.4-0.2,0.7
		c-1.4-0.8-2.5-1.7-3.9-2.3c-0.1,0.2-0.1,0.3-0.1,0.4c-0.1,1.8-0.1,3.6-0.2,5.5c0,0.4,0.2,0.7,0.6,0.9c1,0.6,1.9,1.3,2.9,1.9
		c0.1,0.1,0.3,0.1,0.5,0.2c0-0.4,0.1-0.7,0.1-0.9c0-1.4,0.1-2.8,0.1-4.1c0-0.4,0.1-0.7,0.2-1.2c1.5,0.8,2.7,1.8,4,2.5
		c0.1-0.2,0.1-0.3,0.2-0.3c0.4-1.6,0.8-3.1,1.6-4.5c0.2-0.3,0.1-0.5-0.2-0.7c-0.3-0.2-0.5-0.4-0.8-0.6C16.6,43.6,15.7,43,14.7,42.4z
		 M25,69.3c-0.1,0.4-0.2,0.8-0.2,1.1c-0.3,1.4-0.7,2.7-1.5,3.9c-0.2,0.3-0.1,0.5,0.2,0.7c0.5,0.4,1.1,0.8,1.6,1.2
		c0.5,0.3,1,0.6,1.5,0.9c0.5,0.2,0.7,0.2,0.9-0.3c0.1-0.1,0.1-0.3,0.2-0.4c0.7-1.3,0.9-2.7,1.3-4.1c0.1-0.3-0.1-0.5-0.3-0.7
		c-0.9-0.6-1.7-1.1-2.6-1.7C25.7,69.8,25.4,69.6,25,69.3z M28,44.5c-0.1-0.1-0.1-0.2-0.2-0.2c-1.1-0.8-2.3-1.5-3.4-2.3
		c-0.3-0.2-0.5-0.1-0.8,0c-1.3,0.4-2.6,1-3.6,1.9c-0.3,0.3-0.6,0.6-0.9,0.9c0.5,0.6,3,2.4,4,2.8c0.8-0.6,1.5-1.2,2.3-1.7
		C26.1,45.3,27.1,45,28,44.5z M36.4,49.9c-1.3-1-2.5-1.7-3.7-2.4c-0.2-0.1-0.6-0.1-0.8,0c-0.8,0.3-1.5,0.6-2.2,1
		c-0.7,0.4-1.3,0.9-1.8,1.5c-0.4,0.4-0.3,0.5,0.1,0.8c0.3,0.2,0.7,0.5,1,0.7c0.8,0.5,1.7,1.1,2.5,1.6C32.7,51.6,34.3,50.6,36.4,49.9
		z"/>
	<path fill="none" stroke="#000000" stroke-width="0.4857" stroke-miterlimit="10" d="M89.9,80.9c0-0.4,0-0.8,0-1.2
		c-0.3,0-0.6,0-0.9,0c-11.7,0-23.5,0-35.2,0c-0.2,0-0.4,0-0.7,0c-0.5,0-0.9-0.4-0.9-0.9c0-0.3,0-0.6,0-0.9c0-0.5,0.4-0.9,0.9-0.9
		c0.2,0,0.4,0,0.7,0c11.6,0,23.1,0,34.7,0c5.5,0,11,0,16.5,0c0.3,0,0.5,0,0.9,0c0-0.4,0-0.8,0-1.2c-0.3,0-0.6,0-0.9,0
		c-5.5,0-10.9,0-16.4,0c-14.2,0-28.4,0-42.6,0c-0.4,0-0.9,0.1-1.1-0.4c-0.1-0.2-0.2-0.4-0.3-0.6c0-0.3,0-0.5,0-0.8c0-0.6,0.4-1,1-1
		c0.2,0,0.4,0,0.6,0c14.2,0,28.5,0,42.7,0c5.4,0,10.8,0,16.1,0c0.7,0,1.4,0.1,2.1,0.3c1.3,0.4,1.9,1.3,1.9,2.7c0,0.4,0,0.9,0,1.3
		c-0.1,1.1-0.6,1.8-1.6,2.1c-0.3,0.1-0.7,0.2-1,0.2c-0.3,0.1-0.7,0.1-1.1,0.1c1.3,1.4,2.5,2.7,3.7,4c0,0.1,0,0.1,0,0.2
		c-0.6,0-1.3-0.1-1.9,0c-0.9,0.1-1.6-0.2-2.1-0.9c-0.8-1-1.7-1.9-2.6-2.8c-0.2-0.2-0.4-0.4-0.7-0.4c-2.8,0-5.5,0-8.3,0
		c0,0-0.1,0-0.2,0.1c-0.1,1.2,0,2.4-0.1,3.7c-0.2,0-0.4,0.1-0.6,0.1c-10.3,0-20.6,0-30.9,0c-0.8,0-1-0.3-1-1.1c0-0.2,0-0.4,0-0.6
		c0-0.5,0.3-0.8,0.8-0.8c0.2,0,0.4,0,0.6,0c9,0,18.1,0,27.1,0C89.3,80.9,89.5,80.9,89.9,80.9z"/>
	<path fill="none" stroke="#000000" stroke-width="0.4857" stroke-miterlimit="10" d="M164.8,55.8c0-0.9,0.1-1.6,0.1-2.4
		c0-0.1,0-0.2-0.1-0.3c-0.7-0.7-0.4-1.7-0.5-2.5c-0.1-0.3,0.2-0.5,0.5-0.5c1.1,0,2.1,0.3,2.9,1c0.2,0.1,0.3,0.4,0.3,0.7
		c0,0.3-0.1,0.6-0.1,1c0.7,0.5,1.4,1,2.2,1.5c0.3,0.2,0.7,0.2,1,0.1c1-0.4,2.1-0.4,3.1-0.4c1.4,0,2.8,0.4,4,1
		c0.7,0.3,1.5,0.5,2.3,0.6c2,0.3,4,0.6,6,1.1c2.1,0.5,4.1,1.1,6.1,1.9c1,0.4,1.3,0.9,1.3,2c0,1.6-0.8,2.7-2.3,3.3
		c-0.4,0.2-0.8,0.3-1.2,0.5c0,0.5,0.4,0.6,0.7,0.6c1,0,2,0,3,0c0.6,0,1.3,0,1.9-0.1c0.4,0,0.6,0.1,0.9,0.3c0.8,0.9,1.6,1.8,2.4,2.8
		c0.1,0.1,0.2,0.2,0.3,0.4c0.4,0.6,0.3,1.2-0.7,1.2c-5.8,0-11.5,0-17.3,0c0,0-0.1,0-0.1,0c-0.8,0-1-0.5-0.6-1.2
		c0.2-0.4,0.4-0.7,0.6-1.1c0,0-0.1-0.1-0.1-0.1c-0.3,0.4-0.7,0.7-1,1.1c-1,1.2-2.3,2-3.7,2.5c-0.4,0.2-0.9,0.2-1.3,0.2
		c-0.8,0-1.6,0-2.4,0c-1.3,0.1-2.4-0.5-3.5-1.1c-0.7-0.4-1.2-1-1.8-1.5c-0.2-0.2-0.4-0.3-0.7-0.2c-2.3,0.4-4.6,0.8-6.9,1.1
		c-2,0.3-3.9,0.4-5.9,0.6c-0.6,0.1-1.3,0.1-1.9,0.1c-3.8,0-7.6,0.1-11.5,0.1c-2.2,0-4.4,0-6.6,0c-1,0-1.5-0.4-1.9-1.5
		c0.3,0,0.6-0.1,0.9-0.1c3.5,0,7.1,0,10.6,0c3.7,0,7.4,0,11.1-0.1c1.4,0,2.8-0.3,4.3-0.4c2.1-0.3,4.2-0.7,6.4-1c0.3,0,0.6-0.1,1-0.2
		c-0.1-0.3-0.2-0.5-0.4-0.8c-0.3-0.7-0.6-1.4-0.6-2.1c0-1.1,0-2.1,0-3.2c0-0.2,0.1-0.5,0.2-0.7c0.5-1,0.9-1.9,1.4-2.9
		c-0.4,0-0.8-0.2-1.2,0.2c-0.2,0.3-0.6,0.3-0.8,0.1c-0.3-0.2-0.5-0.2-0.8-0.1c-3.5,0.3-7,0.4-10.5,0.3c-2.5,0-5-0.4-7.4-0.8
		c-2.1-0.3-4.2-0.5-6.2-0.8c-1.5-0.2-3-0.4-4.5-0.6c-0.2,0-0.4-0.1-0.6-0.2c-0.6-0.3-1.3-0.7-1.9-1c-0.2-0.1-0.3-0.3-0.5-0.5
		c0.3,0,0.5-0.1,0.7-0.1c1,0.1,2,0.3,3,0.4c1.2,0.2,2.4,0.3,3.7,0.5c2.4,0.3,4.8,0.7,7.2,1c1.6,0.2,3.3,0.4,4.9,0.5
		c2.1,0.1,4.1,0.2,6.2,0.2c0.2,0,0.4,0,0.6-0.2c-0.4-0.2-0.7-0.4-1.1-0.6c-1.6-0.7-3.1-1.5-4.7-2.2c-0.3-0.2-0.8-0.2-1.1-0.2
		c-1.3,0-2.6,0.1-3.8,0.2c-1.6,0.1-3.2,0.2-4.7,0.2c-3.1,0.1-6.3,0-9.4-0.2c-1-0.1-2.1-0.1-3.1-0.3c-2.5-0.5-4.4-1.8-5.4-4.2
		c-0.5-1.1-0.5-2.2-0.4-3.4c0.1-1.4,0.2-1.4,1.6-1.5c0.1,0,0.1,0,0.3-0.1c0-0.4,0.1-0.9,0.1-1.4c0-0.9,0-1.7,0-2.6c0-0.8-0.3-1-1-1
		c-0.9,0-1.9,0-2.8,0.1c-1.3,0.1-2.5,0.5-3.8,0.6c-1,0.1-2,0.5-3,0.8c-0.4,0.1-0.7,0.3-0.9,0.7c-0.1,0.2-0.1,0.5,0.1,0.7
		c0.3,0.2,0.7,0.5,1,0.7c-0.5,0.8-1.2,1-1.8,0.4c-1.1-1-0.9-2.7,0.5-3.4c0.6-0.3,1.2-0.5,1.8-0.7c2-0.5,4-0.9,6.1-1.1
		c0.8-0.1,1.6-0.1,2.4-0.1c0.5,0,1,0.1,1.4,0.2c0.7,0.2,1.2,0.6,1.3,1.4c0.1,0.7,0.2,1.4,0.2,2.1c0,1.2-0.1,2.3-0.2,3.5
		c-0.1,0.6-0.1,0.6-0.7,0.7c-0.2,0-0.5,0-0.7,0.1c-0.1,0-0.1,0-0.3,0.1c0,0.2-0.1,0.4-0.1,0.5c0,0.6,0.1,1.2,0.1,1.8
		c0.1,0.6,0.4,1.1,0.8,1.6c0.8,0.9,1.8,1.6,2.9,1.9c1,0.3,2,0.5,3.1,0.5c3.6,0,7.2,0.1,10.7,0.1c2.5,0,5-0.1,7.4-0.5
		c0.5-0.1,1,0,1.5,0.3c2.5,1.1,5,2.2,7.4,3.4C161.9,56.1,163.2,55.9,164.8,55.8z M166.7,62.5c-0.1,4.1,3.4,7.3,7.1,7.3
		c4.1,0,7.4-3.4,7.3-7.4c-0.1-3.9-3.4-7.2-7.6-7C170,55.4,166.6,58.4,166.7,62.5z M197.7,68c-0.4-0.5-0.8-0.9-1.2-1.3
		c-0.3-0.3-0.6-0.4-1-0.4c-1.5,0-3.1,0-4.6,0c-1.4,0-2.7-0.6-3.8-1.4c-1-0.8-1.6-1.8-2-2.9c-0.3-0.7-0.7-0.8-1.3-0.8
		c-0.1,1.2,0,2.4-0.2,3.5c-0.2,1.2-0.6,2.3-0.9,3.4C183.9,68.2,197,68.3,197.7,68z M190,62.9c1,0,1.7-0.5,2.2-1.3
		c0.6-1.1,0.6-1.4-0.6-1.9c-1.3-0.5-2.7-0.9-4.1-1.3c-1.9-0.5-3.9-0.9-5.8-1.3c-0.3-0.1-0.6,0-1-0.1c0.5,0.9,0.9,1.7,1.4,2.5
		c0.5,0,0.9-0.1,1.4,0c0.6,0.1,1.1,0.3,1.6,0.4c0.7,0.2,1.1,0.6,1.3,1.3c0.2,0.5,0.5,1,0.7,1.5c0.1,0.1,0.2,0.1,0.4,0.3
		c0-0.2,0-0.4,0-0.5c0-1,0-1,1-1.1c0.1,0,0.1,0,0.2,0c0.7,0,1,0.2,1.2,0.9C189.9,62.5,189.9,62.7,190,62.9z M166.1,55.8
		c1-0.1,1.9-0.1,2.8-0.5c-0.9-0.6-1.7-1.1-2.6-1.8C166.2,54.3,166.2,55,166.1,55.8z M167,51.9c-0.8-0.6-1-0.7-1.7-0.6
		c0.1,0.4-0.2,1,0.4,1.2C166.1,52.6,166.7,52.4,167,51.9z"/>
	<path fill="none" stroke="#000000" stroke-width="0.4857" stroke-miterlimit="10" d="M131.2,54.6c-2.1,2.5-4.1,4.9-6.2,7.4
		c2.1,2.5,4.2,5.1,6.3,7.7c-0.2,0-0.4,0.1-0.5,0.1c-1,0-2,0-3,0c-0.5,0-0.8-0.1-1.1-0.5c-1.4-1.7-2.8-3.3-4.2-5
		c-0.2-0.3-0.5-0.5-0.9-0.5c-3.5,0-7.1,0-10.6,0c-0.1,0-0.3,0-0.5,0c0,1.9,0,3.9,0,5.8c-1.4,0-2.6,0-3.9,0c0-5.1,0-10.1,0-15.2
		c1.3,0,2.6,0,3.9,0c0,1.9,0,3.9,0,5.8c0.3,0,0.5,0,0.7,0c3.4,0,6.8,0,10.2,0c0.5,0,0.8-0.1,1.1-0.5c1.4-1.7,2.8-3.3,4.2-4.9
		c0.3-0.4,0.6-0.5,1.1-0.5c1.2,0,2.3,0,3.5,0C131.2,54.5,131.2,54.5,131.2,54.6z"/>
	<path fill="none" stroke="#000000" stroke-width="0.4857" stroke-miterlimit="10" d="M199.6,72.9c0,1,0,1.9,0,2.9
		c-0.3,0-0.6,0-0.9,0c-4.1,0-8.2,0-12.3,0c-0.6,0-1.2,0.1-1.8,0.3c-0.7,0.2-1.1,0.8-1.1,1.6c0,0.5,0,0.9,0,1.4
		c0,0.6,0.3,1.1,0.8,1.4c0.4,0.2,0.9,0.4,1.3,0.4c2.9,0,5.8,0,8.7,0c0.7,0,1.3-0.2,1.8-0.8c0.1-0.1,0.1-0.2,0.1-0.3c0,0,0-0.1,0-0.2
		c-3.3,0-6.6,0-9.9,0c0-0.9,0-1.7,0-2.5c4.4,0,8.7,0,13.1,0c0,0.2,0,0.4,0,0.6c0,1.1,0,2.2,0,3.3c0,0.9-0.4,1.5-1,2
		c-0.8,0.6-1.6,0.8-2.6,0.8c-1.1,0-2.3,0-3.4,0c-2.8,0-5.5,0-8.3,0c-0.8,0-1.6-0.1-2.4-0.5c-1-0.5-1.5-1.3-1.5-2.5
		c0-1.6,0-3.3,0-4.9c0-0.9,0.4-1.6,1.1-2.1c0.8-0.6,1.6-0.8,2.6-0.8c1.2,0,2.4,0,3.6,0c3.7,0,7.4,0,11.1,0
		C199.1,72.9,199.3,72.9,199.6,72.9z"/>
	<path fill="none" stroke="#000000" stroke-width="0.4857" stroke-miterlimit="10" d="M78.8,54.5c8.3,0,16.5,0,24.8,0
		c0,1.3,0,2.6,0,4c-3.5,0-6.9,0-10.4,0c-0.1,0.8,0,1.5,0,2.3c0,0.7,0,1.5,0,2.2c0,0.8,0,1.5,0,2.3c0,0.7,0,1.5,0,2.2
		c0,0.7,0,1.5,0,2.3c-1.3,0-2.6,0-3.9,0c0-3.7,0-7.4,0-11.2c-3.5,0-6.9,0-10.3,0C78.8,57.1,78.8,55.8,78.8,54.5z"/>
	<path fill="none" stroke="#000000" stroke-width="0.4857" stroke-miterlimit="10" d="M70.3,52.3c0-1.3-0.1-2.6-0.1-3.8
		c0-0.2,0.3-0.5,0.4-0.6c1.9-1.5,3.8-3,5.7-4.6C84.2,37.1,92,31,99.7,24.8c0.2-0.2,0.4-0.3,0.6-0.4c0.1,0,0.2,0,0.5,0
		c-0.2,0.3-0.4,0.5-0.5,0.7c-6.5,7.5-13,14.9-19.6,22.4c-1.3,1.5-2.6,2.9-3.8,4.4c-0.3,0.3-0.6,0.5-1.1,0.5
		c-1.6-0.1-3.2-0.1-4.7-0.1C70.9,52.3,70.6,52.3,70.3,52.3z M72.4,50.7c1.1,0,2,0,3,0c0.2,0,0.4-0.2,0.5-0.3c0.7-0.8,1.4-1.6,2-2.3
		c0.1-0.1,0.2-0.3,0.3-0.4c0-0.8,0-1.5,0-2.4c-0.9,0.4-1.6,0.7-2.4,1c-0.3,0.1-0.6,0.2-0.8,0.4c-0.8,0.7-1.7,1.4-2.5,2.1
		c-0.1,0.1-0.3,0.3-0.3,0.4C72.3,49.7,72.3,50.2,72.4,50.7z"/>
	<path fill="none" stroke="#000000" stroke-width="0.4857" stroke-miterlimit="10" d="M151.7,72.9c0,1,0,1.9,0,2.8
		c-0.3,0-0.6,0-0.9,0c-4.1,0-8.2,0-12.3,0c-0.6,0-1.2,0.1-1.8,0.3c-0.9,0.3-1.1,0.7-1.1,1.6c0,0.5,0,1,0,1.5c0,0.5,0.2,0.9,0.7,1.2
		c0.5,0.2,1,0.4,1.5,0.5c0.4,0.1,0.7,0,1.1,0c4,0,8,0,12,0c0.3,0,0.5,0,0.9,0c0,1,0,1.9,0,2.9c-0.2,0-0.4,0.1-0.6,0.1
		c-4.9,0-9.9,0-14.8,0c-1,0-1.9-0.2-2.6-0.8c-0.7-0.5-1.1-1.2-1.1-2.1c0-1.7,0-3.4,0-5.1c0-0.9,0.4-1.6,1.1-2.1
		c0.8-0.6,1.7-0.8,2.7-0.8c2.5,0,4.9,0,7.4,0c2.3,0,4.7,0,7,0C151.1,72.9,151.4,72.9,151.7,72.9z"/>
	<path fill="none" stroke="#000000" stroke-width="0.4857" stroke-miterlimit="10" d="M162.2,83.7c-1,0-2,0-2.9,0
		c-0.2-0.5-0.2-9.4-0.1-10.8c0.2,0,0.3-0.1,0.5-0.1c5,0,10,0,15,0c1.1,0,2,0.3,2.9,1.1c0.5,0.4,0.8,0.9,0.8,1.5c0,2.7,0,5.4,0,8.2
		c-1,0-2,0-3,0c0-0.3,0-0.5,0-0.7c0-1.7,0-3.5,0-5.2c0-0.9-0.4-1.4-1.1-1.7c-0.4-0.2-1-0.3-1.4-0.3c-3.4,0-6.8,0-10.2,0
		c-0.1,0-0.1,0-0.3,0c-0.1,0.6,0,1.3,0,1.9c0,0.7,0,1.3,0,2c0,0.6,0,1.3,0,1.9C162.2,82.3,162.2,83,162.2,83.7z"/>
	<path fill="none" stroke="#000000" stroke-width="0.4857" stroke-miterlimit="10" d="M91.2,53.1c0.4-0.8,1.2-1.1,1.8-1.7
		c-0.5-0.8-0.9-1.7-1.4-2.5c-0.1-0.2-0.3-0.3-0.5-0.3c-1.1,0-2.1,0-3.3,0c0.5,1.6,1,3,1.5,4.5c-0.5,0.3-0.9,0.2-1.3,0.1
		c-0.1,0-0.3-0.3-0.3-0.5c-0.4-1.2-0.8-2.5-1.3-3.7c0-0.1-0.1-0.2-0.1-0.3c-1.5-0.2-2.9,0-4.4-0.2c0.4-1.1,0.7-1.4,1.6-1.4
		c4.8,0,9.5,0.1,14.3,0.1c0.8,0,1.6,0,2.4,0c0.1,0,0.2,0,0.4-0.1c-0.3-0.9-0.8-1.5-1.2-2.2c-0.3-0.6-0.8-0.8-1.5-0.9
		c-1.7-0.2-3.5-0.5-5.2-0.9c-1.5-0.3-3-0.7-4.5-1.1c-0.1,0-0.2-0.1-0.3-0.1c0.3-0.9,0.7-1.1,1.5-1c2.3,0.5,4.6,1,6.9,1.4
		c0.8,0.2,1.6,0.2,2.4,0.3c0.3,0,0.6,0.1,0.9,0.4c1.2,1.2,2,2.5,2.6,4.1c0.1,0.2,0.1,0.4,0.1,0.6c0,0.5-0.1,0.7-0.6,0.9
		c-0.2,0.1-0.5,0.1-0.7,0.1c-1.6,0.1-3.3,0.1-4.9,0.1c-0.7,0-1.5,0-2.2,0c-0.1,0-0.2,0-0.5,0.1c0.4,0.7,0.7,1.3,1.1,1.9
		c0.2,0,0.3,0,0.4-0.1c1-0.4,2-0.6,3.1-0.5c0.4,0,0.7,0,1.1,0c1.6-0.1,3.1,0.3,4.5,1.1c0.4,0.2,0.6,0.2,0.9-0.1
		c0.4-0.3,0.9-0.7,1.3-1c0.2-0.1,0.4-0.3,0.6-0.4c0.5,0.2,0.4,0.5,0.4,0.8c0,0.3,0,0.6-0.3,0.8c-0.4,0.3-0.7,0.6-1.1,0.9
		c0.4,0.4,0.7,0.8,1.2,1.3c-1.1,0.3-1.9,0-2.7-0.5c-2-1.4-4.2-1.9-6.6-1.5c-1.4,0.2-2.7,0.7-3.8,1.5C92.6,53.4,91.9,53.2,91.2,53.1z
		"/>
	<path fill="none" stroke="#000000" stroke-width="0.4857" stroke-miterlimit="10" d="M122.1,77.1c-0.3-0.4-0.6-0.8-0.9-1.1
		c-0.1-0.1-0.4-0.2-0.6-0.2c-0.8,0-1.7,0-2.5,0c-0.2,0-0.5,0-0.9,0c0.4-0.5,0.6-0.9,0.9-1.2c0.4-0.5,0.9-1.1,1.3-1.6
		c0.7,0,1.3,0,2,0c0.8-0.1,1.2,0.2,1.7,0.9c2.3,3.1,4.6,6.2,6.8,9.3c0.1,0.2,0.3,0.4,0.5,0.7c-1,0-2,0-2.9,0c-0.2,0-0.4-0.2-0.5-0.4
		c-0.9-1.1-1.8-2.1-2.6-3.2c-0.3-0.4-0.7-0.6-1.2-0.6c-1.6,0-3.1,0-4.7,0c-0.5,0-0.9,0.1-1.2,0.5c-0.8,1.1-1.7,2.1-2.6,3.2
		c-0.2,0.3-0.5,0.4-0.9,0.4c-0.8,0-1.6,0-2.5,0c0.2-0.3,0.3-0.4,0.4-0.6c1.4-1.9,2.8-3.7,4.1-5.6c0.3-0.4,0.5-0.5,1-0.5
		c1.5,0,2.9,0,4.4,0C121.5,77.1,121.7,77.1,122.1,77.1z"/>
	<path fill="none" stroke="#000000" stroke-width="0.4857" stroke-miterlimit="10" d="M72,69.7c0-5.1,0-10.1,0-15.2
		c0.5-0.2,2.7-0.2,3.8-0.1c0.1,0.5,0.2,14.3,0,15.2C74.6,69.7,73.3,69.7,72,69.7z"/>
	<path fill="none" stroke="#000000" stroke-width="0.4857" stroke-miterlimit="10" d="M139.8,58.4c0.1,1.3,0.5,2.4,0.7,3.7
		c0.3,0,0.5,0.1,0.7,0.1c1.2,0,2.5,0,3.7,0c0.5,0,1.1,0.1,1.6,0.1c0,0,0.1,0,0.1,0c0.5,0.1,0.6,0.3,0.6,0.6c0,0.4-0.3,0.5-0.6,0.5
		c-0.4,0-0.8,0-1.2,0.1c-0.5,0-0.9,0-1.4,0c0.8,0.1,1.6,0.1,2.4,0.2c0.1,0,0.3,0,0.4,0.1c0.4,0.2,0.4,0.7,0,0.8
		c-0.2,0.1-0.5,0.1-0.8,0.2c-1.4,0-2.7,0.1-4.1,0.1c-0.2,0-0.5,0-0.8,0c0.1,0.6,0.2,1,0.3,1.6c0.2,0,0.4,0.1,0.6,0.1
		c0.5,0,1.1,0,1.6,0c2.2,0,4.3,0.1,6.5,0.1c0.3,0,0.5,0,0.8,0.1c0.3,0.1,0.5,0.3,0.4,0.5c0,0.2-0.3,0.4-0.4,0.4
		c-0.5,0.1-1,0.2-1.5,0.2c-2.8,0-5.6,0-8.4,0c-0.8,0-0.8,0-1-0.8c-0.1-0.8-0.3-1.6-0.4-2.5c-0.1-0.6,0-0.6,0.5-1.1
		c-0.6,0.1-0.8-0.2-0.9-0.7c-0.4-1.6-0.7-3.2-1.1-4.8c-0.1-0.6,0-0.8,0.7-0.8c2.3,0.1,4.6,0.2,6.9,0.5c1.6,0.2,3.1,0.4,4.7,0.5
		c0.3,0,0.7,0.1,1,0.2c0.3,0.1,0.5,0.4,0.5,0.7c-0.1,0.4-0.4,0.5-0.7,0.5c-1.1-0.1-2.2-0.1-3.2-0.2c-1.6-0.2-3.3-0.4-4.9-0.6
		c-1-0.1-1.9-0.2-2.9-0.3C140.1,58.4,139.9,58.4,139.8,58.4z"/>
	<path fill="none" stroke="#000000" stroke-width="0.4857" stroke-miterlimit="10" d="M48.2,69.7c-1.3,0-2.6,0-3.9,0
		c0-3.1,0-6.2,0-9.4c1.3,0,2.6,0,3.9,0C48.2,63.5,48.2,66.6,48.2,69.7z"/>
	<path fill="none" stroke="#000000" stroke-width="0.4857" stroke-miterlimit="10" d="M154,73c1,0,2,0,3,0c0,3.6,0,7.1,0,10.8
		c-0.5,0-1,0-1.4,0c-0.5,0-1,0-1.5,0C154,80.1,154,76.6,154,73z"/>
	<path fill="none" stroke="#000000" stroke-width="0.4857" stroke-miterlimit="10" d="M34.2,41.8c0.4-1.1,0.8-2.1,1.1-3.1
		c0.6,0.1,8.4,3.5,9.1,4c-0.5,1-0.9,1.9-1.5,3C40,44.4,37.1,43.1,34.2,41.8z"/>
	<path fill="none" stroke="#000000" stroke-width="0.4857" stroke-miterlimit="10" d="M51.6,32.6c-0.8,0.9-1.5,1.7-2.3,2.5
		c-2.5-2-4.9-4-7.4-6.1c0.7-0.9,1.3-1.8,2-2.8C46.5,28.3,49,30.4,51.6,32.6z"/>
	<path fill="none" stroke="#000000" stroke-width="0.4857" stroke-miterlimit="10" d="M63.5,26.4c-0.9,0.5-1.8,0.9-2.7,1.4
		c-1.5-3-3-5.9-4.5-9c1-0.5,1.9-0.9,2.9-1.4C60.7,20.4,62.1,23.4,63.5,26.4z"/>
	<path fill="none" stroke="#000000" stroke-width="0.4857" stroke-miterlimit="10" d="M74,24.6c0-3.2,0.1-6.3,0.1-9.4
		c1-0.1,2-0.1,2.9-0.2c0.2,0.6,0.2,8.6,0.1,9.7C76.2,24.7,75.2,24.7,74,24.6z"/>
	<path fill="none" stroke="#000000" stroke-width="0.4857" stroke-miterlimit="10" d="M100.8,35.9c2.6-2,5.2-4,7.8-6
		c0.6,0.9,1.2,1.7,1.8,2.5c-2.6,2-5.1,3.9-7.7,6C102.1,37.6,101.5,36.8,100.8,35.9z"/>
	<path fill="none" stroke="#000000" stroke-width="0.4857" stroke-miterlimit="10" d="M96.5,20.4c-1.5,2.9-3,5.6-4.5,8.5
		c-0.9-0.5-1.8-0.9-2.8-1.4c1.5-2.9,3-5.7,4.5-8.6C94.6,19.4,95.5,19.8,96.5,20.4z"/>
	<path fill="none" stroke="#000000" stroke-width="0.4857" stroke-miterlimit="10" d="M116.9,44.8c0.3,0.9,0.5,1.8,0.8,2.8
		c-3.2,0.8-6.4,1.7-9.6,2.5c-0.3-0.9-0.3-1.8-0.4-2.8C110.8,46.5,113.8,45.6,116.9,44.8z"/>
	<path fill="none" stroke="#000000" stroke-width="0.4857" stroke-miterlimit="10" d="M104.4,57.2c0.2,0.2,0.4,0.3,0.4,0.4
		c1.7,3.3,0.7,7.1-2.2,9.1c-2.3,1.6-4.8,1.7-7.3,0.5c-1.2-0.6-1.4-1.1-1.1-2.6c0.2,0.1,0.3,0.2,0.4,0.4c1.1,1,2.4,1.6,3.9,1.6
		c2.6,0,4.9-2,5.5-4.6c0.3-1.3,0.2-2.6,0.3-3.9C104.3,57.9,104.3,57.6,104.4,57.2z"/>
	<path fill="none" stroke="#000000" stroke-width="0.4857" stroke-miterlimit="10" d="M125,70.1c-0.3,0-0.5,0-0.7,0
		c-2.4,0-4.8,0-7.2,0c-0.7,0-1.4,0-2.1-0.1c-1.9-0.2-2.6-0.8-2.9-2.5c-0.1-0.7-0.3-1.4-0.4-2.2c0-0.2,0-0.4,0-0.6
		c0.7-0.3,0.9-0.2,1,0.5c0.1,0.7,0.3,1.4,0.5,2.2c0.2,0.7,0.6,1,1.4,1c2.5,0,5,0,7.5,0.1c0.2,0,0.5,0,0.7,0
		C123.9,68.5,124.5,69,125,70.1z"/>
	<path fill="none" stroke="#000000" stroke-width="0.4857" stroke-miterlimit="10" d="M109.2,52.8c0.2,0,0.5,0,0.7,0
		c2.8,0,5.7-0.1,8.5,0c1.7,0.1,3.5,0,5.2,0.2c0.5,0.1,1.1,0,1.6,0c0.2,0,0.5,0,0.7,0.1c-0.6,0.9-1.6,1.5-2.5,1.3c-0.1,0-0.3,0-0.4,0
		c-3.6,0-7.3-0.1-10.9-0.1c-0.4,0-0.8-0.1-1.1-0.3c-0.6-0.3-1.2-0.7-1.8-1C109.2,52.9,109.2,52.9,109.2,52.8z"/>
	<path fill="none" stroke="#000000" stroke-width="0.4857" stroke-miterlimit="10" d="M105.5,67.3c0,0.5,0,0.9,0,1.4
		c0,0.1-0.1,0.3-0.2,0.4c-0.9,0.8-1.9,1.3-3,1.7c-2.3,0.9-4.7,0.8-7.1,0.1c-1.1-0.3-1.2-0.5-0.9-1.8c1,0.3,1.9,0.6,2.9,0.7
		c1,0.1,2,0.1,3,0c1-0.1,1.9-0.5,2.8-0.9c0.9-0.4,1.6-1.1,2.4-1.8C105.3,67.2,105.4,67.3,105.5,67.3z"/>
	<path fill="none" stroke="#000000" stroke-width="0.4857" stroke-miterlimit="10" d="M75.5,38.5c0.1,1.2,0.2,2.3,0.4,3.4
		c0.1,0.4,0,0.7-0.4,0.9c-0.2,0.1-0.3,0.3-0.5,0.4c-0.7-0.8-1-4.4-0.5-6.1c0.2,0,0.5-0.1,0.7-0.1c1.7,0,3.4-0.1,5-0.1
		c0.8,0,0.9,0,1.6,0.8c-0.4,0.4-0.8,0.8-1.5,0.8c-1.4-0.1-2.7-0.1-4.1-0.1C76.1,38.5,75.9,38.5,75.5,38.5z"/>
	<path fill="none" stroke="#000000" stroke-width="0.4857" stroke-miterlimit="10" d="M87.9,67.3c-0.5,0-0.8-0.3-1.1-0.6
		c-0.8-0.6-1.6-1.3-2.4-1.9c-1.2-0.8-1.4-2-1.2-3.2c0.1-0.7,0.4-1.5,0.7-2.2c0.1-0.1,0.3-0.3,0.4-0.3c0.8-0.1,1.6-0.1,2.4-0.1
		c0.1,0,0.3,0.1,0.3,0.2c0,0.1-0.1,0.3-0.2,0.4c-0.3,0.1-0.6,0.2-0.9,0.2c-1.3,0.1-1.1-0.1-1.6,1.3c-0.2,0.6-0.2,1.3-0.2,1.9
		c0,0.2,0.2,0.5,0.5,0.7c0.9,0.8,1.9,1.5,2.9,2.3C88.1,66.5,88.2,66.5,87.9,67.3z"/>
	<path fill="none" stroke="#000000" stroke-width="0.4857" stroke-miterlimit="10" d="M8.3,58.4c1.4,0.9,2.6,1.6,4,2.5
		c0.1-0.4,0.2-0.6,0.2-0.9c0.1-1.2,0.1-2.4,0.1-3.6c0-0.6,0-1.1,0.1-1.8c1.4,0.7,2.6,1.6,4,2.3c0-0.3,0.1-0.6,0.1-0.8
		c0.1-1.5,0.1-3,0.2-4.4c0-0.3,0.1-0.6,0.1-1c0.8,0.3,1.4,0.8,2,1.2c0.6,0.4,1.3,0.8,2,1.2c0.5-1.8,0.8-3.6,2-5.2
		c0.1,0.1,0.3,0.1,0.4,0.2c1,0.7,2.1,1.3,3.1,2.1c0.6,0.4,0.5,0.5,0.2,1.2c-0.4,0.9-0.7,1.8-1.1,2.7c-0.2,0.5-0.3,1.1-0.5,1.7
		c-1.4-0.7-2.7-1.7-4.1-2.6C21,54.4,21,55.4,21,56.4c-0.1,1-0.1,2.1-0.1,3.2c-1.4-0.7-2.6-1.6-4-2.3c0,0.4-0.1,0.8-0.1,1.1
		c-0.1,1.5-0.1,3-0.1,4.5c0,0.2-0.1,0.4-0.1,0.7c-0.8-0.3-1.4-0.8-2-1.2c-0.6-0.4-1.3-0.8-2-1.3c-0.5,1.9-0.9,3.7-1.9,5.3
		c1.2,1.1,2.7,1.8,4,3c-0.2,0.3-0.4,0.6-0.6,0.8c-1,0.8-2.1,1.5-3.3,2c-0.6,0.2-1.1,0.2-1.6-0.1c-1-0.6-2.1-1.3-3.1-1.9
		c-0.1-0.1-0.2-0.2-0.5-0.3c0.4-0.2,0.6-0.3,0.8-0.4c1.1-0.5,2.1-0.9,3-1.7c0.3-0.3,0.7-0.6,1.1-1c-0.2-0.2-0.3-0.4-0.5-0.5
		C8.9,65.6,7.9,65,7,64.4c-0.2-0.2-0.5-0.3-0.8-0.6C7.4,62.2,7.8,60.4,8.3,58.4z"/>
	<path fill="none" stroke="#000000" stroke-width="0.4857" stroke-miterlimit="10" d="M24.9,69.1c-1.4-0.9-2.7-1.6-4.1-2.4
		c-0.4,1.9-1,3.7-1.9,5.4c1.4,0.9,2.7,1.8,4.1,2.8c-0.2,0.2-0.3,0.4-0.5,0.6c-1.2,1.2-2.8,2-4.4,2.4c-0.2,0-0.4,0-0.5-0.1
		c-1.2-0.8-2.4-1.5-3.5-2.3c-0.1,0-0.1-0.1-0.2-0.2c0.9-0.4,1.8-0.7,2.7-1.2c0.8-0.5,1.6-1.1,2.2-1.9c-1.3-1-2.7-1.8-4-2.8
		c0.4-0.9,0.8-1.7,1.1-2.6c0.3-0.9,0.5-1.8,0.8-2.8c0.8,0.4,1.4,0.8,2,1.2c0.6,0.4,1.3,0.8,1.9,1.3c0.3-0.3,0.2-0.6,0.2-0.9
		c0.1-1.5,0.1-3.1,0.1-4.6c0-0.3,0-0.5,0-0.9c1.5,0.7,2.7,1.7,4.1,2.4c0-0.2,0.1-0.4,0.1-0.6c0.1-1.4,0.1-2.9,0.2-4.3
		c0-0.5,0-0.9,0.3-1.4c0.2,0.1,0.4,0.2,0.5,0.2c1,0.6,2,1.3,3,1.9c0.3,0.2,0.4,0.3,0.4,0.7c-0.1,1.8-0.2,3.7-0.3,5.5
		c0,0.1,0,0.2-0.1,0.4c-0.3-0.1-0.5-0.2-0.7-0.3c-0.8-0.5-1.7-1-2.5-1.6c-0.2-0.1-0.3-0.2-0.6-0.3c0,0.3-0.1,0.4-0.1,0.6
		c0,1.5-0.1,2.9-0.1,4.4C25,68.2,25,68.6,24.9,69.1z"/>
	<path fill="none" stroke="#000000" stroke-width="0.4857" stroke-miterlimit="10" d="M14.7,42.4c1,0.6,2,1.2,2.9,1.8
		c0.3,0.2,0.6,0.4,0.8,0.6c0.2,0.2,0.3,0.4,0.2,0.7c-0.8,1.4-1.2,3-1.6,4.5c0,0.1-0.1,0.2-0.2,0.3c-1.4-0.7-2.6-1.7-4-2.5
		c-0.1,0.4-0.1,0.8-0.2,1.2c-0.1,1.4-0.1,2.8-0.1,4.1c0,0.3,0,0.6-0.1,0.9C12.2,54,12,54,11.9,53.9c-1-0.6-1.9-1.3-2.9-1.9
		c-0.3-0.2-0.6-0.5-0.6-0.9c0-1.8,0.1-3.6,0.2-5.5c0-0.1,0.1-0.2,0.1-0.4c1.4,0.6,2.6,1.5,3.9,2.3c0.1-0.3,0.2-0.5,0.2-0.7
		c0.3-1.2,0.6-2.5,1.2-3.6C14.2,43,14.4,42.7,14.7,42.4z"/>
	<path fill="none" stroke="#000000" stroke-width="0.4857" stroke-miterlimit="10" d="M25,69.3c0.4,0.3,0.7,0.5,1.1,0.7
		c0.9,0.6,1.7,1.1,2.6,1.7c0.3,0.2,0.4,0.3,0.3,0.7c-0.3,1.4-0.6,2.8-1.3,4.1c-0.1,0.1-0.1,0.3-0.2,0.4c-0.3,0.4-0.5,0.5-0.9,0.3
		c-0.5-0.3-1-0.6-1.5-0.9c-0.6-0.4-1.1-0.8-1.6-1.2c-0.3-0.2-0.4-0.4-0.2-0.7c0.8-1.2,1.2-2.5,1.5-3.9C24.8,70.1,24.9,69.7,25,69.3z
		"/>
	<path fill="none" stroke="#000000" stroke-width="0.4857" stroke-miterlimit="10" d="M28,44.5c-0.9,0.5-1.9,0.8-2.7,1.3
		c-0.8,0.5-1.5,1.1-2.3,1.7c-1-0.4-3.5-2.2-4-2.8c0.3-0.3,0.6-0.6,0.9-0.9c1.1-0.9,2.3-1.5,3.6-1.9c0.3-0.1,0.5-0.1,0.8,0
		c1.1,0.8,2.3,1.5,3.4,2.3C27.9,44.4,27.9,44.4,28,44.5z"/>
	<path fill="none" stroke="#000000" stroke-width="0.4857" stroke-miterlimit="10" d="M10.8,39c0.5-0.3,1-0.7,1.5-1
		c0.7-0.4,1.5-0.8,2.3-1.2c0.5-0.2,1-0.2,1.5,0c1.3,0.5,2.4,1.4,3.7,2.3c-2.1,0.6-3.7,1.6-5.1,3.2c-1.3-0.9-2.5-1.7-3.7-2.6
		C10.7,39.5,10.7,39.3,10.8,39C10.8,39,10.8,39,10.8,39z"/>
	<path fill="none" stroke="#000000" stroke-width="0.4857" stroke-miterlimit="10" d="M36.4,49.9c-2,0.7-3.6,1.7-4.9,3.2
		c-0.9-0.6-1.7-1.1-2.5-1.6c-0.4-0.2-0.7-0.5-1-0.7c-0.4-0.3-0.5-0.5-0.1-0.8c0.6-0.5,1.2-1.1,1.8-1.5c0.7-0.4,1.5-0.7,2.2-1
		c0.2-0.1,0.6-0.1,0.8,0C33.9,48.2,35.1,48.9,36.4,49.9z"/>
	<path fill="none" stroke="#000000" stroke-width="0.4857" stroke-miterlimit="10" d="M166.7,62.5c-0.1-4.1,3.3-7,6.8-7.2
		c4.2-0.2,7.5,3.1,7.6,7c0.1,4-3.1,7.5-7.3,7.4C170.1,69.8,166.6,66.6,166.7,62.5z M179.5,62.4c0.1-2.8-2.3-5.5-5.5-5.5
		c-3,0-5.5,2.4-5.5,5.6c0,3.3,2.8,5.5,5.6,5.5C177,68,179.6,65.5,179.5,62.4z"/>
	<path fill="none" stroke="#000000" stroke-width="0.4857" stroke-miterlimit="10" d="M197.7,68c-0.8,0.3-13.9,0.2-15,0
		c0.3-1.1,0.7-2.2,0.9-3.4c0.2-1.1,0.1-2.3,0.2-3.5c0.6,0,1,0.2,1.3,0.8c0.4,1.1,1,2.1,2,2.9c1.1,0.9,2.4,1.4,3.8,1.4
		c1.5,0,3.1,0,4.6,0c0.4,0,0.8,0.1,1,0.4C196.9,67.1,197.3,67.5,197.7,68z"/>
	<path fill="none" stroke="#000000" stroke-width="0.4857" stroke-miterlimit="10" d="M190,62.9c-0.1-0.2-0.1-0.4-0.2-0.6
		c-0.2-0.6-0.5-0.9-1.2-0.9c-0.1,0-0.1,0-0.2,0c-0.9,0.1-1,0.1-1,1.1c0,0.1,0,0.3,0,0.5c-0.2-0.1-0.3-0.2-0.4-0.3
		c-0.3-0.5-0.6-1-0.7-1.5c-0.2-0.7-0.6-1.1-1.3-1.3c-0.5-0.1-1.1-0.3-1.6-0.4c-0.4-0.1-0.9,0-1.4,0c-0.4-0.8-0.9-1.6-1.4-2.5
		c0.4,0,0.7,0,1,0.1c1.9,0.4,3.9,0.8,5.8,1.3c1.4,0.3,2.7,0.8,4.1,1.3c1.2,0.5,1.2,0.8,0.6,1.9C191.7,62.4,191,62.9,190,62.9z"/>
	<path fill="none" stroke="#000000" stroke-width="0.4857" stroke-miterlimit="10" d="M166.1,55.8c0.1-0.8,0.1-1.5,0.2-2.3
		c0.9,0.6,1.7,1.2,2.6,1.8C168,55.7,167.1,55.7,166.1,55.8z"/>
	<path fill="none" stroke="#000000" stroke-width="0.4857" stroke-miterlimit="10" d="M167,51.9c-0.3,0.5-0.9,0.8-1.4,0.6
		c-0.6-0.3-0.3-0.8-0.4-1.2C166,51.2,166.2,51.3,167,51.9z"/>
	<path fill="none" stroke="#000000" stroke-width="0.4857" stroke-miterlimit="10" d="M72.4,50.7c0-0.6-0.1-1.1-0.1-1.6
		c0-0.1,0.1-0.3,0.3-0.4c0.8-0.7,1.6-1.4,2.5-2.1c0.2-0.2,0.5-0.3,0.8-0.4c0.8-0.3,1.5-0.6,2.4-1c0,0.9,0,1.6,0,2.4
		c0,0.1-0.1,0.3-0.3,0.4c-0.7,0.8-1.3,1.6-2,2.3c-0.1,0.2-0.3,0.3-0.5,0.3C74.4,50.8,73.4,50.7,72.4,50.7z"/>
	<path fill="none" stroke="#000000" stroke-width="0.4857" stroke-miterlimit="10" d="M179.5,62.4c0.1,3-2.5,5.5-5.4,5.6
		c-2.8,0-5.6-2.2-5.6-5.5c0-3.2,2.5-5.6,5.5-5.6C177.2,56.9,179.6,59.7,179.5,62.4z M174,66.7c2.4,0.1,4.3-2,4.3-4.2
		c0-2.5-2.1-4.3-4.3-4.3c-2.3,0-4.3,2-4.3,4.3C169.7,64.9,171.6,66.7,174,66.7z"/>
	<path fill="none" stroke="#000000" stroke-width="0.4857" stroke-miterlimit="10" d="M174,66.7c-2.4,0-4.2-1.9-4.2-4.2
		c0-2.3,2-4.3,4.3-4.3c2.2,0,4.3,1.8,4.3,4.3C178.2,64.7,176.4,66.8,174,66.7z"/>
</g>
</svg>
