<?xml version="1.0" encoding="utf-8"?>
<!-- Generator: Adobe Illustrator 17.0.0, SVG Export Plug-In . SVG Version: 6.00 Build 0)  -->
<!DOCTYPE svg PUBLIC "-//W3C//DTD SVG 1.1//EN" "http://www.w3.org/Graphics/SVG/1.1/DTD/svg11.dtd">
<svg version="1.1" id="Layer_1" xmlns="http://www.w3.org/2000/svg" xmlns:xlink="http://www.w3.org/1999/xlink" x="0px" y="0px"
	 width="400px" height="200px" viewBox="0 0 400 200" enable-background="new 0 0 400 200" xml:space="preserve">
<g>
	<g id="XMLID_1_">
		<g>
			<path fill="#FFFFFF" d="M394.9,129.5c0,1.6,0,3.1,0,4.7c0,0.2-0.2,0.3-0.4,0.3c-0.5,0-0.9,0-1.4,0c-8,0-16,0-24,0
				c-0.9,0-1.8,0-2.6,0.2c-0.6,0.2-1.2,0.4-1.8,0.8c-0.2,0.2-0.4,0.3-0.6,0.5c-0.4,0.4-0.6,0.8-0.6,1.4c0,0.1,0,0.2,0,0.3
				c0,1.2,0,2.4,0,3.6c0,0.8,0.4,1.4,1,1.9c0.7,0.6,1.5,0.9,2.4,1c0.6,0.1,1.3,0.2,1.9,0.2c5,0,10,0,15,0c0.6,0,1.2-0.1,1.8-0.1
				c0.9-0.1,1.6-0.4,2.3-1c0.3-0.2,0.5-0.5,0.7-0.8c0.1-0.2,0-0.4-0.2-0.4c-0.5,0-0.9,0-1.4,0c-5.4,0-10.7,0-16.1,0
				c-0.5,0-0.9,0-1.4,0c-0.2,0-0.4-0.2-0.4-0.5c0-1.3,0-2.7,0-4c0-0.2,0.2-0.4,0.4-0.4c0.4,0,0.7,0,1.1,0c7.6,0,15.2,0,22.8,0
				c0.4,0,0.7,0,1.1,0c0.1-0.3,0.3-0.1,0.3,0.2c0,2.6,0,5.1,0,7.6c0,1-0.4,1.8-1,2.5c-0.5,0.6-1.1,1-1.7,1.4c-1.1,0.6-2.2,1-3.4,1.1
				c-0.5,0.1-1,0.1-1.5,0.1c-7.3,0-14.6,0-21.9,0c-1,0-2-0.1-3-0.3c-1.1-0.3-2.2-0.8-3.1-1.6c-1.1-0.9-1.7-2.1-1.7-3.5
				c0-0.1,0-0.3,0-0.4c0-3.1,0-6.3,0-9.4c0-0.2,0-0.5,0-0.7c0.1-1.3,0.6-2.3,1.5-3.2c1.4-1.2,3.1-1.9,4.9-2c0.6-0.1,1.2,0,1.8,0
				c4.5,0,9.1,0,13.6,0c4.6,0,9.2,0,13.8,0c0.5,0,0.9,0,1.4,0C394.7,129,394.9,129.2,394.9,129.5z"/>
			<path fill="#FFFFFF" d="M353.1,148.8c0,0.3,0,0.6,0,0.8s-0.2,0.4-0.5,0.4c-0.9,0-1.8,0-2.6,0c-0.7,0-1.4,0-2.1,0
				c-0.5,0-0.7-0.1-0.7-0.6c0-0.4,0-0.8,0-1.3c0-3.1,0-6.3,0-9.4c0-0.3,0-0.6,0-0.8c0-0.9-0.4-1.6-1.1-2.2c-0.6-0.5-1.3-0.9-2.1-1
				c-0.8-0.2-1.5-0.3-2.3-0.3c-3.1,0-6.2,0-9.3,0c-3.2,0-6.4,0-9.6,0c-0.3,0-0.6,0-1,0.1c-0.1,0-0.2,0.1-0.2,0.2
				c-0.1,0.1-0.1,0.3-0.1,0.4c0,0.4,0,0.8,0,1.3c0,3.9,0,7.8,0.1,11.7c0,0.3,0,0.6,0,0.8c0,1.2,0,1.2-1.1,1.2c-1.3,0-2.6,0-3.9,0
				c-0.2,0-0.4,0-0.7-0.1c-0.1,0-0.2-0.1-0.2-0.2c-0.1-0.3-0.1-0.6-0.1-1c0-6.3,0-12.5,0-18.8c0-0.3,0-0.6,0.1-1
				c0-0.1,0.1-0.1,0.2-0.2c0.1,0,0.2-0.1,0.3-0.1c0.4,0,0.7,0,1.1,0c9.2,0,18.3,0,27.5,0c0.6,0,1.1,0,1.7,0c1.8,0.1,3.4,0.7,4.8,1.9
				c0.4,0.3,0.8,0.7,1.1,1.1c0.4,0.6,0.7,1.3,0.7,2.1c0,0.4,0,0.7,0,1C353.1,139.5,353.1,144.2,353.1,148.8z"/>
			<path fill="#D91E18" d="M362.2,102.6c1.5,0.2,3,0.7,4.4,1.2c0.9,0.3,1.4,0.9,1.7,1.7c0.1,0.2,0.1,0.3,0.2,0.5
				c0.1,0.4,0.3,0.8,0.4,1.2c0.3,0.8,0.8,1.6,1.4,2.2c0,0.1,0.2,0.1,0.3,0c0.1,0,0.2-0.1,0.2-0.2c0-0.3,0-0.7,0-0.8
				c0-0.5,0-0.8,0-1.1c0-0.4,0.3-0.8,0.8-0.9c0.6-0.1,1.3-0.2,1.9-0.2c1,0,1.6,0.6,1.9,1.5c0.1,0.3,0.2,0.6,0.3,0.9
				c0.1,0.2,0.3,0.4,0.5,0.3c1.6-0.2,2.8-0.8,3.6-2.2c0.1-0.2,0.2-0.3,0.3-0.5c0.5-0.2,0.7-0.8,0.8-1.3c0.1-0.3,0-0.6-0.3-0.9
				c-0.7-0.7-1.5-1-2.4-1.3c-0.5-0.1-1.1-0.3-1.6-0.5c-0.6-0.2-1.2-0.4-1.8-0.6c-0.8-0.2-1.5-0.4-2.3-0.7c-0.8-0.3-1.7-0.5-2.5-0.7
				c-0.9-0.2-1.7-0.4-2.6-0.7c-0.6-0.2-1.2-0.3-1.8-0.4c-1.2-0.2-2.4-0.4-3.5-0.7c-0.8-0.2-1.6-0.3-2.5-0.4
				c-0.6-0.1-1.2-0.2-1.8-0.2c-0.1,0-0.2,0.2-0.2,0.3c0.1,0.1,0.1,0.3,0.2,0.4c0.8,1,1.4,2.1,1.9,3.2c0.1,0.2,0.1,0.3,0.2,0.5
				c0.1,0.1,0.2,0.2,0.2,0.3c0.1,0.1,0.3,0.2,0.5,0.2C361.1,102.4,361.7,102.5,362.2,102.6z M365.3,119.7c3.6,0,7.1,0,10.7,0
				c2.1,0,4.2,0,6.3,0c2.5,0,5,0,7.5,0c0.2-0.2,0.6-0.1,0.9-0.3c0.1,0,0.1-0.2,0.1-0.2c-0.1-0.2-0.2-0.4-0.4-0.6
				c-0.6-0.6-1.1-1.2-1.7-1.8c-1.1-1-0.6-0.9-2.3-0.9c-0.3,0-0.6,0-0.8,0c-2.6,0-5.2,0-7.8-0.1c-0.5,0-1-0.1-1.5-0.1
				c-1.8-0.2-3.4-1-5-1.9c-0.2-0.1-0.5-0.3-0.7-0.5c-1.5-1.1-2.6-2.6-3.5-4.2c-0.4-0.8-0.8-1.6-1.1-2.4c-0.1-0.2-0.2-0.3-0.3-0.4
				c-0.5-0.3-1.1-0.5-1.7-0.5c-0.1,0-0.2,0.1-0.2,0.2c-0.1,0.2-0.1,0.4-0.1,0.7c0,1.4,0,2.9,0,4.3s-0.3,2.8-0.8,4.1
				c-0.4,1.3-0.9,2.5-1.3,3.8c0,0.1,0,0.2-0.1,0.3c0,0.2,0.1,0.4,0.3,0.4C363,119.6,364.1,119.7,365.3,119.7z M345.4,94.4
				c-0.32-0.03-0.64-0.04-0.95-0.04V91.9c0.28,0,0.54,0,0.85,0c1.2,0,2.4,0.2,3.6,0.5c0.7,0.2,1.3,0.4,2,0.6
				c0.5,0.2,0.9,0.4,1.4,0.7c0.9,0.5,1.8,0.8,2.9,1c1.4,0.3,2.8,0.5,4.3,0.7c1.3,0.2,2.7,0.4,4,0.6c0.4,0.1,0.8,0.1,1.1,0.2
				c0.8,0.3,1.6,0.4,2.4,0.6c1.5,0.3,3,0.6,4.4,1.1c0.4,0.2,0.8,0.2,1.2,0.3c1.1,0.3,2.2,0.6,3.3,1c0.7,0.3,1.5,0.5,2.3,0.7
				c1.2,0.3,2.2,0.9,3.4,1.3c0.7,0.3,1.1,0.8,1.6,1.3c0.2,0.3,0.4,0.6,0.4,1c0.1,1.4,0.1,2.8-0.4,4.1c-0.1,0.3-0.3,0.7-0.5,1
				c-0.1,0.1-0.2,0.2-0.3,0.3c-0.7,1.2-1.8,1.9-3,2.4c-0.6,0.3-1.2,0.5-1.8,0.7c-0.2,0.1-0.3,0.2-0.5,0.3c-0.1,0.1-0.2,0.2-0.1,0.4
				c0.1,0.3,0.2,0.5,0.5,0.6s0.7,0.2,1.1,0.2c1.9,0,3.9,0,5.8,0c1.3,0,2.6-0.1,3.9-0.2c0.4,0,0.8,0.1,1.1,0.4
				c0.1,0.1,0.3,0.2,0.4,0.4c0.4,0.6,1,1.1,1.5,1.6c0.8,0.8,1.6,1.7,2.3,2.6c0.3,0.3,0.7,0.9,1.2,1.5c0.3,0.4,0.4,0.9,0.3,1.5
				c-0.1,0.4-0.3,0.7-0.7,0.8c-0.1,0-0.3,0-0.4,0.1c-1.2,0-2.3,0.1-3.5,0.1c-7.6,0-15.2,0-22.8,0c-2.7,0-5.5-0.1-8.2-0.1
				c-0.4,0-0.8,0-1.2-0.2c-0.5-0.2-0.8-0.8-0.6-1.3c0.1-0.4,0.3-0.7,0.5-1c0.5-0.6,0.7-1.3,0.9-2v-0.1c-0.1,0-0.2,0-0.2,0
				c-0.2,0.2-0.4,0.4-0.6,0.6c-1,1.3-2.1,2.5-3.4,3.5c-0.7,0.6-1.5,1.1-2.3,1.6c-0.9,0.5-1.9,1-2.9,1.4c-0.8,0.3-1.6,0.5-2.4,0.5
				c-1.1,0-2.2,0-3.3,0v-2.5c2.3,0,5.3-0.6,7.2-1.8c1.3-0.8,2.4-1.7,3.5-2.8c0.5-0.5,1-1.1,1.4-1.7c0.7-1.1,1.3-2.2,1.7-3.5
				c0.1-0.3,0.2-0.6,0.3-0.9c0.6-1.7,0.7-3.4,0.5-5.2c-0.2-1.4-0.6-2.7-1.1-4c-0.2-0.5-0.4-1-0.8-1.5c-0.2-0.2-0.3-0.5-0.4-0.7
				c-1-1.5-2.2-2.8-3.8-3.8c-0.2-0.1-0.4-0.3-0.6-0.4c-0.4-0.2-0.7-0.4-1.1-0.6c-0.3-0.2-0.7-0.3-1-0.4
				C348.4,94.7,346.9,94.5,345.4,94.4z"/>
			<path fill="#D91E18" d="M344.5,116.7c0.3,0,0.6,0,1,0c1.1-0.1,2.1-0.3,3-0.9c0.8-0.5,1.6-1.1,2.3-1.8c1.2-1.5,1.9-3.2,2.1-5.1
				c0.1-1.2-0.1-2.4-0.6-3.5c-1-2.6-2.9-4.3-5.5-5c-1.6-0.5-3.2-0.4-4.8,0.1c-0.1,0-0.2,0-0.3,0.1c-1.1,0.6-2.2,1.1-3.1,2
				c-1.3,1.3-2,2.9-2.3,4.7c-0.2,0.9-0.2,1.8,0,2.6c0.2,0.8,0.5,1.7,0.9,2.5c1.1,2.1,2.8,3.5,5.1,4.1
				C343,116.7,343.8,116.7,344.5,116.7z M334.3,105.6c0.5-1.7,1.4-3.2,2.6-4.5c0.9-0.9,1.9-1.6,3-2.2c0.9-0.5,1.8-0.8,2.8-0.9
				c1.6-0.2,3.1-0.2,4.7,0.1c2.5,0.5,4.5,2,6.1,4.3c1.1,1.7,1.8,3.5,1.8,5.6c0,0.7,0,1.5-0.1,2.2c-0.3,2.5-2,5.2-3.9,6.7
				c-1,0.8-2.1,1.3-3.3,1.8c-1,0.4-2,0.6-3.1,0.6c-0.1,0-0.3,0-0.4,0c-0.3,0-0.6,0-0.8,0c-0.7,0-1.4-0.1-2-0.4
				c-0.2-0.1-0.4-0.2-0.6-0.2c-1.7-0.6-3.1-1.6-4.4-2.9c-0.9-0.9-1.5-2.1-2.1-3.3c-0.2-0.4-0.4-1-0.4-1.4c-0.2-1.2-0.5-2.5-0.2-3.7
				C334.1,106.8,334.1,106.2,334.3,105.6z"/>
			<path fill="#FFFFFF" d="M311.3,139.6c0,3.1,0,6.1,0,9.2c0,0.3,0,0.6-0.1,1c0,0.1-0.1,0.2-0.3,0.3c-0.1,0.1-0.3,0.1-0.4,0.1
				c-1.5,0-3,0-4.6,0c-0.1,0-0.2,0-0.3,0c-0.2,0-0.4-0.2-0.4-0.4c0-0.3,0-0.6,0-0.8c0-6.2,0-12.5,0-18.7c0-0.2,0-0.5,0-0.7
				c0-0.3,0.2-0.5,0.5-0.6c0.1,0,0.2,0,0.3,0c1.5,0,3,0,4.4,0c0.1,0,0.3,0,0.4,0.1c0.2,0,0.3,0.1,0.3,0.3c0.2,0.1,0.2,0.5,0.2,0.9
				C311.3,133.4,311.3,136.5,311.3,139.6z"/>
			<path fill="#FFFFFF" d="M301.2,144.9c0,1.6,0,3.2,0,4.7c0,0.3-0.2,0.4-0.4,0.5c-0.4,0-0.7,0-1.1,0c-9.3,0-18.6,0-27.9,0
				c-1.1,0-2.2-0.1-3.3-0.4c-1.2-0.3-2.2-0.9-3.1-1.7c-0.9-0.9-1.5-1.9-1.5-3.2c0-0.3,0-0.6,0-1c0-3,0-5.9,0-8.9
				c0-0.5,0-0.9,0.1-1.4c0.1-1,0.6-1.8,1.2-2.4c0.8-0.8,1.7-1.3,2.7-1.7c0.9-0.3,1.9-0.6,2.8-0.6c0.6,0,1.1,0,1.7,0
				c4.4,0,8.8,0,13.2,0c4.7,0,9.4,0,14.2,0c0.4,0,0.7,0,1.1,0c0,0.1,0.2,0.3,0.2,0.6c0,1.5,0,3.1,0,4.6c0,0.3-0.2,0.4-0.4,0.4
				c-0.5,0-0.9,0-1.4,0c-8,0-15.9,0-23.9,0c-0.9,0-1.8,0-2.6,0.2c-0.7,0.2-1.4,0.4-2,0.9c-0.3,0.2-0.5,0.4-0.7,0.7
				c-0.3,0.3-0.4,0.7-0.4,1.2c0,1.3,0,2.7,0,4c0,0.5,0.2,0.9,0.5,1.3c0.3,0.3,0.6,0.6,1,0.8c0.6,0.4,1.3,0.7,2.1,0.7
				c0.7,0.1,1.5,0.1,2.2,0.1c5,0,10.1,0,15.1,0c3.1,0,6.1,0,9.2,0c0.4,0,0.7,0,1.1,0.1c0.1,0,0.1,0.1,0.2,0.2
				C301.1,144.7,301.2,144.8,301.2,144.9z"/>
			<path fill="#D91E18" d="M276.3,97.9c1.6,0.1,3.1,0,4.7,0.2c1.7,0.1,3.3,0.1,5,0.4c0.2,0,0.4,0,0.6,0c0.9,0,1.7,0.2,2.6,0.3
				c1,0.2,2.1,0.3,3.2,0.4c1.9,0.2,3.9,0.4,5.8,0.6c0.3,0,0.6,0.1,0.9,0.1c0.08,0,0.15,0.01,0.22,0.02c0.23,0.03,0.46,0.1,0.68,0.18
				c0.3,0.2,0.6,0.4,1,0.6c0.4,0.3,0.5,0.8,0.3,1.3c-0.1,0.4-0.4,0.6-0.8,0.7c-0.2,0.1-0.5,0.1-0.7,0.1c-0.7,0-1.4,0-2.1-0.1
				c-1.2-0.1-2.5-0.2-3.7-0.4c-0.5-0.1-1.1-0.2-1.6-0.3c-2.3-0.3-4.7-0.7-7-0.9c-0.9-0.1-1.9-0.1-2.8-0.3c-0.9-0.2-1.8-0.2-2.8-0.3
				c-0.6-0.1-1.3-0.1-1.9-0.1c-0.2,0-0.3,0.2-0.3,0.4c0,0.9,0.2,1.7,0.4,2.5c0.3,1.2,0.5,2.3,0.8,3.5c0,0.2,0.1,0.4,0.2,0.7
				c0.1,0.1,0.2,0.2,0.3,0.2c0.4,0,0.7,0.1,1.1,0.1c2.5,0,5,0,7.5,0c1,0,2,0.2,3,0.2c0.2,0,0.4,0.1,0.5,0.1c0.6,0.2,0.9,0.9,0.6,1.5
				c-0.1,0.1-0.2,0.2-0.3,0.3c-0.3,0.2-0.6,0.3-0.9,0.3c-1.3,0.1-2.6,0.2-3.9,0.3c0,0,0,0,0,0.1c1.2,0.1,2.3,0.1,3.5,0.2
				c0.3,0,0.6,0.1,0.9,0.3c0.4,0.2,0.5,0.9,0.3,1.2c-0.1,0.1-0.3,0.3-0.4,0.3c-0.3,0.1-0.7,0.2-1.1,0.3c-0.3,0-0.6,0-1,0
				c-2.6,0.1-5.2,0.1-7.8,0.2c-0.3,0-0.5,0-0.8,0.1c-0.2,0-0.4,0.3-0.4,0.5c0.1,0.5,0.2,1,0.3,1.5c0.2,1.3,0.3,1.3,1.5,1.3
				c2.5,0,5,0,7.5,0c0.7,0,1.4,0,2.1,0.1c0.5,0.1,0.9,0,1.4,0c1.5,0,3,0,4.5,0c0.7,0,1.4,0.1,2.1,0.2c0.4,0.1,0.7,0.5,0.7,0.9
				c0,0.3-0.1,0.5-0.4,0.7s-0.6,0.3-0.9,0.3c-0.8,0.1-1.6,0.2-2.3,0.2c-0.3,0-0.6,0-0.9,0c-0.4,0-0.9,0-1.3,0c-4.6,0-9.3,0-13.9,0
				c-0.4,0-0.8,0-1.3,0s-0.9-0.4-0.9-0.9c-0.1-1.2-0.4-2.3-0.7-3.4c-0.1-0.4-0.1-0.9-0.2-1.4c0-0.4,0-0.8,0-1.3
				c-0.1-0.7,0.1-1.2,0.8-1.4l0.1-0.1c-0.1,0-0.3-0.1-0.4-0.1c-0.8-0.1-1.1-0.6-1.3-1.2c-0.6-1.9-1-3.9-1.4-5.9
				c-0.1-0.5-0.2-0.9-0.3-1.3c-0.2-0.9-0.4-1.7-0.5-2.6c0-0.1,0-0.3,0-0.4c0-0.6,0.3-0.9,0.9-1C275.6,97.9,275.9,97.9,276.3,97.9z"
				/>
			<path fill="#D91E18" d="M329.7,95.2c1.2,0,2.3-0.2,3.4-0.4c0.3,0,0.6-0.1,1-0.2c0.1,0,0.2-0.2,0.4-0.3c-0.4-0.4-0.8-0.7-1.3-1
				c-0.6-0.3-1.1-0.7-1.6-1.1c-0.3-0.3-0.7-0.5-1-0.7c-0.2-0.1-0.4-0.2-0.6-0.3c-0.2-0.1-0.4,0-0.4,0.2c-0.1,1.1-0.2,2.2-0.3,3.3
				v0.1C329.3,95,329.5,95.2,329.7,95.2z M327.7,88.1c0,0.4,0.5,0.8,1,0.8c0.1,0,0.3,0,0.5-0.1c0.1,0,0.4,0,0.6,0
				c0.1,0,0.3-0.1,0.4-0.1c0.2-0.1,0.4-0.4,0.6-0.6c0.1-0.2,0.1-0.5-0.1-0.6c-0.7-0.5-1.5-0.9-2.4-1.1c-0.1,0-0.3,0-0.4,0
				c-0.2,0-0.4,0.2-0.3,0.3C327.6,87.2,327.6,87.6,327.7,88.1z M273.4,95.4c-1.2-0.2-2.4-0.4-3.6-0.5c-1-0.1-2-0.4-2.8-1
				c-0.5-0.3-1-0.6-1.6-0.8c-0.6-0.2-1-0.6-1.4-1.1c-0.1-0.1-0.1-0.2-0.1-0.3c0.1-0.1,0.2-0.2,0.3-0.3c0.2,0,0.4,0,0.6,0
				c1.4,0.2,2.8,0.4,4.1,0.5c0.5,0.1,1,0.1,1.5,0.2c1.8,0.4,3.7,0.5,5.5,0.8c1.7,0.3,3.5,0.4,5.2,0.7c0.6,0.1,1.3,0.2,1.9,0.3
				c1.3,0.2,2.6,0.3,3.9,0.5c1.7,0.2,3.5,0.4,5.2,0.7c0.8,0.2,1.6,0.2,2.3,0.3c2.1,0.3,4.1,0.5,6.2,0.7c1.6,0.2,3.1,0.3,4.7,0.3
				c3,0.1,5.9,0.1,8.9,0.1c0.2,0,0.4,0,0.5,0s0.2-0.1,0.2-0.2v-0.1c0,0,0-0.1-0.1-0.1c-1-0.5-2-1-3-1.5c-1.5-0.7-3.1-1.4-4.6-2.2
				c-0.5-0.2-1-0.4-1.5-0.7c-0.5-0.2-0.9-0.4-1.4-0.7c-0.9-0.4-1.9-0.8-2.9-0.7c-0.8,0-1.6,0-2.4,0.1c-0.5,0.1-1.1,0.1-1.7,0.1
				c-0.34,0.04-0.69,0.07-1.04,0.09l-0.23-2.53c0.06-0.02,0.12-0.04,0.17-0.06c0.5-0.1,1.1-0.1,1.6-0.2c1-0.1,2-0.2,3-0.4
				c1.2-0.3,2.3,0,3.4,0.5c0.6,0.3,1.3,0.6,1.9,0.8c0.5,0.3,1.1,0.5,1.6,0.8c1.6,0.7,3.2,1.4,4.8,2.2c1.4,0.7,2.8,1.2,4.1,2
				c0.1,0.1,0.2,0.1,0.3,0.1c1.1,0.5,2.2,1,3.2,1.6c0.5,0.3,0.9,0.4,1.5,0.4c1.5,0,3-0.1,4.6-0.2c0.2,0,0.4-0.2,0.5-0.4
				c0-0.1,0-0.2,0.1-0.3c0.1-1.3,0.2-2.7,0.2-4c0-0.2-0.1-0.5-0.3-0.6c-0.5-0.5-0.7-1.1-0.7-1.8c0-0.8-0.1-1.7-0.2-2.5
				c0-0.2,0-0.4-0.1-0.5c0-0.8,0.4-1.1,1.1-1.1h0.1c0.5,0.1,1,0.2,1.5,0.2c1.4,0.2,2.5,0.9,3.7,1.6c0.5,0.3,0.8,0.8,0.8,1.4
				s0,1.1-0.3,1.6c-0.2,0.3-0.1,0.5,0.2,0.7c1.2,0.8,2.4,1.7,3.6,2.5c0.1,0.1,0.2,0.1,0.2,0.2c0.5,0.4,1.1,0.5,1.7,0.3
				c0.4-0.1,0.7-0.2,1.1-0.3c1.5-0.5,3-0.7,4.5-0.7c0.19,0,0.37,0,0.55,0v2.46c-0.85,0-1.67,0.09-2.55,0.24
				c-1.7,0.3-3.2,0.9-4.6,1.8c-0.6,0.4-1.2,0.8-1.8,1.3c-0.9,0.7-1.8,1.5-2.4,2.5c-0.5,0.8-1,1.6-1.4,2.6c-0.2,0.6-0.5,1.2-0.8,1.8
				c-0.1,0.3-0.3,0.7-0.3,1.1c-0.1,1-0.1,1.9-0.2,2.5h-0.2h-2.3c0-1,0-2.1,0-3.1c0-0.4,0.1-0.7,0.2-1.1c0.4-0.9,0.7-1.8,1.2-2.6
				c0.1-0.1,0.2-0.3,0.2-0.5c0.3-0.8,0.7-1.5,1.3-2.1c0.1-0.1,0.1-0.2,0.2-0.4c0.1-0.1,0-0.3-0.1-0.3c-0.6-0.1-1.1-0.1-1.6,0
				c-0.1,0-0.3,0.1-0.4,0.2s-0.3,0.3-0.4,0.4c-0.5,0.4-1,0.4-1.6,0.1c-0.1-0.1-0.1-0.1-0.2-0.2c-0.2-0.2-0.4-0.2-0.6-0.2
				c-1.1,0.1-2.1,0.2-3.2,0.3c-2,0.1-4.1,0.2-6.1,0.3c-3.6,0.1-7.1,0.1-10.7,0.1c-1.6,0-3.2,0-4.9-0.1c-0.58,0-1.16-0.07-1.74-0.15
				c-0.12-0.02-0.24-0.03-0.36-0.05c-0.5-0.1-0.9-0.1-1.4-0.2c-0.4,0-0.7-0.1-1.1-0.1c-0.7-0.1-1.5-0.2-2.2-0.3
				c-1.2-0.3-2.5-0.4-3.7-0.5c-1.1-0.1-2.3-0.2-3.4-0.4c-1.2-0.2-2.5-0.3-3.7-0.5s-2.5-0.3-3.7-0.5c-1.7-0.2-3.4-0.4-5.1-0.6
				C274.3,95.6,273.9,95.5,273.4,95.4z"/>
			<path fill="#D91E18" d="M280.8,123.3c-4.6,0.1-9.2,0.1-13.8,0.1c-0.4,0-0.8,0-1.3,0c-0.2,0-0.4,0-0.5-0.1
				c-0.6-0.38-1.14-0.81-1.59-1.34c-0.15-0.17-0.29-0.36-0.41-0.56c-0.1-0.1-0.1-0.3-0.2-0.4c0-0.1,0-0.2,0-0.3s0.1-0.3,0.2-0.3
				s0.3-0.1,0.4-0.1c0.4,0,0.8,0,1.3,0c7.3,0,14.6,0,22,0c2.9,0,5.9,0,8.8,0c0.29,0,0.6,0,0.9,0c0.83,0,1.69,0,2.5,0
				c2.8,0,5.6,0,8.3-0.1c1.6,0,3.1-0.1,4.7-0.5c0.2-0.1,0.5-0.1,0.7-0.1c2.1-0.2,4.1-0.5,6.2-0.8c3.1-0.5,6.2-1,9.3-1.5
				c0.3-0.1,0.6-0.1,0.9-0.2c0.2-0.1,0.3-0.3,0.2-0.4c-0.1-0.3-0.2-0.6-0.4-0.9c-0.6-0.9-0.9-1.9-1.1-3c-0.1-0.5-0.2-1-0.2-1.5
				c0-1,0-2.1,0-3.1h0.2h2.3c0.1,1.2,0.1,2.1,0.2,2.9c0,0.5,0.1,0.9,0.2,1.4c0.3,0.9,0.7,1.8,1.1,2.7c0.1,0.3,0.3,0.6,0.5,0.8
				c0.7,1.1,1.6,2.1,2.5,3.1c0.6,0.7,1.3,1.3,2.2,1.7c0.2,0.1,0.4,0.2,0.6,0.3c0.8,0.5,1.6,0.8,2.4,1c0.6,0.2,1.1,0.4,1.7,0.5
				c0.4,0.1,0.7,0.1,1.1,0.2c0.6-0.1,0.9-0.1,1.3-0.1v2.5c-0.8,0-1.7,0-2.5,0c-1.1,0-2.2-0.3-3.2-0.8c-0.2-0.1-0.5-0.3-0.8-0.4
				c-0.9-0.3-1.7-0.9-2.5-1.4c-1-0.7-1.8-1.5-2.8-2.3c-0.1-0.1-0.3-0.3-0.4-0.4c-0.2-0.2-0.5-0.3-0.8-0.2c-1.3,0.2-2.6,0.4-4,0.6
				c-0.6,0.1-1.3,0.2-1.9,0.3c-2,0.3-4,0.6-6,0.9c-0.6,0.1-1.1,0.2-1.6,0.3c-0.2,0-0.5,0.1-0.7,0.1c-2.3,0.3-4.5,0.6-6.8,0.8
				c-1.4,0.1-2.8,0.2-4.1,0.3c-1.7,0.2-3.4,0.1-5.1,0.1c-0.5,0-1,0-1.5,0.1s-1,0.1-1.5,0.1C292.2,123.3,286.5,123.3,280.8,123.3z"/>
			<path fill="#FFFFFF" d="M260.5,122.7c-0.1,0-0.3,0-0.4,0c-0.9,0-1.8,0-2.6,0c-1.3,0-2.7,0-4,0c-0.2,0-0.4,0-0.5,0
				c-0.5-0.3-0.8-0.7-1.1-1.1c-2.6-3.1-5.3-6.2-7.9-9.3c-0.3-0.4-0.6-0.8-1.1-1.1c-0.3,0-0.7,0-1,0c-6.6,0-13.2,0-19.9,0
				c-0.4,0-0.7,0-1.1,0c-0.2,0-0.4,0.2-0.4,0.3c0,0.4-0.1,0.7-0.1,1.1c0,2.7,0,5.5,0,8.2c0,2.1,0.2,1.9-1.9,1.9c-1.6,0-3.2,0-4.9,0
				c-0.2,0-0.4,0-0.6,0s-0.4-0.2-0.4-0.3s-0.1-0.3-0.1-0.4c0-0.3,0-0.6,0-1c0-0.06,0-0.13,0-0.2c0-0.36,0-0.76,0-1.1
				c0-4.77,0-9.43,0-14.2c0-0.03,0-0.07,0-0.1c0-3.6,0-7.2,0-10.8c0-0.5,0-0.9,0-1.4c0-0.08,0.06-0.21,0.13-0.27
				c0.02-0.02,0.05-0.03,0.07-0.03h0.1c0.2,0,0.4,0,0.6,0c1.9,0,3.9,0,5.8,0c0.2,0,0.4,0,0.6,0.1c0.1,0,0.3,0.2,0.3,0.3
				c0.1,0.3,0.1,0.7,0.1,1c0,2,0,4,0,6c0,1.1,0,2.1,0,3.2c0,0.2,0,0.5,0.1,0.7c0,0.1,0.2,0.2,0.3,0.3c0.1,0.1,0.3,0.1,0.4,0.1
				c0.3,0,0.7,0,1,0c6.5,0,13,0,19.4,0c1.7,0,1.4,0.1,2.5-1.1c2.6-3,5.1-6,7.6-9c0.2-0.3,0.5-0.6,0.7-0.8c0.3-0.4,0.7-0.6,1.2-0.6
				c2.3,0,4.5,0,6.8,0c0.1,0,0.1,0,0.2,0c0.09,0,0.1,0,0.17,0c0.01,0,0.02,0,0.03,0c0.1,0,0.1,0.2,0.1,0.2c0,0.1-0.1,0.3-0.2,0.4
				c-0.6,0.8-1.2,1.5-1.9,2.2c-3,3.6-6.1,7.2-9.1,10.9c-0.3,0.3-0.7,0.6-0.8,1.1c0.1,0.4,0.5,0.7,0.7,1c3.4,4.1,6.8,8.2,10.1,12.3
				c0.4,0.4,0.7,0.9,1,1.3c0.13-0.08,0.2-0.12,0.24-0.12c0.06,0,0.06,0.06,0.06,0.12C260.8,122.6,260.7,122.7,260.5,122.7z"/>
			<path fill="#FFFFFF" d="M222.6,149.1c2.7-3.6,5.4-7.3,8.1-10.9c0.8-1,0.6-1,1.9-1c3,0,5.9,0,8.9,0c0.3,0,0.6,0,1-0.1
				c0,0,0.1-0.1,0.1-0.2v-0.1c-0.5-0.7-1-1.3-1.6-1.9c-0.1-0.1-0.3-0.2-0.5-0.2c-0.4,0-0.7,0-1.1,0c-1.7,0-3.3,0-5,0
				c-0.2,0-0.5,0-0.7,0c-0.1,0-0.3-0.2-0.2-0.3c0-0.1,0.1-0.2,0.1-0.3c1.2-1.6,2.4-3.1,3.5-4.6c0.2-0.2,0.4-0.4,0.7-0.4
				c0.8,0,4.8,0,5.6,0.1c0.4,0.3,0.6,0.7,0.9,1.1c3.8,5.2,7.7,10.4,11.5,15.5c0.9,1.3,1.9,2.5,2.8,3.8c0.3-0.2,0.4,0,0.5,0.2
				c0,0.1-0.1,0.2-0.1,0.2c-0.1,0.1-0.2,0.1-0.3,0.1c-1.6,0-3.2,0-4.9,0c-0.4,0-0.7-0.2-0.9-0.5c-1.2-1.5-2.4-3-3.6-4.4
				c-0.9-1-1.7-2.1-2.6-3.2c-0.3,0-0.6-0.1-0.8-0.1c-3.5,0-6.9,0-10.4,0c-0.2,0-0.4,0-0.6,0c-0.1,0-0.3,0.1-0.4,0.2
				c-0.3,0.3-0.5,0.5-0.7,0.8c-1.6,2-3.3,4-4.9,6c-0.2,0.3-0.5,0.6-0.7,0.9c-0.1,0.1-0.3,0.2-0.5,0.2c-1.8,0-3.5,0-5.3,0
				c-0.1,0-0.2-0.2-0.2-0.3s0.1-0.2,0.1-0.2C222.4,149.4,222.5,149.2,222.6,149.1z"/>
			<path fill="#D91E18" d="M233.1,74.6c0.4,1.3,0.7,2.6,1.1,3.9c0.1,0,0.1,0.3,0.2,0.5c0,0.2-0.1,0.3-0.2,0.3
				c-0.3,0.1-0.6,0.2-0.9,0.3c-3.1,0.8-6.2,1.6-9.3,2.4c-2.4,0.6-4.7,1.2-7.1,1.9c-0.1,0-0.3,0.1-0.4,0.1c-0.7,0.2-0.9,0-1-0.6
				s-0.2-1.3-0.3-1.9c-0.1-0.7-0.2-1.5-0.3-2.3c0-0.2,0.1-0.4,0.3-0.4c0.2-0.1,0.4-0.2,0.7-0.2c3.4-0.9,6.9-1.9,10.3-2.8
				c2-0.5,4-1.1,6-1.6c0.2-0.1,0.4-0.1,0.5-0.1s0.2,0.1,0.3,0.2C233.1,74.4,233.1,74.5,233.1,74.6z"/>
			<path fill="#D91E18" d="M237.5,61.4c0.2,0,0.4-0.1,0.7-0.1c2.6-0.4,5.2-0.8,7.8-1.1c0.1,0,0.1,0,0.1,0c1.6-0.4,3.3-0.2,5-0.3
				c1.1,0.2,2.1,0.4,3,1c0.8,0.5,1.3,1.2,1.6,2.1c0.3,0.9,0.4,1.9,0.5,2.9c0,1.3,0,2.5-0.1,3.8c-0.1,1.4-0.2,2.9-0.4,4.3
				c0,0.2,0,0.4,0,0.6c-0.1,0.5-0.4,0.8-0.9,0.9c-0.2,0-0.5,0-0.7,0c-0.4,0-0.8,0-1.1,0c-0.5,0.1-0.7,0.1-0.7,0.8c0,0.5,0,0.9,0,1.4
				c0,0.6,0.1,1.2,0.1,1.8c0,1.5,0.6,2.7,1.4,3.8c0.2,0.2,0.4,0.4,0.6,0.6c1.1,1.1,2.3,2,3.7,2.7c0.6,0.3,1.2,0.5,1.8,0.6
				c1.9,0.5,3.8,0.8,5.8,0.9c2.1,0.1,4.2,0.2,6.2,0.2c1.7,0.1,3.4,0.1,5.2,0.1c2.4,0,4.8,0,7.2,0c2,0,4-0.1,6-0.1
				c1.7,0,3.4-0.2,5.1-0.2c0.22,0,0.45,0,0.63-0.04l0.23,2.53c-1.58,0.15-3.2,0.25-4.76,0.41c-1.1,0.1-2.1,0.1-3.2,0.1
				c-0.5,0-0.9,0-1.4,0.1c-0.4,0.1-0.7,0.1-1.1,0.1c-4,0-8.1,0-12.1,0c-0.3,0-0.7,0-1,0c-0.7-0.2-1.4-0.2-2.1-0.2
				c-1.95-0.1-3.91-0.2-5.77-0.29c-0.04-0.01-0.09-0.01-0.13-0.01c-0.2,0-0.5,0-0.7-0.1c-1.1-0.1-2.1-0.2-3.2-0.3
				c-0.08,0-0.15-0.01-0.23-0.02c-0.23-0.03-0.47-0.1-0.77-0.18c-0.6-0.1-1.2-0.3-1.7-0.5c-0.4-0.2-0.9-0.4-1.3-0.6
				c-1.5-0.6-2.7-1.5-3.9-2.6c-0.7-0.6-1.3-1.3-1.8-2.1c-0.3-0.3-0.4-0.7-0.6-1.1c-0.2-0.4-0.4-0.8-0.6-1.2
				c-0.1-0.1-0.1-0.2-0.2-0.4c-0.3-1.2-0.6-2.4-0.6-3.7c0-1.2,0-2.4,0.2-3.6c0-0.2,0.1-0.4,0.1-0.6c0.1-0.7,0.6-1.1,1.3-1.2
				c0.6-0.1,1.1-0.1,1.7-0.1c0.1,0,0.4-0.2,0.4-0.3c0-0.1,0.1-0.3,0.1-0.4c0.1-0.6,0.1-1.2,0.1-1.8c0-1.6,0-3.2,0-4.9
				c0-0.4,0-0.8-0.1-1.2c-0.1-0.5-0.4-0.9-1-1c-0.5-0.1-1.1-0.2-1.6-0.2c-1.3,0-2.5,0-3.7,0.1c-1,0.1-1.9,0.1-2.9,0.3
				c-0.8,0.2-1.6,0.3-2.3,0.4c-1.4,0.2-2.8,0.4-4.3,0.7c-0.7,0.1-1.4,0.3-2,0.5c-0.8,0.3-1.7,0.5-2.5,0.8c-0.6,0.2-1.1,0.4-1.6,0.9
				c-0.3,0.3-0.5,0.6-0.6,0.9s-0.1,0.6,0.2,0.8c0.4,0.4,0.8,0.8,1.3,1c0.2,0.1,0.5,0.3,0.7,0.4s0.1,0.5,0,0.6s-0.2,0.2-0.3,0.3
				c-0.2,0.1-0.5,0.2-0.7,0.4c-1,0.7-1.1,0.7-2.2-0.2c-0.4-0.3-0.8-0.8-1.1-1.2c-0.6-0.9-0.7-1.8-0.3-2.8c0.2-0.7,0.5-1.3,1-1.8
				s1-1,1.6-1.3c1.3-0.5,2.6-1.1,4.1-1.4C235.6,61.9,236.6,61.6,237.5,61.4z"/>
			<path fill="#D91E18" d="M224.5,113c0.1,0.6,0.2,1.2,0.3,1.8c0.2,1.1,0.4,2.3,0.9,3.4c0.2,0.4,0.3,0.7,0.6,1.1
				c0.3,0.4,0.8,0.7,1.3,0.7c0.4,0,0.7,0,1.1,0c5.2,0.3,10.4,0.1,15.7,0.2c0.5,0,0.9,0,1.4,0c0.3,0,0.6,0.1,0.8,0.3
				c0.7,0.7,1.4,1.5,2,2.3c0.1,0.2,0,0.5-0.3,0.5c-0.4,0-0.8,0.1-1.3,0.1c-2.9,0-5.8,0-8.7,0c-0.7,0-1.4,0-2.1,0
				c-2.4,0-4.9-0.1-7.3-0.1c-0.5,0-1-0.1-1.5-0.3c-0.6-0.2-1.1-0.4-1.7-0.7c-0.4-0.2-0.7-0.4-1-0.8c-0.6-0.8-1-1.8-1.2-2.8
				c-0.2-0.8-0.3-1.6-0.4-2.5c-0.1-0.8-0.3-1.6-0.4-2.5c0-0.2,0-0.5,0-0.7c0-0.1,0.1-0.3,0.3-0.3c0.4-0.2,0.8-0.2,1.2,0
				C224.3,112.7,224.4,112.9,224.5,113z"/>
			<path fill="#D91E18" d="M238.4,92.5c-4.9,0-9.7,0-14.6,0c-0.3,0-0.7,0-1,0c-0.2,0-0.5-0.1-0.7-0.2c-0.5-0.3-1.1-0.5-1.6-0.9
				c-0.8-0.5-1.5-1.1-2.4-1.3L218,90c0-0.1-0.1-0.2-0.1-0.3c0-0.1,0.1-0.2,0.2-0.2c0.3,0,0.6-0.1,1-0.1c2.8,0,5.7,0,8.5,0
				c2.9,0,5.7,0,8.6,0c0.5,0,1,0,1.5,0.3c0.3,0.1,0.6,0.1,0.9,0.1c1.7,0,3.3,0,5,0c2,0,4.1,0.1,6.1,0.1c0.2,0,0.4,0,0.6,0
				c0.1,0.1,0.3,0.3,0.4,0.4c0,0.2-0.1,0.4-0.2,0.5c-0.2,0.2-0.4,0.4-0.6,0.5c-0.5,0.4-1.1,0.7-1.6,1.1c-0.3,0.3-0.7,0.4-1.2,0.4
				c-0.2,0-0.5,0-0.7,0c-1.5-0.2-3-0.1-4.4-0.1c-0.8,0-1.7,0-2.5-0.2C239.1,92.4,238.8,92.5,238.4,92.5z"/>
			<path fill="#D91E18" d="M219.4,50.4c-4.4,3.4-8.8,6.9-13.3,10.3c-0.3,0.2-0.5,0.4-0.8,0.5c-0.1,0-0.2,0-0.3,0s-0.2-0.1-0.2-0.2
				c-1-1.4-2.1-2.7-3.1-4.1c0,0,0-0.1-0.1-0.1c-0.1-0.1-0.1-0.3,0-0.4c0.2-0.2,0.5-0.4,0.7-0.6c4.4-3.4,8.7-6.7,13.1-10
				c0.3-0.2,0.5-0.4,0.8-0.6c0.1-0.1,0.3-0.1,0.4-0.1c0.1,0.1,0.2,0.1,0.2,0.2c1.1,1.4,2.1,2.7,3.1,4.2c0.1,0.2,0.1,0.5-0.1,0.6
				C219.7,50.2,219.5,50.3,219.4,50.4z"/>
			<path fill="#FFFFFF" d="M217.1,149.3c0.1,0.1,0.2,0.3,0.3,0.4c0.1,0.1-0.1,0.3-0.2,0.3h-0.1c-0.8,0-4.9,0-5.8-0.1
				c-2.5-2.7-5-5.4-7.4-8.1c-0.5,0-0.9,0-1.3,0c-4.9,0-9.7,0-14.6,0c-0.3,0-0.7,0-1,0c-0.4,0-0.6,0.2-0.6,0.6c0,1.2,0,2.4,0,3.6
				c0,0.8,0,1.6,0,2.4c0,0.2,0,0.4-0.1,0.5c0,0.1-0.2,0.2-0.3,0.3c-0.1,0-0.2,0-0.3,0.1c-0.3,0-0.6,0-0.8,0c-20,0-39.9,0-59.9,0
				c-0.2,0-0.4,0-0.6,0c-0.7,0.1-1.2-0.2-1.6-0.7c-0.1-0.2-0.3-0.4-0.3-0.6c0-0.6,0-1.2,0-1.8s0.2-1,0.6-1.3
				c0.3-0.2,0.5-0.3,0.9-0.3s0.8,0,1.3,0c13.8,0,27.6,0,41.4,0c3.9,0,7.9,0,11.8,0c0.5,0,0.9,0,1.4,0c0.1,0,0.4-0.2,0.4-0.4
				c0-0.4,0-0.8,0-1.3c0-0.6-0.1-0.7-0.8-0.7c-0.5,0-1,0-1.5,0c-22.7,0-45.4,0-68.1,0c-0.4,0-0.9-0.1-1.3,0
				c-0.9,0.1-1.5-0.4-1.9-1.1c-0.1-0.1-0.1-0.3-0.1-0.5c0-0.7,0-1.3,0-2c0-0.5,0.2-0.8,0.5-1.1c0.4-0.5,0.9-0.7,1.6-0.7
				c0.4,0,0.7,0,1.1,0c22.8,0,45.6,0,68.4,0c10.6,0,21.2,0,31.8,0c0.4,0,0.8,0,1.3,0c0.2,0,0.3-0.2,0.4-0.4c0-0.2,0-0.4,0-0.6
				c0-1.5,0.1-1.4-1.4-1.4c-8.9,0-17.9,0-26.8,0c-6,0-11.9,0-17.9,0c-23.4,0-46.9,0-70.3,0c-0.4,0-0.8,0-1.3,0c-1,0.1-1.5-0.5-2-1.2
				c-0.1-0.1-0.1-0.4-0.1-0.5c0-0.6,0-1.2,0-1.8s0.2-1.1,0.6-1.5s0.8-0.7,1.5-0.6c0.5,0,0.9,0,1.4,0c27.5,0,55,0,82.6,0
				c10.5,0,21,0,31.5,0c0.7,0,1.3,0,2,0c1,0,1.9,0.2,2.8,0.6c0.6,0.2,1.2,0.5,1.7,0.9c0.9,0.9,1.6,2.1,1.7,3.6c0.1,1.2,0,2.3,0,3.5
				c0,0.4-0.1,0.8-0.2,1.2c-0.3,1-0.9,1.8-1.9,2.3c-0.7,0.4-1.4,0.6-2.1,0.7c-0.9,0.1-1.7,0.3-2.6,0.3c-0.1,0-0.2,0.1-0.2,0.1
				c-0.1,0,0,0.3,0.1,0.4c0.1,0.1,0.2,0.3,0.4,0.4c1,1.1,2,2.2,3,3.3C215.2,147.1,216.1,148.2,217.1,149.3z"/>
			<path fill="#FFFFFF" d="M207.1,99.8c0,0.1,0,0.3,0,0.4c0,0.2-0.2,0.4-0.5,0.4s-0.7,0-1,0c-1.4,0-2.9,0-4.3,0c-4.3,0-8.6,0-12.9,0
				c-0.5,0-0.9,0-1.4,0c-0.3,0-0.5,0.2-0.5,0.6c0,0.5,0,0.9,0,1.4c0,4.4,0,8.8,0,13.1c0,0.07,0,0.13,0,0.2c0,1.64,0,3.37,0,5
				c0,0.4,0,0.7,0,1c0,0.8-0.3,0.8-1.7,0.8c-1.7,0-3.3,0-5,0c-0.2,0-0.5,0-0.7-0.1c-0.1,0-0.3-0.1-0.3-0.3c0-0.4-0.1-0.7-0.1-1.1
				c0-1.2,0-2.48,0-3.7c0-0.2,0-0.4,0-0.6c0-2.3,0-4.5,0-6.8c0-2.7,0-5.4,0-8.1c0-0.3,0-0.6,0-1c0-0.2-0.2-0.4-0.4-0.4
				c-0.4,0-0.8,0-1.2,0c-1.77,0-3.53,0-5.4,0c-0.03,0-0.07,0-0.1,0c-3.3,0-6.6,0-9.9,0c-0.7,0-1.5,0-2.2,0c-0.2,0-0.5,0-0.7-0.1
				c-0.1,0-0.3-0.1-0.3-0.3c0-0.1,0-0.3-0.1-0.4c0-2.1,0-4.3,0-6.4c0-0.2,0-0.4,0.1-0.5c0-0.1,0.1-0.2,0.2-0.2
				c0.1,0,0.3-0.1,0.4-0.1c0.4,0,0.8,0,1.3,0c5.93,0,11.8,0,17.7,0c1.56,0,3.13,0,4.7,0c0.5,0,1,0,1.5,0c7,0,14,0,21,0
				c0.5,0,0.9,0,1.4,0c0.2,0,0.4,0.2,0.4,0.4c-0.1,0.3,0,0.5,0,0.7C207.1,95.7,207.1,97.8,207.1,99.8z"/>
			<path fill="#FFFFFF" d="M200.3,35.5c-4.4,5-8.7,10-13.1,15c-4.1,4.7-8.2,9.4-12.3,14c-3.8,4.3-7.6,8.7-11.4,13
				c-2.9,3.3-5.8,6.6-8.7,10c-1.3,1.5-0.9,1.3-2.8,1.3c-3-0.1-5.9-0.1-8.9-0.2c-0.4,0-0.7,0-1.1-0.1c-0.1,0-0.2-0.1-0.3-0.3
				c-0.1-0.2-0.1-0.3-0.1-0.4c-0.1-2.2-0.1-4.4-0.2-6.7c0-0.2,0-0.4,0.1-0.5c0.4-0.5,0.9-0.8,1.3-1.1c5.4-4.3,10.8-8.5,16.1-12.8
				c10.1-8,20.3-16,30.4-24.1c3.4-2.7,6.8-5.4,10.3-8.1c0.3-0.2,0.6-0.5,0.9-0.7c0.3,0,0.5,0,0.6,0.3c0.1,0.1,0.1,0.3,0,0.4
				C200.9,34.8,200.6,35.2,200.3,35.5z M157.4,79.6c-0.1-0.4-0.1-0.8-0.1-1.2c0-1.1,0-2.1,0-3.2c0-0.1,0-0.1,0-0.1
				c0-0.1-0.2-0.2-0.3-0.2s-0.3,0.1-0.4,0.1c-1.6,0.7-3.1,1.3-4.7,2c-0.4,0.2-0.8,0.4-1.2,0.8c-1.5,1.3-2.9,2.5-4.4,3.8
				c-0.2,0.2-0.4,0.3-0.6,0.7c0,0.7,0.1,1.4,0.1,2.2c0,0.2,0.1,0.4,0.1,0.6c0.1,0.3,0.2,0.4,0.6,0.5c0.1,0,0.2,0,0.3,0
				c1.7,0,3.3,0,5,0c0.2,0,0.4-0.1,0.5-0.1C153.2,84.6,156.7,80.5,157.4,79.6z			">
<animateTransform  type="rotate" fill="remove" calcMode="linear" additive="replace" accumulate="none" from="-75 142 97" attributeType="XML" restart="always" attributeName="transform" to="0 142 97" dur="1s">
					</animateTransform>
			</path>
			<path fill="#D91E18" d="M192.3,27.3c-2.7,5-5.3,10-8,15.1c0,0.1-0.2,0.1-0.3,0.2c-0.2-0.1-0.3-0.1-0.5-0.2
				c-1.4-0.7-2.7-1.4-4.1-2c-0.1,0-0.2-0.1-0.2-0.2c-0.2-0.1-0.3-0.4-0.2-0.6c0.1-0.3,0.2-0.5,0.4-0.8c1.5-2.8,2.9-5.6,4.4-8.5
				c1.1-2,2.1-4.1,3.2-6.1c0.2-0.3,0.3-0.6,0.5-0.8c0-0.1,0.2-0.1,0.3-0.1s0.2,0,0.3,0.1c1.4,0.8,2.8,1.6,4.3,2.4
				c0.1,0.1,0.3,0.2,0.4,0.3C192.7,26.6,192.5,26.9,192.3,27.3z"/>
			<path fill="#D91E18" d="M197.3,126c-2.4-0.1-4.8-0.3-7.1-1.1c-0.3-0.1-0.7-0.2-1-0.3c-0.5-0.2-0.8-0.5-0.8-1.1c0-0.5,0-1,0-1.5
				c0-0.4,0.3-0.6,0.7-0.5c0.8,0.3,1.6,0.5,2.4,0.8c1.2,0.5,2.4,0.7,3.7,0.8c1.7,0.1,3.3,0.1,5-0.1c0.9-0.1,1.7-0.2,2.5-0.7
				c0.3-0.2,0.7-0.3,1-0.4c0.6-0.2,1.2-0.5,1.8-0.8c0.2-0.1,0.3-0.2,0.5-0.3c1.4-0.5,2.4-1.5,3.5-2.5c0.2-0.2,0.4-0.4,0.6-0.5
				c0.1-0.1,0.4,0.1,0.4,0.4c0,0.5,0,1,0,1.4c0,0.4,0,0.8,0,1.2c0,0.2-0.1,0.4-0.2,0.5c-0.9,0.7-1.9,1.3-2.8,2
				c-0.2,0.1-0.4,0.2-0.6,0.3c-0.6,0.3-1.3,0.5-1.9,0.9c-0.4,0.2-0.9,0.4-1.3,0.5c-1.1,0.3-2.1,0.6-3.2,0.8
				C199.4,126.1,198.4,126.1,197.3,126z"/>
			<path fill="#D91E18" d="M188.3,115.9c0-0.9,0-1.8,0-2.8c0-0.1,0.1-0.2,0.2-0.2s0.3,0,0.4,0c0.5,0.4,1.1,0.9,1.6,1.3
				s1,0.7,1.5,0.9c1.1,0.5,2.2,1,3.4,1.1c2.1,0.3,4.1,0.1,6-0.8c0.9-0.4,1.8-0.9,2.6-1.6c1.1-0.9,2-1.9,2.6-3.2
				c0.6-1.1,1.1-2.3,1.2-3.5c0-0.3,0.1-0.6,0.3-0.8c0.3-0.5,0.3-1,0.3-1.5c0-0.9,0-1.8,0-2.8c0-0.63,0-1.2,0-1.8
				c0-0.16,0-0.33,0-0.5c0-0.2,0-0.4,0-0.6s0-0.4,0.1-0.5c0-0.1,0.1-0.2,0.2-0.2c0.1,0,0.3,0,0.4,0.1c0.1,0,0.2,0.1,0.2,0.2
				c0.4,0.9,0.8,1.8,1.1,2.7c0.2,0.7,0.3,1.5,0.4,2.3c0,0.4,0.1,0.7,0.1,1.1c-0.1,0.2,0,0.4,0,0.6v0.1c-0.1,0.8-0.1,1.7-0.3,2.5
				c-0.2,1.4-1,3.3-1.8,4.6c-0.2,0.3-0.4,0.7-0.7,1.1c-0.9,1.3-2,2.3-3.3,3.2c-1.1,0.8-2.4,1.4-3.7,1.8c-1,0.3-2,0.6-3,0.6
				c-0.2,0-0.4,0-0.5,0.1c-0.1,0-0.3,0.1-0.4,0.1c-1.1-0.1-2.2-0.1-3.3-0.4c-0.7-0.2-1.3-0.4-2-0.7c-1.2-0.4-2.2-1-3.1-1.7
				C188.5,116.5,188.3,116.2,188.3,115.9z"/>
			<path fill="#D91E18" d="M175.7,117.7c-0.7-0.6-1.6-0.9-2.2-1.6c-0.1-0.1-0.3-0.2-0.4-0.3c-1.5-0.9-2.8-2.1-4.1-3.3
				c-0.3-0.3-0.7-0.7-1-1c-0.4-0.4-0.6-0.9-0.7-1.5c-0.1-1.4-0.1-2.9,0.2-4.3c0.1-0.3,0.2-0.7,0.3-1c0.3-0.7,0.6-1.4,0.8-2.1
				c0.1-0.4,0.5-0.7,0.9-0.7c0.7-0.1,1.5-0.2,2.2-0.2c0.9,0,1.8,0,2.6,0.1c0.4,0,0.6,0.5,0.4,0.8c-0.1,0.1-0.2,0.2-0.3,0.3
				c-0.2,0.1-0.4,0.2-0.6,0.3c-0.4,0.1-0.7,0.1-1.1,0.1c-0.6,0.1-1.3,0.2-1.9,0.3c-0.2,0-0.4,0.2-0.6,0.4c-0.4,0.9-0.9,1.8-1.1,2.8
				c-0.2,1-0.1,1.9-0.1,2.9c0,0.4,0.3,0.8,0.6,1c1.3,1.2,2.5,2.3,3.9,3.3c0.8,0.6,1.6,1.2,2.4,1.8c0.2,0.1,0.3,0.2,0.4,0.3
				c0.2,0.3,0.2,0.6,0.2,0.8c0,0.2,0,0.4,0,0.6c0,0.1-0.3,0.3-0.4,0.3C176,117.8,175.8,117.7,175.7,117.7z"/>
			<path fill="#D91E18" d="M169.3,81.4c-1.3,0-2.5-0.1-3.8-0.1c-0.4,0-0.7-0.1-1.1-0.2c-0.2,0-0.4-0.4-0.2-0.5
				c0.3-0.5,0.6-1,0.9-1.4c0.1-0.1,0.1-0.1,0.2-0.2c0.4-0.4,0.8-0.6,1.4-0.5c2.1,0.1,4.3,0.1,6.4,0.1c3.4,0.1,6.8,0.1,10.3,0.2
				c5.1,0,10.3,0,15.4,0c0.5,0,1,0,1.5,0c0.2,0,0.4-0.3,0.3-0.5c-0.7-1.4-1.4-2.7-2.3-4c-0.2-0.3-0.4-0.5-0.6-0.8
				c-0.3-0.4-0.6-0.7-1.1-0.8c-0.7-0.1-1.4-0.3-2.1-0.3c-2.5-0.3-4.9-0.8-7.4-1.2c-0.6-0.1-1.1-0.2-1.6-0.3c-1.6-0.3-3.1-0.7-4.6-1
				s-2.9-0.8-4.4-1.1c-0.2,0-0.3-0.1-0.5-0.2c-0.1-0.1-0.2-0.4-0.1-0.5c0.2-0.2,0.3-0.5,0.5-0.7s0.4-0.5,0.6-0.7
				c0.1-0.1,0.3-0.2,0.5-0.3c0.5-0.1,0.9,0.1,1.4,0.2c1.8,0.4,3.6,0.9,5.4,1.3c0.8,0.2,1.7,0.3,2.6,0.5c0.7,0.2,1.5,0.3,2.2,0.5
				c1.2,0.3,2.4,0.4,3.6,0.6c1.6,0.2,3.3,0.4,5,0.5c0.3,0,0.6,0.2,0.8,0.3c0.4,0.4,0.8,0.7,1.2,1.2c0.8,0.9,1.5,1.9,2.2,2.9
				c0.4,0.5,0.7,1.1,0.9,1.7c0.1,0.3,0.3,0.6,0.4,0.9c0.4,0.7,0.7,1.5,0.9,2.3c0.1,0.3,0.1,0.6,0.1,0.8c0,0.6-0.4,1.1-0.9,1.3
				c-0.5,0.2-1,0.2-1.5,0.3c-0.4,0.1-0.7,0-1.1,0c-0.6,0-1.3,0-1.9,0.2c-0.4,0.1-0.8,0.1-1.2,0.1c-3.1,0-6.3,0-9.4,0
				c-0.4,0-0.7,0-1.1,0.1l-0.1,0.2c0.2,0.5,0.4,1.1,0.7,1.7s0.8,1.2,1.1,1.7c0.1,0.2,0.3,0.2,0.5,0.2c0.3-0.1,0.5-0.2,0.8-0.3
				c1.5-0.7,3.1-0.9,4.7-0.9c1.3,0,2.5,0,3.8,0c1,0,1.9,0.1,2.9,0.3c1,0.1,1.9,0.4,2.8,0.8c1,0.5,2,0.8,2.9,1.3
				c0.3,0.2,0.5,0.2,0.8,0c0.8-0.5,1.6-1,2.2-1.6c0.5-0.4,1-0.7,1.5-1.1c0.2-0.1,0.4-0.3,0.6-0.2c0.3-0.4,0.6-0.1,0.6,0.3
				c0.1,1.8,0.2,1.6-1.3,2.8c-0.1,0.1-0.3,0.2-0.4,0.3c-1.3,0.9-1.2,0.9-0.1,2c0.3,0.3,0.5,0.5,0.8,0.8c0.1,0.1,0.1,0.2,0.1,0.2
				c0.1,0.2,0,0.5-0.2,0.6c-0.3,0-0.6,0.1-0.8,0.1c-0.3,0-0.6,0-1,0c-0.6,0-1.2-0.1-1.7-0.5c-0.6-0.5-1.3-0.7-1.8-1.3
				c-0.1-0.1-0.2-0.1-0.2-0.1c-1.6-0.8-3.2-1.6-5-2c-1.2-0.3-2.4-0.5-3.6-0.5c-0.3,0-0.6,0-1,0c-2-0.1-4.8,0.6-6.6,1.3
				c-1.1,0.6-2.3,0.9-3.3,1.8c-0.3,0.3-0.7,0.4-1.1,0.5c-0.5,0-0.9,0.1-1.4,0.1s-0.9,0-1.4-0.1c-0.1,0-0.3-0.3-0.2-0.4
				s0.1-0.3,0.2-0.4c0.2-0.2,0.4-0.5,0.7-0.7c0.8-0.5,1.5-1.3,2.4-1.7l0.1-0.1c0.1-0.1,0.2-0.3,0.1-0.5c-0.6-1-1.2-2.1-1.8-3.1
				c-0.3-0.5-0.6-1.1-0.9-1.6c-0.2-0.4-0.5-0.5-0.9-0.5c-2,0-4.1,0.1-6.1,0.1c-0.3,0-0.4,0.2-0.4,0.5c0,0.1,0,0.2,0.1,0.3
				c0.2,0.5,0.3,1,0.5,1.4c0.4,0.8,0.6,1.6,0.9,2.5c0.2,0.7,0.4,1.4,0.7,2.1c0.2,0.5,0.3,1.1,0.4,1.6c0.1,0.3-0.2,0.6-0.6,0.6
				c-0.5,0-1,0-1.5,0c-0.3,0-0.6-0.2-0.7-0.6c-0.2-0.5-0.3-1-0.5-1.5c-0.2-0.7-0.4-1.3-0.7-2c-0.3-0.8-0.5-1.6-0.8-2.4
				c-0.2-0.8-0.6-1.6-0.9-2.3c-0.1-0.2-0.3-0.3-0.6-0.3C171.4,81.5,170.4,81.4,169.3,81.4z"/>
			<path fill="#FFFFFF" d="M155.4,33.2c0,0.3,0,0.6,0,0.8c0,0.4-0.2,0.6-0.6,0.6c-1.6,0-3.2-0.1-4.9-0.2c-0.7,0-0.8-0.2-0.8-0.9
				c0-0.1,0-0.3,0-0.4c0.1-5.2,0.1-10.5,0.2-15.7c0-0.4,0-0.7,0-1.1c0-0.1,0.2-0.3,0.4-0.4c0.1,0,0.1,0,0.1,0
				c1.6-0.1,3.2-0.2,4.9-0.2c0.1,0,0.2,0,0.3,0c0.2,0,0.3,0.2,0.3,0.4c0,0.3,0,0.6,0,0.8c0.1,2.8,0.1,5.6,0.1,8.4
				C155.4,27.9,155.4,30.6,155.4,33.2z"/>
			<path fill="#FFFFFF" d="M152.8,120.8c0,0.5,0,0.9,0,1.4c0,0.4-0.2,0.6-0.6,0.6c-0.1,0-0.3,0-0.4,0c-1.9,0-3.8,0-5.7,0
				c-0.2,0-0.5,0-0.7-0.1c-0.1,0-0.2-0.1-0.2-0.2s-0.1-0.3-0.1-0.4c0-0.4,0-0.8,0-1.3c0-4.4,0-8.7,0-13c0-4.4,0-8.7,0-13.1
				c0-0.4,0-0.7,0-1.1c0-0.8,0.1-0.8,0.9-0.8c2,0,4,0,6,0c0.1,0,0.3,0,0.4,0c0.2,0,0.4,0.2,0.4,0.3s0,0.3,0,0.4c0,0.4,0,0.8,0,1.3
				C152.8,103.5,152.8,112.1,152.8,120.8z"/>
			<path fill="#D91E18" d="M152.7,68.8c0,0.1,0,0.2,0.1,0.3c0.1,0.3-0.1,0.6-0.3,0.7c-0.5,0.3-0.9,0.6-1.3,1c-0.1,0.1-0.5,0-0.6-0.1
				c-0.4-1.1-0.9-2.1-0.9-3.3c-0.1-2.3-0.1-4.5-0.1-6.8c0-0.3,0-0.7,0.1-1s0.2-0.5,0.5-0.6c0.4-0.1,0.7-0.1,1.1-0.1
				c1.7,0,3.4-0.1,5.1-0.1c1.6,0,3.2,0,4.9-0.1c1.3,0,1.3,0,2.4,0.9c0.1,0,0.2,0.1,0.3,0.2c0.2,0.2,0.2,0.5,0,0.7l-0.1,0.1
				c-0.4,0.3-0.9,0.7-1.4,1c-0.5,0.2-1.1,0-1.6,0c-2.7,0-5.4,0-8.1-0.1c-0.2,0-0.4,0.1-0.5,0.1s-0.2,0.1-0.2,0.2c0,0.3-0.1,0.7,0,1
				c0.1,0.6,0.1,1.1,0.1,1.7C152.2,65.9,152.4,67.4,152.7,68.8z"/>
			<path fill="#FFFFFF" d="M128,36.7c0.6,1.2,0.6,1.1-0.6,1.8c-1.1,0.6-2.3,1.2-3.4,1.8c-0.2,0.1-0.3,0.1-0.5,0.2
				c-0.1,0-0.2,0-0.2-0.1c-0.2-0.3-0.4-0.6-0.6-1c-2.5-5-5-10.1-7.6-15.1c-0.2-0.4-0.3-0.8-0.5-1.1c0.2-0.1,0.3-0.3,0.5-0.4
				c1.6-0.8,3.2-1.5,4.8-2.3c0.3-0.1,0.5,0,0.6,0.2s0.3,0.5,0.4,0.7C123.2,26.5,125.6,31.6,128,36.7z"/>
			<path fill="#FFFFFF" d="M98.7,113.4c0,2.6,0,5.2,0,7.8c0,0.4,0,0.7-0.1,1.1c0,0.2-0.1,0.3-0.3,0.3c-0.1,0.1-0.3,0.1-0.4,0.1
				c-2.1,0-4.2,0-6.3,0c-0.1,0-0.3,0-0.4-0.1s-0.2-0.2-0.3-0.3c0-0.1-0.1-0.2-0.1-0.3c0-0.3,0-0.7,0-1c0-5.1,0-10.2,0-15.3
				c0-1.6-0.1-1.6,1.6-1.6c1.6,0,3.2,0,4.9,0c0.3,0,0.7,0,1,0.1c0.1,0,0.3,0.1,0.3,0.3c0,0.4,0.1,0.7,0.1,1.1
				C98.7,108.3,98.7,110.9,98.7,113.4z"/>
			<path fill="#FFFFFF" d="M104.3,49.2c0.2,0.1,0.3,0.2,0.4,0.3c0.4,0.4,0.4,0.5,0.1,0.9c-0.1,0.1-0.2,0.2-0.3,0.3
				c-1.1,1.2-2.1,2.3-3.2,3.5c-0.2,0.2-0.4,0.4-0.7,0.5c-0.1-0.1-0.3-0.2-0.4-0.3c-4.5-3.8-9.1-7.5-13.6-11.3
				c-0.1,0-0.1-0.1-0.1-0.2c0-0.1,0-0.2,0-0.3c1.1-1.6,2.3-3.2,3.4-4.7l0.1-0.1c0.1-0.1,0.4-0.2,0.5-0.1c0.3,0.2,0.5,0.4,0.8,0.6
				C95.6,41.9,100,45.5,104.3,49.2z"/>
			<path fill="#FFFFFF" d="M88.4,75.3c-0.1,0.2-0.3,0.3-0.5,0.2c-0.2-0.1-0.4-0.2-0.6-0.3c-5-2.2-10.1-4.5-15.1-6.7
				c-0.3-0.1-0.5-0.2-0.7-0.4c-0.1-0.1-0.2-0.2-0.2-0.4c0-0.2,0.1-0.4,0.2-0.5c0.6-1.6,1.2-3.1,1.7-4.7c0.1-0.2,0.1-0.4,0.3-0.5
				c0.1-0.1,0.3-0.2,0.4-0.1c0.3,0.1,0.5,0.2,0.8,0.3c5.2,2.3,10.4,4.7,15.6,7c0.2,0.2,0.5,0.3,0.8,0.6C91,70,91,70.2,90.9,70.3
				c-0.8,1.5-1.5,3.1-2.3,4.6C88.5,75,88.5,75.1,88.4,75.3z"/>
			<path fill="#FFFFFF" d="M58.3,85.3c0.2,0.1,0.4,0.3,0.5,0.4c2.1,1.4,4.2,2.7,6.3,4.1c0.1,0.1,0.2,0.1,0.4,0.2c0.1,0,0.3,0,0.4,0
				c0.2-0.1,0.3-0.2,0.4-0.4c0.2-0.2,0.4-0.4,0.6-0.6l0.4,0.4c-1.2,1.2-2.1,2.6-2.8,4.1c-0.9,2.1-1.5,4.3-1.8,6.5
				c-0.3,2.29-0.5,4.48-0.6,6.77l-0.6-0.17c0,0.07-0.01,0.14-0.01,0.2H61.4c0.1-1.4,0.2-2.9,0.3-4.3c0-0.4,0-0.8,0-1.3
				c0-0.2-0.1-0.4-0.2-0.5c-0.1-0.2-0.3-0.3-0.5-0.4c-2-1.4-4.1-2.7-6.1-4c-0.1-0.1-0.2-0.2-0.4-0.2c-0.1,0-0.2,0-0.3,0.1l-0.7-0.9
				c0.2,0,0.3-0.1,0.4-0.4c0-0.2,0.1-0.4,0.1-0.5c0.2-0.8,0.4-1.5,0.6-2.3c0.6-2,1.2-4.1,2.4-5.9c0.2-0.3,0.3-0.7,0.1-1l0.08-0.02
				c0.01,0.01,0.01,0.01,0.02,0.02l0.9-0.18C58.11,85.11,58.21,85.21,58.3,85.3z"/>
			<path fill="#FFFFFF" d="M62.1,106.77c0,0.01,0,0.02,0,0.03h-0.61c0-0.06,0.01-0.13,0.01-0.2L62.1,106.77z"/>
			<path d="M58.1,85c0,0.01,0,0.01,0,0.02l-0.9,0.18c-0.01-0.01-0.01-0.01-0.02-0.02L58.1,85z"/>
			<path fill="#FFFFFF" d="M52.7,121.2c0.1,0,0.3-0.1,0.3-0.2c0.1-0.2,0.2-0.4,0.2-0.7c0.1-0.7,0.2-1.5,0.2-2.2
				c0.1-2.7,0.1-5.4,0.2-8.1c0-0.3,0.1-0.6,0.1-0.8c0,0,0-0.06,0.04-0.08c0.02-0.01,0.04-0.02,0.06-0.02c0,0,0.1-0.1,0.1,0
				c0.1,0,0.3,0.1,0.4,0.1c0.6,0.4,1.2,0.8,1.8,1.1c1.1,0.7,2.3,1.4,3.4,2.1c0.4,0.3,0.9,0.5,1.4,0.7c0.1,0,0.3-0.1,0.3-0.2
				c0.1-0.3,0.1-0.6,0.1-1c0.1-1.73,0.1-3.37,0.19-5.1h0.61c0-0.01,0-0.02,0-0.03l0.1,0.03c0,0.4,0,0.8,0,1.3
				c-0.1,4.2-0.1,8.3-0.2,12.5c0,1.9-0.1,3.7-0.3,5.6c0,0.5-0.1,1-0.2,1.5l-0.09-0.02l-0.31-0.08c0.1-0.4-0.1-0.7-0.3-0.9
				c-0.1-0.1-0.3-0.2-0.5-0.3c-1.9-1.3-3.9-2.5-5.8-3.8c-0.3-0.2-0.6-0.4-1-0.6c-0.1-0.1-0.2,0-0.3,0.1L52.7,121.2z"/>
			<path fill="#FFFFFF" d="M48.4,132c-1.9-1.3-3.8-2.5-5.6-3.8c-0.3-0.2-0.7-0.5-1-0.7c-0.1-0.1-0.1-0.2-0.2-0.3c0-0.1,0-0.1,0-0.2
				c0.1-0.2,0.1-0.4,0.2-0.6c0.5-1.1,0.9-2.1,1.4-3.2c0.3-0.6,0.5-1.3,0.7-2c0.3-1.1,0.5-2.3,0.8-3.4c0.09-0.35,0.18-0.62,0.26-0.69
				c0.02-0.01,0.03-0.01,0.04-0.01c0.2-0.1,0.4,0,0.9,0.3c2,1.2,4,2.4,6,3.6c0.3-0.1,0.5,0.1,0.8,0.2l0.5,0.9c0,0,0,0,0,0.1
				c-0.1,0.3-0.2,0.7-0.3,1.1c-0.2,0.9-0.4,1.7-0.6,2.6c-0.6,2.1-1.3,4.2-2.5,6c0,0,0,0.1-0.1,0.1c-0.1,0.1,0,0.4,0,0.6h-0.3H49
				c0,0,0,0,0-0.1C48.8,132.3,48.6,132.1,48.4,132z"/>
			<path fill="#FFFFFF" d="M45.6,92.2c0-0.4,0.1-0.8,0.1-1.2c0-0.08,0.06-0.15,0.13-0.18c0.02-0.01,0.05-0.02,0.07-0.02
				c0.1,0,0.1,0,0.2,0c0.4,0.2,0.7,0.4,1.1,0.6c1.7,1.1,3.4,2.2,5.1,3.4c0.3,0.2,0.5,0.3,0.8,0.5c0.1-0.1,0.3,0,0.4,0l0.7,0.9
				c0,0,0,0-0.1,0.1s-0.1,0.2-0.2,0.4c-0.1,0.9-0.3,1.8-0.3,2.8c-0.1,2.6-0.2,5.2-0.3,7.8c0,0.1,0,0.2,0,0.3s0,0.2,0,0.3
				c0,0.3-0.1,0.5-0.3,0.5c-0.1,0-0.2,0-0.3-0.1c-1-0.6-2-1.2-3-1.8c-1.2-0.7-2.4-1.5-3.5-2.2c-0.2-0.1-0.4-0.2-0.6-0.3h-0.1
				l-0.04-0.06l0.04-0.04l-0.65-1.11c0.1-0.02,0.25-0.1,0.25-0.19c0-0.2,0.1-0.5,0.1-0.7c0.1-1.6,0.1-3.1,0.2-4.7
				C45.5,95.5,45.5,93.9,45.6,92.2z"/>
			<path fill="#FFFFFF" d="M44.85,102.79l0.65,1.11l-0.04,0.04l-0.66-1.14C44.81,102.8,44.83,102.8,44.85,102.79z"/>
			<path fill="#FFFFFF" d="M38.8,99.2c1.6,1,3.2,1.9,4.7,2.9c0.4,0.2,0.8,0.5,1.3,0.6l0.05,0.09c-0.02,0.01-0.04,0.01-0.05,0.01
				l0.66,1.14L45.4,104c-0.1,0.3-0.1,0.5-0.1,0.8c0,3-0.1,6-0.2,9c0,0.6-0.1,1.1-0.1,1.7c0,0.2-0.1,0.4-0.2,0.5c0,0-0.1,0.1-0.2,0.1
				c-0.2-0.1-0.3-0.1-0.5-0.2c-2-1.3-4-2.6-6.1-3.9c-0.2-0.2-0.5-0.3-0.7-0.4c-0.1,0-0.2,0-0.3,0l-0.02-0.04l-0.48-0.96
				c0.1,0,0.2-0.1,0.2-0.1c0.1-0.2,0.2-0.4,0.2-0.7c0.1-1,0.1-1.9,0.2-2.9c0.1-2.1,0.1-4.2,0.1-6.3c0-0.5,0-1,0.1-1.5
				c0-0.3,0.1-0.4,0.2-0.5s0.3,0,0.5,0.1C38.3,98.9,38.6,99,38.8,99.2z"/>
			<path fill="#FFFFFF" d="M41.7,74.2l-0.96,0.1c-0.01-0.04-0.02-0.07-0.04-0.1l0.97-0.1C41.67,74.13,41.68,74.16,41.7,74.2z"/>
			<path fill="#FFFFFF" d="M40.7,74.9c0.08-0.17,0.1-0.41,0.04-0.6l0.96-0.1c-0.02-0.04-0.03-0.07-0.03-0.1h0.03
				c0,0.1,0,0.1,0.1,0.2c0.2,0.2,0.4,0.4,0.6,0.5c1.9,1.4,4,2.7,6,4c0.3,0.2,0.6,0.4,0.9,0.5l0.2,0.6c-0.1,0-0.2,0.1-0.2,0.1
				c-1,1.6-1.9,3.4-2.5,5.3c-0.3,1.1-0.6,2.2-0.8,3.2c-0.1,0.2-0.1,0.4-0.2,0.7c-0.1,0.4-0.2,0.6-0.4,0.6c-0.1,0-0.3-0.1-0.6-0.2
				c-0.2-0.1-0.5-0.3-0.7-0.4c-1.8-1.1-3.6-2.2-5.4-3.4c-0.2-0.1-0.5-0.3-0.8-0.3c-0.1,0-0.2,0-0.2,0.1l-0.7-1
				c0.2,0,0.3-0.1,0.4-0.3c0.1-0.3,0.2-0.6,0.3-0.9c0.3-1.2,0.6-2.3,0.9-3.5c0.1-0.3,0.2-0.7,0.3-1.1c0.5-1.1,0.9-2.2,1.5-3.3
				C40.5,75.3,40.6,75.1,40.7,74.9z"/>
			<path fill="#FFFFFF" d="M28.25,92.09c0.17-0.03,0.26-0.22,0.35-0.59c0-0.4,0.1-0.8,0.1-1.2c0.1-2.3,0.1-4.6,0.2-6.9
				c0-0.8,0.1-1.7,0.2-2.5c0-0.2,0.1-0.4,0.1-0.5s0.1-0.1,0.1-0.2c0.02-0.02,0.05-0.04,0.08-0.06c0.07-0.03,0.14-0.02,0.22,0.06
				c0.2,0.1,0.4,0.2,0.6,0.3c1.1,0.7,2.2,1.4,3.3,2.1c0.9,0.6,1.8,1.2,2.7,1.7c0.1,0.1,0.3,0.2,0.5,0.3c0.1,0,0.3,0,0.3,0l0.7,1
				c-0.1,0.1-0.1,0.3-0.2,0.4c-0.1,0.9-0.2,1.8-0.3,2.8c-0.1,2.5-0.2,5-0.3,7.5c0,0.3,0,0.6-0.1,0.8c0,0.1-0.2,0.3-0.3,0.3h-0.1
				c-0.3-0.2-0.7-0.3-1-0.5c-1.4-0.8-2.8-1.7-4.2-2.5c-0.4-0.2-0.8-0.5-1.2-0.7c-0.2-0.1-0.3-0.2-0.5-0.3
				c-0.16-0.08-0.26-0.1-0.4-0.1l-0.8-1.2C28.28,92.1,28.26,92.1,28.25,92.09z"/>
			<path fill="#FFFFFF" d="M40.3,140.6c-1.8-1.1-3.5-2.3-5.3-3.4l0.4-0.6c0,0,0.1,0,0.1,0.1c1,0.6,2,1.2,2.9,1.9
				c0.4,0.3,0.8,0.3,1.2,0.1c1.4-0.5,2.8-1,4.1-1.6c0.7-0.4,1.4-0.7,2-1.2c0.7-0.5,1.4-1.1,2-1.7c0.4-0.3,0.7-0.7,1-1.1
				c0.1-0.1,0.1-0.3,0-0.5H49h0.4c0,0,0,0.1,0.1,0.1c0.1,0.1,0.2,0.2,0.3,0.3c1,0.7,2,1.5,3,2.2c0.9,0.6,1.8,1.2,2.7,1.7
				c1.4,0.8,1.9,0.6,2.6-0.8c0.3-0.6,0.6-1.3,0.8-1.9c0.5-1.5,1-3,1.3-4.5c0.6-0.9,0.7-1.6,0.8-2.1l0.4,0.1
				c-0.3,2.3-0.8,4.5-1.7,6.6c-0.5,1.3-1.2,2.4-2,3.4c-1.2,1.4-2.5,2.6-3.8,3.8c-1,0.9-2.2,1.6-3.5,2c-1.1,0.4-2.2,0.6-3.2,0.9
				c-0.5,0.1-0.9,0-1.3-0.2C44,143,42.2,141.8,40.3,140.6z"/>
			<path fill="#FFFFFF" d="M33.4,121.9l-0.9,0.1c0-0.1-0.1-0.1-0.1-0.2c-0.03-0.02-0.06-0.05-0.09-0.07c0-0.01-0.01-0.02-0.01-0.03
				l0.9-0.1c0.03,0.06,0.08,0.12,0.14,0.17c0,0.01,0.01,0.01,0.01,0.01C33.35,121.82,33.37,121.86,33.4,121.9z"/>
			<path fill="#FFFFFF" d="M28.5,106.8c0-0.1,0.1-0.3,0.1-0.4c0-0.05,0.02-0.1,0.06-0.14c0.04-0.04,0.09-0.06,0.14-0.06
				c0.1-0.1,0.4-0.1,0.5,0c0.9,0.6,1.8,1.1,2.7,1.7c1.3,0.8,2.6,1.6,3.9,2.5c0,0,0.3,0.1,0.5,0.2l0.5,1c-0.1,0-0.1,0.1-0.1,0.1
				c-0.1,0.2-0.2,0.4-0.3,0.6c-0.1,0.5-0.2,1-0.3,1.5c-0.5,2.4-1.3,4.7-2.5,6.9c-0.26,0.52-0.44,0.81-0.36,1.07
				c-0.06-0.05-0.11-0.11-0.14-0.17l-0.9,0.1c0,0.01,0.01,0.02,0.01,0.03c-0.47-0.39-0.94-0.85-1.41-1.13c-1.3-0.9-2.7-1.8-4-2.8
				c-0.4-0.3-0.8-0.5-1.1-0.8c-0.2-0.1-0.3-0.3-0.5-0.5c0,0,0-0.1-0.1-0.1c0-0.1,0-0.2,0-0.2c0.1-0.3,0.1-0.5,0.3-0.8
				c0.3-0.5,0.6-1,0.8-1.5c0.5-1.2,1-2.4,1.3-3.7c0.2-0.8,0.4-1.5,0.6-2.3C28.3,107.5,28.4,107.2,28.5,106.8z"/>
			<path fill="#FFFFFF" d="M29,93.3l-0.8-1.2c0.02,0,0.03,0,0.05-0.01c0.01,0.01,0.03,0.01,0.05,0.01l0.8,1.2
				C29.07,93.3,29.04,93.3,29,93.3z"/>
			<path fill="#FFFFFF" d="M28.7,59.5c1-0.6,2.1-1.2,3.2-1.6c0.6-0.2,1.1-0.4,1.7-0.7c0.5-0.2,0.9-0.5,1.2-0.9
				c0.8-1,1.7-1.9,2.6-2.9c0.2-0.2,0.4-0.4,0.6-0.6c0.1-0.1,0.4-0.2,0.5-0.1c0.4,0.3,0.8,0.5,1.2,0.8c14.8,9.9,29.6,19.7,44.4,29.6
				c4.4,3,8.9,5.9,13.3,8.9c0.5,0.3,0.9,0.6,1.4,0.8c0.4,0.2,0.8,0.5,1.2,0.7c7.2,4.8,14.4,9.5,21.5,14.3c2.9,1.9,5.8,3.8,8.7,5.8
				c0.3,0.2,0.6,0.4,0.9,0.6c0.3,0.2,0.5,0.1,0.5-0.3c0-0.2,0-0.4,0-0.6c0-0.4,0-0.7,0-1.1c0-5.9,0-11.8,0-17.7c0-0.5,0-0.9,0.1-1.4
				c0-0.2,0.2-0.3,0.4-0.3s0.4,0,0.6,0c1.9,0,3.9,0,5.8,0c0.2,0,0.4,0,0.6,0c0.2,0,0.3,0.2,0.3,0.4c0,0.2,0,0.4,0,0.6
				c0,0.6,0,1.1,0,1.7c0,4.1,0,8.2,0,12.4c0.2,4.4,0.2,8.9,0.2,13.5c0,1.3,0,1.3-1.3,1.3c-1.9,0-3.8,0-5.7,0c-0.5,0-0.9-0.1-1.3-0.4
				c-2-1.4-4.1-2.7-6.1-4.1c-8.4-5.6-16.7-11.2-25.1-16.7c-1.4-0.9-1-0.8-2.7-0.8c-1.6,0-3.3,0-4.9,0c-0.4,0-0.7,0-1.1,0
				c-0.2,0-0.4-0.2-0.4-0.5c0-0.4,0-0.7,0-1.1c0-1.3,0-2.7,0-4c0-0.3,0-0.7,0-1c0-0.5-0.2-0.8-0.5-1c-0.6-0.4-1.2-0.8-1.9-1.2
				c-2.4-1.6-4.8-3.1-7.2-4.7c-1.2-0.8-2.4-1.6-3.6-2.3c-0.4-0.2-0.7-0.3-1.2-0.2c-1.3,0.3-2.7,0.8-4,1.3c-1.3,0.4-2.5,1-3.6,2
				c-0.1,0.1-0.3,0.2-0.4,0.3c-0.4,0.3-0.9,0.7-1.3,1.1L66.9,89c0.6-0.6,1.2-1.1,1.9-1.7c0.6-0.5,1.3-1,2-1.4c0.9-0.5,1.9-1,2.9-1.3
				c0.4-0.2,0.8-0.4,1.2-0.6c0.1,0,0.1-0.2,0.1-0.3c-0.1-0.1-0.1-0.2-0.1-0.2c-0.3-0.3-0.7-0.5-1-0.7c-1.7-1.3-3.6-2.3-5.4-3.4
				c-0.5-0.3-1.1-0.4-1.7-0.2c-0.6,0.2-1.2,0.3-1.7,0.6c-0.5,0.3-1.1,0.5-1.6,0.8c-1.5,0.7-2.8,1.6-4,2.7c-0.5,0.4-0.9,0.8-1.2,1.3
				c-0.1,0.1-0.1,0.3-0.1,0.4l-0.1,0.02c0-0.01,0-0.01,0-0.02l-0.92,0.18c-0.09-0.1-0.19-0.29-0.28-0.38c-0.4-0.4-0.9-0.8-1.4-1.2
				c-1.6-1.1-3.2-2.1-4.9-3.2c-0.3-0.2-0.6-0.3-0.8-0.5c-0.1,0-0.2,0-0.3,0l-0.2-0.6c0.2-0.1,0.4-0.2,0.5-0.3c0.4-0.3,0.7-0.6,1-0.9
				c1.8-1.6,3.8-2.9,6.1-3.8c0.5-0.2,1-0.4,1.4-0.5c0.2-0.1,0.3-0.2,0.5-0.2c0.2-0.1,0.2-0.3,0.1-0.4c-0.1-0.1-0.2-0.2-0.3-0.3
				c-2.2-1.6-4.5-3-6.7-4.5c-0.3-0.2-0.7-0.2-1.1-0.1c-1.1,0.3-2.1,0.7-3.1,1.2c-1.5,0.7-2.9,1.6-4.3,2.6c-0.5,0.4-0.9,0.8-1.3,1.2
				c-0.2,0.2-0.3,0.4-0.4,0.5c0,0.08-0.07,0.16-0.03,0.3l-0.97,0.1c0.02,0.03,0.03,0.06,0.04,0.1H40.7c0,0,0-0.1-0.1-0.1
				c-0.3-0.3-0.5-0.5-0.8-0.7c-1.9-1.4-4-2.6-6.1-3.9c-0.1,0-0.2-0.1-0.3-0.1c-0.1-0.1-0.3-0.1-0.4,0v-0.1v-0.6c0.1,0,0.2,0,0.2,0
				c0.1,0,0.2-0.2,0.3-0.3c1.1-1.2,2.3-2.2,3.7-3.1c1.3-0.9,2.7-1.6,4.2-2.1c0.1,0,0.3-0.1,0.4-0.1c0.1,0,0.3-0.1,0.4-0.1
				c0.2-0.1,0.4-0.3,0.4-0.4c-0.1-0.1-0.1-0.3-0.2-0.3c-0.6-0.5-1.3-0.9-1.9-1.3c-1-0.7-2.1-1.3-3.2-2c-0.5-0.4-1.1-0.6-1.8-0.8
				c-0.4-0.1-0.7-0.2-1.2-0.2s-1.1,0.1-1.7,0.3c-0.8,0.3-1.6,0.7-2.4,1.1c-1.5,0.8-3,1.9-4.4,2.9c-0.18,0.09-0.28,0.26-0.36,0.36
				L25.2,62.6c-0.01,0.01-0.02,0.03-0.03,0.04L25.1,62.6c0.4-0.5,0.8-0.9,1.3-1.3C27.1,60.6,27.9,60.1,28.7,59.5z"/>
			<path fill="#FFFFFF" d="M25.44,62.76c-0.02,0.02-0.03,0.03-0.04,0.04l-0.23-0.16c0.01-0.01,0.02-0.03,0.03-0.04L25.44,62.76z"/>
			<path fill="#FFFFFF" d="M20.8,82.3c0,0.03,0,0.07,0,0.1h-0.5c0-0.03,0-0.07,0-0.1H20.8z"/>
			<path fill="#FFFFFF" d="M21.8,68.6c0.79-2.18,1.88-4.17,3.37-5.96l0.23,0.16c0.01-0.01,0.02-0.02,0.04-0.04l0.06,0.04
				c0,0.1-0.1,0.1-0.1,0.2c-0.1,0.2-0.1,0.5,0,0.6c0.5,0.4,0.9,0.8,1.4,1.1c1.6,1.1,3.3,2.2,4.9,3.3c0.4,0.2,0.7,0.5,1.1,0.7
				c0.1,0,0.2,0,0.2,0v0.1v0.6c-0.1,0-0.3,0.1-0.4,0.2c-0.2,0.3-0.5,0.6-0.6,0.9c-0.4,0.8-0.7,1.5-1,2.3c-0.7,1.8-1.2,3.7-1.6,5.6
				c0,0.2-0.1,0.4-0.2,0.7c0,0.1-0.2,0.2-0.3,0.2h-0.1c-0.6-0.3-1.1-0.6-1.7-1c-1.4-0.9-2.8-1.8-4.2-2.7c-0.4-0.2-0.7-0.4-1.1-0.5
				c-0.1,0-0.2,0-0.3,0c-0.1,0.1-0.2,0.1-0.2,0.2c-0.2,0.4-0.2,0.8-0.2,1.2c-0.2,1.97-0.2,3.84-0.3,5.8h-0.5c0,0.03,0,0.07,0,0.1
				h-0.1c0-0.5,0-1.1,0-1.6c0-2.2,0.2-4.3,0.4-6.5C20.8,72.4,21.2,70.5,21.8,68.6z"/>
			<path fill="#FFFFFF" d="M23.1,127.6c0.3,0,0.5-0.1,0.7-0.1c0.7-0.1,1.4-0.4,2.1-0.7c0.9-0.4,1.7-0.9,2.6-1.4
				c0.3-0.2,0.6-0.4,0.9-0.6c0.5-0.3,0.9-0.6,1.3-1c0.6-0.4,1.1-0.9,1.5-1.5c0.1-0.19,0.19-0.38,0.11-0.57
				c0.03,0.02,0.06,0.05,0.09,0.07c0,0.1,0.1,0.1,0.1,0.2l0.9-0.1c-0.03-0.04-0.05-0.08-0.05-0.12c0.15,0.16,0.38,0.31,0.65,0.52
				c1.7,1.2,3.5,2.3,5.2,3.5c0.4,0.3,0.8,0.6,1.3,0.9c0.1,0.3,0.2,0.4,0.2,0.5s0,0.3-0.1,0.4c-0.4,0.5-0.8,0.9-1.3,1.3
				c-0.3,0.2-0.6,0.4-0.9,0.7c-1,1-2.3,1.7-3.6,2.3c-0.9,0.4-1.9,0.8-2.8,1.1c-0.2,0.1-0.3,0.2-0.5,0.3c-0.1,0-0.1,0.3,0,0.4
				c0.2,0.2,0.3,0.3,0.5,0.4c1.2,0.8,2.3,1.6,3.5,2.3l-0.12,0.18L35.1,137c-1.8-1.2-3.5-2.3-5.3-3.5c-2.4-1.6-4.8-3.2-7.2-4.8
				c-1.79-1.19-3.47-2.28-5.26-3.47l0.26-0.43c-0.01-0.01-0.03-0.02-0.04-0.03l0.04-0.07c1.2,0.8,2.4,1.5,3.6,2.1
				c0.4,0.2,0.9,0.4,1.4,0.6C22.8,127.5,23,127.5,23.1,127.6z"/>
			<path fill="#FFFFFF" d="M27.2,104.9c-2-1.2-3.9-2.5-5.9-3.7c-0.1-0.1-0.3-0.2-0.5-0.3c-0.1-0.1-0.4,0-0.4,0.2
				c-0.1,0.2-0.1,0.4-0.2,0.5c-0.4,1.3-0.7,2.7-1,4c-0.2,0.7-0.4,1.3-0.7,1.9c-0.2,0.4-0.4,0.9-0.6,1.3l-0.17-0.07
				c0.03-0.04,0.05-0.09,0.07-0.13l-0.33-0.13c0.04-0.09,0.06-0.2,0.13-0.27c0.7-1.4,1.1-2.9,1.5-4.5c0.7-3.1,0.9-6.1,1-9.2
				c0.1-4.07,0.1-8.03,0.2-12.1h0.5c0-0.03,0-0.07,0-0.1h0.1c0,0.7,0,1.3,0,2s0,1.4,0.1,2.1c0,0.5,0.3,1,0.7,1.3
				c0.1,0.1,0.3,0.2,0.5,0.3c1.9,1.4,3.9,2.7,5.9,3.9c0,0.08,0.07,0.16,0.15,0.19c-0.02,0.01-0.03,0.01-0.05,0.01l0.8,1.2
				c0.04,0,0.07,0,0.1,0c-0.1,0.1-0.2,0.2-0.2,0.4c0,0.5-0.1,1-0.1,1.5c-0.1,2.6-0.1,5.1-0.2,7.6c0,0.6-0.1,1.1-0.1,1.7
				c0,0.2-0.1,0.4-0.1,0.5s-0.2,0.3-0.4,0.3h-0.1C27.7,105.2,27.4,105,27.2,104.9z"/>
			<path fill="#FFFFFF" d="M17.8,108.6c-0.02,0.04-0.04,0.09-0.07,0.13l-0.33-0.13c0.03-0.03,0.06-0.08,0.07-0.13L17.8,108.6z"/>
			<path fill="#FFFFFF" d="M17.6,124.8l-0.26,0.43c-0.01-0.01-0.03-0.02-0.04-0.03l0.26-0.43C17.57,124.78,17.59,124.79,17.6,124.8z
				"/>
			<path fill="#FFFFFF" d="M14,112.6c1-0.8,1.8-1.9,2.6-2.9c0.3-0.4,0.5-0.8,0.7-1.3l0.17,0.07c-0.01,0.05-0.04,0.1-0.07,0.13
				l0.33,0.13c-0.27,0.56-0.55,1.11-0.83,1.67c-0.2,0.4-0.1,0.7,0.2,0.9c0.4,0.3,0.8,0.5,1.2,0.8c1.8,1.1,3.5,2.3,5.2,3.5
				c0.2,0.4,0.5,0.7,0.7,0.9c0.1,0.1,0.1,0.3,0,0.4s-0.1,0.2-0.2,0.3c-0.6,0.7-1.4,1.3-2.2,1.9c-0.9,0.7-1.9,1.3-3,1.8
				c-0.9,0.4-1.9,0.8-2.8,1.2c-0.2,0.1-0.4,0.2-0.6,0.3c-0.3,0.1-0.4,0.5-0.1,0.7c0.4,0.3,0.8,0.7,1.2,0.9
				c0.38,0.29,0.77,0.48,1.06,0.77l-0.26,0.43c0.01,0.01,0.03,0.02,0.04,0.03l-0.04,0.07c-1.9-1.3-3.9-2.6-5.9-3.9
				c-1.7-1.2-3.5-2.3-5.2-3.5c-0.3-0.2-0.6-0.3-0.7-0.6c0-0.1,0-0.2,0-0.3c0.1-0.1,0.3-0.2,0.5-0.3c1-0.4,2.1-0.8,3.1-1.2
				C10.9,114.8,12.5,113.8,14,112.6z"/>
		</g>
	</g>
</g>
</svg>
