<?xml version="1.0" encoding="utf-8"?>
<!-- Generator: Adobe Illustrator 17.0.0, SVG Export Plug-In . SVG Version: 6.00 Build 0)  -->
<!DOCTYPE svg PUBLIC "-//W3C//DTD SVG 1.1//EN" "http://www.w3.org/Graphics/SVG/1.1/DTD/svg11.dtd">
<svg version="1.1" id="Layer_1" xmlns="http://www.w3.org/2000/svg" xmlns:xlink="http://www.w3.org/1999/xlink" x="0px" y="0px"
	 width="200px" height="100px" viewBox="0 0 200 100" enable-background="new 0 0 200 100" xml:space="preserve">
<g>
	<path fill="none" stroke="#000000" stroke-width="0.2335" stroke-miterlimit="10" d="M14.7,38.7c-0.1,0.1-0.3,0.2-0.4,0.4
		c-0.9,1.2-1.5,2.4-1.7,3.9c-0.2,1.5-0.4,3.1-0.4,4.7C12,49.9,12,52.1,12,54.4c0,1.9-0.2,3.7-0.7,5.6c-0.4,1.4-1.2,2.7-2.4,3.6
		c-0.9,0.8-2,1.3-3.2,1.7c-0.3,0.1-0.6,0.2-1,0.4C5,65.8,5.2,66,5.4,66.1c4.8,3.1,9.5,6.3,14.3,9.4c1.6,1.1,3.3,2.1,4.9,3.2
		c0.2,0.1,0.4,0.2,0.6,0.2c1.1-0.2,2.2-0.4,3-1.1c0.9-0.8,1.7-1.7,2.5-2.6c0.3-0.3,0.5-0.8,0.7-1.2c0.6-1.4,0.9-2.9,1-4.5
		c0.1-2.5,0.1-5,0.2-7.5c0-2,0.1-3.9,0.5-5.9c0.3-1.4,0.7-2.6,1.7-3.7c1.2-1.5,2.8-2.3,4.6-2.8c0.4-0.1,0.8-0.1,1.1,0.2
		c1.8,1.2,3.7,2.4,5.5,3.6c0.6,0.4,0.8,0.7,0.7,1.4c0,0.9,0,1.7,0,2.7c0.3,0,0.5,0,0.8,0c0.8,0,1.6,0,2.4,0c0.5,0,0.9,0.1,1.3,0.4
		c4.7,3.1,9.4,6.2,14.1,9.4c1.1,0.8,2.2,1.2,3.6,1c0.6-0.1,1.2,0,1.7,0c0.2-0.9,0.1-14.2,0-14.7c-1.1-0.1-3.2-0.1-3.6,0.1
		c0,0,0,0,0,0.1c0,3.4,0,6.8,0,10.2c0,0,0,0.1,0,0.1c0,0,0,0,0,0.1c0,0,0,0-0.1,0.1C51.5,54.1,36.3,44,21,33.8
		c-0.5,0.6-1,1.1-1.5,1.7c-0.3,0.3-0.6,0.5-0.9,0.6c-0.7,0.3-1.5,0.6-2.2,1C15.7,37.6,15,38,14.7,38.7L14.7,38.7z M90.7,79
		c-0.4,0-0.7,0-0.9,0c-8.7,0-17.4,0-26,0c-0.2,0-0.4,0-0.6,0c-0.5,0-0.8,0.3-0.8,0.8c0,0.2,0,0.4,0,0.6c0,0.8,0.2,1,1,1
		c9.9,0,19.8,0,29.7,0c0.2,0,0.4,0,0.5-0.1c0.1-1.2,0-2.4,0.1-3.6c0.1,0,0.2-0.1,0.2-0.1c2.7,0,5.3,0,8,0c0.3,0,0.5,0.2,0.7,0.4
		c0.8,0.9,1.7,1.8,2.5,2.7c0.6,0.7,1.2,1,2.1,0.9c0.6-0.1,1.2,0,1.8,0c0,0,0-0.1,0-0.1c-1.1-1.2-2.3-2.5-3.5-3.8
		c0.5,0,0.8-0.1,1.1-0.1c0.3-0.1,0.7-0.1,1-0.2c1-0.3,1.5-0.9,1.6-2c0-0.4,0-0.9,0-1.3c0-1.3-0.6-2.2-1.9-2.5
		c-0.6-0.2-1.3-0.3-2-0.3c-5.2,0-10.3,0-15.5,0c-13.7,0-27.4,0-41.1,0c-0.2,0-0.4,0-0.6,0c-0.5,0-0.9,0.4-1,1c0,0.3,0,0.5,0,0.8
		c0,0.2,0.1,0.4,0.3,0.6c0.3,0.4,0.7,0.4,1.1,0.4c13.7,0,27.3,0,41,0c5.2,0,10.5,0,15.7,0c0.3,0,0.5,0,0.8,0c0,0.4,0,0.8,0,1.2
		c-0.3,0-0.6,0-0.8,0c-5.3,0-10.6,0-15.9,0c-11.1,0-22.3,0-33.4,0c-0.2,0-0.4,0-0.6,0c-0.5,0-0.8,0.4-0.8,0.9c0,0.3,0,0.6,0,0.9
		c0,0.5,0.4,0.8,0.8,0.9c0.2,0,0.4,0,0.6,0c11.3,0,22.6,0,33.9,0c0.3,0,0.5,0,0.8,0C90.7,78.3,90.7,78.6,90.7,79z M162.7,54.9
		c-1.5,0-2.7,0.2-4-0.5c-2.3-1.2-4.7-2.2-7.1-3.3c-0.5-0.2-0.9-0.3-1.5-0.3c-2.4,0.4-4.8,0.5-7.2,0.5c-3.4,0-6.9-0.1-10.3-0.1
		c-1,0-2-0.2-2.9-0.5c-1.1-0.3-2-1-2.8-1.8c-0.4-0.4-0.7-0.9-0.7-1.5c-0.1-0.6-0.1-1.2-0.1-1.8c0-0.2,0-0.4,0.1-0.5
		c0.1,0,0.2-0.1,0.3-0.1c0.2,0,0.5,0,0.7-0.1c0.6,0,0.7-0.1,0.7-0.7c0.1-1.1,0.2-2.2,0.2-3.3c0-0.7-0.1-1.4-0.2-2
		c-0.1-0.7-0.6-1.1-1.3-1.3c-0.4-0.1-0.9-0.2-1.4-0.2c-0.8,0-1.5,0.1-2.3,0.1c-2,0.2-3.9,0.5-5.9,1.1c-0.6,0.2-1.2,0.4-1.7,0.7
		c-1.4,0.7-1.6,2.3-0.5,3.3c0.6,0.6,1.3,0.4,1.8-0.4c-0.3-0.2-0.6-0.5-1-0.7c-0.2-0.2-0.2-0.4-0.1-0.6c0.2-0.4,0.5-0.6,0.9-0.7
		c1-0.3,1.9-0.6,2.9-0.7c1.2-0.1,2.4-0.4,3.6-0.6c0.9-0.1,1.8-0.1,2.7-0.1c0.7,0,0.9,0.2,1,0.9c0,0.8,0,1.7,0,2.5
		c0,0.4-0.1,0.9-0.1,1.3c-0.1,0-0.2,0.1-0.3,0.1c-1.3,0.1-1.4,0.1-1.5,1.4c-0.1,1.1-0.1,2.2,0.3,3.2c1,2.3,2.8,3.5,5.2,4
		c1,0.2,2,0.2,3,0.3c3,0.2,6,0.2,9,0.2c1.5,0,3-0.1,4.5-0.2c1.2-0.1,2.5-0.2,3.7-0.2c0.4,0,0.8,0.1,1.1,0.2c1.5,0.7,3,1.4,4.5,2.1
		c0.4,0.2,0.7,0.4,1,0.6c-0.2,0.1-0.4,0.2-0.6,0.2c-2-0.1-4-0.1-6-0.2c-1.6-0.1-3.2-0.3-4.7-0.5c-2.3-0.3-4.6-0.6-7-0.9
		c-1.2-0.2-2.3-0.3-3.5-0.5c-1-0.1-1.9-0.3-2.9-0.4c-0.2,0-0.3,0-0.7,0.1c0.2,0.2,0.3,0.4,0.5,0.5c0.6,0.3,1.2,0.7,1.8,1
		c0.2,0.1,0.4,0.1,0.5,0.2c1.5,0.2,2.9,0.4,4.4,0.6c2,0.3,4,0.5,6,0.8c2.4,0.3,4.7,0.7,7.1,0.7c3.4,0.1,6.7,0,10.1-0.3
		c0.3,0,0.5-0.1,0.7,0.1c0.2,0.2,0.6,0.1,0.8-0.1c0.4-0.4,0.8-0.3,1.2-0.2c-0.5,1-0.9,1.9-1.4,2.8c-0.1,0.2-0.1,0.5-0.1,0.7
		c0,1,0,2,0,3.1c0,0.7,0.2,1.4,0.6,2c0.1,0.2,0.2,0.5,0.3,0.7c-0.4,0.1-0.6,0.1-0.9,0.2c-2,0.3-4.1,0.7-6.1,0.9
		c-1.4,0.2-2.7,0.4-4.1,0.4c-3.6,0.1-7.1,0.1-10.7,0.1c-3.4,0-6.8,0-10.2,0c-0.3,0-0.5,0-0.8,0.1c0.4,1,0.9,1.5,1.8,1.5
		c2.1,0,4.2,0,6.3,0c3.7,0,7.3-0.1,11-0.1c0.6,0,1.2,0,1.8-0.1c1.9-0.2,3.8-0.3,5.7-0.6c2.2-0.3,4.4-0.7,6.6-1.1
		c0.3,0,0.5,0,0.7,0.2c0.6,0.5,1.1,1,1.8,1.4c1,0.6,2.1,1.1,3.3,1.1c0.8,0,1.6,0,2.3,0c0.4,0,0.9-0.1,1.3-0.2
		c1.4-0.5,2.6-1.3,3.5-2.4c0.3-0.4,0.6-0.7,0.9-1.1c0,0,0.1,0.1,0.1,0.1c-0.2,0.3-0.4,0.7-0.5,1c-0.4,0.7-0.2,1.1,0.6,1.1
		c0,0,0.1,0,0.1,0c5.6,0,11.1,0,16.7,0c0.9,0,1-0.6,0.7-1.1c-0.1-0.1-0.2-0.2-0.2-0.3c-0.8-0.9-1.6-1.8-2.3-2.7
		c-0.2-0.2-0.5-0.3-0.8-0.3c-0.6,0.1-1.2,0.1-1.8,0.1c-1,0-1.9,0-2.9,0c-0.3,0-0.7,0-0.7-0.6c0.4-0.2,0.8-0.3,1.1-0.5
		c1.4-0.6,2.1-1.6,2.2-3.2c0-1-0.3-1.5-1.3-1.9c-1.9-0.8-3.9-1.4-5.9-1.9c-1.9-0.5-3.8-0.8-5.8-1c-0.7-0.1-1.5-0.3-2.2-0.6
		c-1.2-0.6-2.5-1-3.9-1c-1,0-2,0.1-3,0.4c-0.3,0.1-0.6,0.2-1-0.1c-0.7-0.5-1.4-1-2.1-1.5c0.1-0.4,0.2-0.7,0.1-1
		c0-0.2-0.1-0.5-0.3-0.6c-0.8-0.7-1.8-1-2.8-1c-0.3,0-0.5,0.2-0.5,0.5c0.2,0.8-0.1,1.7,0.5,2.4c0.1,0.1,0.1,0.2,0.1,0.3
		C162.7,53.3,162.7,54.1,162.7,54.9z M130.4,53.7c0-0.1-0.1-0.1-0.1-0.2c-1.1,0-2.2,0-3.3,0c-0.5,0-0.7,0.1-1,0.5
		c-1.3,1.6-2.7,3.1-4,4.7c-0.3,0.3-0.6,0.5-1,0.5c-3.3,0-6.5,0-9.8,0c-0.2,0-0.4,0-0.7,0c0-1.9,0-3.7,0-5.6c-1.3,0-2.5,0-3.8,0
		c0,4.9,0,9.8,0,14.6c1.3,0,2.5,0,3.8,0c0-1.9,0-3.7,0-5.6c0.2,0,0.4,0,0.5,0c3.4,0,6.8,0,10.2,0c0.4,0,0.6,0.2,0.8,0.4
		c1.3,1.6,2.7,3.2,4,4.8c0.3,0.3,0.6,0.5,1,0.5c1,0,1.9,0,2.9,0c0.1,0,0.3,0,0.5-0.1c-2-2.5-4-4.9-6.1-7.4
		C126.4,58.4,128.4,56.1,130.4,53.7z M196.2,71.3c-0.3,0-0.5,0-0.8,0c-3.6,0-7.1,0-10.7,0c-1.1,0-2.3,0-3.4,0
		c-0.9,0-1.7,0.3-2.5,0.8c-0.7,0.5-1,1.1-1,2c0,1.6,0,3.1,0,4.7c0,1.1,0.5,1.9,1.5,2.4c0.7,0.4,1.5,0.5,2.3,0.5c2.7,0,5.3,0,8,0
		c1.1,0,2.2,0,3.3,0c0.9,0,1.7-0.3,2.5-0.8c0.6-0.5,1-1.1,1-1.9c0-1,0-2.1,0-3.1c0-0.2,0-0.4,0-0.6c-4.2,0-8.4,0-12.6,0
		c0,0.8,0,1.6,0,2.4c3.2,0,6.4,0,9.5,0c0,0.1,0,0.2,0,0.2c0,0.1-0.1,0.2-0.1,0.2c-0.5,0.5-1.1,0.7-1.7,0.7c-2.8,0-5.6,0-8.4,0
		c-0.4,0-0.9-0.2-1.3-0.3c-0.5-0.2-0.8-0.7-0.8-1.3c0-0.4,0-0.9,0-1.4c-0.1-0.8,0.3-1.3,1-1.5c0.6-0.2,1.2-0.3,1.7-0.3
		c3.9,0,7.9,0,11.8,0c0.3,0,0.6,0,0.9,0C196.2,73.1,196.2,72.2,196.2,71.3z M80.1,53.6c0,1.3,0,2.5,0,3.9c3.3,0,6.6,0,9.9,0
		c0,3.6,0,7.2,0,10.8c1.3,0,2.5,0,3.8,0c0-0.8,0-1.5,0-2.2c0-0.7,0-1.4,0-2.1c0-0.7,0-1.5,0-2.2c0-0.7,0-1.4,0-2.1
		c0-0.7,0-1.4,0-2.2c3.4,0,6.7,0,10,0c0-1.3,0-2.6,0-3.8C95.9,53.6,88.1,53.6,80.1,53.6z M71.9,51.5c0.3,0,0.5,0,0.8,0
		c1.5,0,3,0,4.6,0.1c0.5,0,0.7-0.1,1-0.5c1.2-1.4,2.5-2.8,3.7-4.2c6.3-7.2,12.5-14.4,18.8-21.5c0.1-0.2,0.3-0.4,0.5-0.6
		c-0.3,0-0.4-0.1-0.5,0c-0.2,0.1-0.4,0.3-0.6,0.4C92.7,31,85.2,36.9,77.7,42.8c-1.8,1.5-3.7,2.9-5.5,4.4c-0.2,0.1-0.4,0.4-0.4,0.6
		C71.8,49,71.8,50.2,71.9,51.5z M150.1,71.3c-0.3,0-0.6,0-0.9,0c-2.3,0-4.5,0-6.8,0c-2.4,0-4.7,0-7.1,0c-1,0-1.8,0.2-2.6,0.8
		c-0.7,0.5-1.1,1.1-1.1,2c0,1.6,0,3.3,0,4.9c0,0.9,0.4,1.5,1.1,2c0.8,0.5,1.6,0.8,2.5,0.8c4.7,0,9.5,0,14.2,0c0.2,0,0.4,0,0.5-0.1
		c0-0.9,0-1.8,0-2.8c-0.3,0-0.6,0-0.8,0c-3.8,0-7.7,0-11.5,0c-0.4,0-0.7,0-1.1,0c-0.5-0.1-1-0.2-1.4-0.5c-0.4-0.2-0.7-0.6-0.6-1.1
		c0-0.5,0-0.9,0-1.4c0-0.9,0.2-1.3,1.1-1.5c0.6-0.2,1.2-0.3,1.7-0.3c3.9,0,7.9,0,11.8,0c0.3,0,0.5,0,0.8,0
		C150.1,73.1,150.1,72.2,150.1,71.3z M160.2,81.7c0-0.7,0-1.3,0-2c0-0.6,0-1.2,0-1.8c0-0.6,0-1.3,0-1.9c0-0.6,0-1.3,0-1.9
		c0.2,0,0.2,0,0.3,0c3.3,0,6.5,0,9.8,0c0.5,0,0.9,0.1,1.4,0.3c0.7,0.3,1.1,0.8,1.1,1.6c0,1.7,0,3.3,0,5c0,0.2,0,0.5,0,0.7
		c1,0,1.9,0,2.9,0c0-2.7,0-5.3,0-7.9c0-0.6-0.3-1.1-0.8-1.5c-0.8-0.7-1.7-1-2.7-1c-4.8,0-9.6,0-14.4,0c-0.2,0-0.3,0-0.5,0.1
		c-0.1,1.3-0.1,9.8,0.1,10.3C158.3,81.7,159.2,81.7,160.2,81.7z M91.9,52.3c0.7,0.1,1.4,0.3,2-0.1c1.1-0.7,2.3-1.2,3.7-1.4
		c2.3-0.3,4.4,0.1,6.3,1.5c0.8,0.5,1.5,0.8,2.6,0.5c-0.4-0.4-0.7-0.8-1.1-1.2c0.4-0.3,0.7-0.6,1.1-0.9c0.3-0.2,0.3-0.4,0.3-0.8
		c0-0.3,0-0.6-0.4-0.8c-0.2,0.1-0.4,0.2-0.5,0.4c-0.4,0.3-0.8,0.6-1.2,0.9c-0.3,0.2-0.6,0.2-0.9,0c-1.3-0.7-2.8-1.1-4.3-1
		c-0.4,0-0.7,0-1.1,0c-1,0-2,0.1-3,0.5c-0.1,0-0.2,0-0.4,0.1c-0.3-0.6-0.7-1.2-1-1.8c0.2,0,0.3-0.1,0.4-0.1c0.7,0,1.4,0,2.1,0
		c1.6,0,3.2-0.1,4.8-0.1c0.2,0,0.5-0.1,0.7-0.1c0.5-0.1,0.6-0.3,0.6-0.8c0-0.2,0-0.4-0.1-0.6c-0.6-1.5-1.4-2.8-2.5-3.9
		c-0.2-0.2-0.5-0.3-0.8-0.3c-0.8-0.1-1.6-0.1-2.3-0.3c-2.2-0.4-4.4-0.9-6.6-1.4c-0.8-0.2-1.1,0-1.4,0.9c0.1,0,0.2,0.1,0.3,0.1
		c1.4,0.4,2.9,0.7,4.3,1c1.6,0.3,3.3,0.6,5,0.8c0.6,0.1,1.1,0.3,1.4,0.9c0.4,0.7,0.9,1.3,1.2,2.1c-0.2,0-0.3,0.1-0.4,0.1
		c-0.8,0-1.6,0-2.3,0c-4.6,0-9.2-0.1-13.7-0.1c-0.8,0-1.1,0.3-1.5,1.3c1.4,0.2,2.8,0.1,4.2,0.2c0.1,0.1,0.1,0.2,0.1,0.3
		c0.4,1.2,0.8,2.4,1.2,3.6c0.1,0.2,0.2,0.5,0.3,0.5c0.4,0.1,0.8,0.2,1.2-0.1c-0.5-1.4-0.9-2.8-1.4-4.3c1.2,0,2.2,0,3.2,0
		c0.2,0,0.4,0.1,0.5,0.3c0.5,0.8,0.9,1.6,1.4,2.4C93.1,51.2,92.3,51.5,91.9,52.3z M121.6,75.3c-0.4,0-0.6,0-0.8,0
		c-1.4,0-2.8,0-4.2,0c-0.4,0-0.7,0.1-0.9,0.5c-1.3,1.8-2.7,3.6-4,5.4c-0.1,0.1-0.2,0.3-0.4,0.6c0.9,0,1.7,0,2.4,0
		c0.4,0,0.6-0.1,0.8-0.4c0.8-1,1.7-2,2.5-3.1c0.3-0.4,0.6-0.5,1.1-0.5c1.5,0,3,0,4.5,0c0.5,0,0.8,0.1,1.1,0.5
		c0.8,1.1,1.7,2.1,2.5,3.1c0.1,0.2,0.3,0.4,0.5,0.4c0.9,0,1.8,0,2.8,0c-0.2-0.3-0.3-0.5-0.5-0.7c-2.2-3-4.4-5.9-6.6-8.9
		c-0.4-0.6-0.9-0.9-1.6-0.8c-0.6,0.1-1.3,0-1.9,0c-0.4,0.5-0.8,1-1.2,1.5c-0.3,0.3-0.5,0.7-0.9,1.2c0.4,0,0.6,0,0.8,0
		c0.8,0,1.6,0,2.4,0c0.2,0,0.4,0.1,0.6,0.2C121,74.5,121.3,74.9,121.6,75.3z M73.5,68.2c1.3,0,2.5,0,3.7,0c0.1-0.8,0.1-14.1,0-14.6
		c-1-0.1-3.2-0.1-3.7,0.1C73.5,58.5,73.5,63.4,73.5,68.2z M138.6,57.4c0.2,0,0.3,0,0.4,0c0.9,0.1,1.8,0.2,2.8,0.3
		c1.6,0.2,3.1,0.4,4.7,0.6c1,0.1,2.1,0.2,3.1,0.2c0.3,0,0.6-0.1,0.7-0.5c0.1-0.4-0.1-0.6-0.5-0.7c-0.3-0.1-0.6-0.2-1-0.2
		c-1.5-0.2-3-0.3-4.5-0.5c-2.2-0.3-4.4-0.4-6.7-0.5c-0.6,0-0.8,0.2-0.6,0.8c0.3,1.5,0.7,3.1,1,4.6c0.1,0.5,0.3,0.8,0.9,0.7
		c-0.5,0.4-0.5,0.4-0.5,1.1c0.1,0.8,0.2,1.6,0.4,2.4c0.1,0.8,0.1,0.8,0.9,0.8c2.7,0,5.4,0,8,0c0.5,0,0.9-0.1,1.4-0.2
		c0.2,0,0.4-0.2,0.4-0.4c0.1-0.3-0.1-0.4-0.4-0.5c-0.3-0.1-0.5-0.1-0.8-0.1c-2.1,0-4.2-0.1-6.3-0.1c-0.5,0-1,0-1.6,0
		c-0.2,0-0.4,0-0.6-0.1c-0.1-0.5-0.2-1-0.3-1.5c0.3,0,0.6,0,0.8,0c1.3,0,2.6-0.1,3.9-0.1c0.3,0,0.5,0,0.8-0.1c0.3-0.2,0.3-0.6,0-0.8
		c-0.1-0.1-0.2-0.1-0.3-0.1c-0.8-0.1-1.5-0.1-2.3-0.2c0.4,0,0.9,0,1.3,0c0.4,0,0.8,0,1.1-0.1c0.3,0,0.6-0.1,0.6-0.5
		c0-0.3-0.1-0.5-0.6-0.6c0,0-0.1,0-0.1,0c-0.5,0-1-0.1-1.6-0.1c-1.2,0-2.4,0-3.6,0c-0.2,0-0.4,0-0.7,0
		C139.1,59.7,138.7,58.6,138.6,57.4z M50.6,68.2c0-3,0-6,0-9c-1.3,0-2.5,0-3.7,0c0,3,0,6,0,9C48.2,68.2,49.4,68.2,50.6,68.2z
		 M152.3,71.3c0,3.5,0,6.9,0,10.4c0.5,0,1,0,1.5,0c0.5,0,0.9,0,1.4,0c0-3.5,0-6.9,0-10.4C154.2,71.3,153.3,71.3,152.3,71.3z
		 M37.1,41.4c2.8,1.3,5.6,2.5,8.4,3.7c0.5-1,1-1.9,1.4-2.8c-0.7-0.5-8.2-3.8-8.7-3.9C37.9,39.4,37.5,40.4,37.1,41.4z M53.9,32.5
		c-2.5-2.1-4.9-4.1-7.3-6.1c-0.7,0.9-1.3,1.8-1.9,2.7c2.4,2,4.7,3.9,7.1,5.9C52.4,34.1,53.1,33.3,53.9,32.5z M65.4,26.6
		c-1.4-2.9-2.7-5.7-4.1-8.6c-1,0.5-1.9,0.9-2.8,1.4c1.5,2.9,2.9,5.8,4.3,8.6C63.7,27.5,64.5,27,65.4,26.6z M75.4,24.9
		c1.1,0,2,0.1,3,0.1c0.1-1,0.1-8.8,0-9.3c-0.9,0-1.9,0.1-2.8,0.2C75.5,18.9,75.5,21.8,75.4,24.9z M101.2,35.8
		c0.6,0.9,1.2,1.6,1.8,2.4c2.5-1.9,4.9-3.8,7.4-5.7c-0.6-0.8-1.1-1.6-1.7-2.4C106.1,32,103.7,33.8,101.2,35.8z M97,20.8
		c-0.9-0.5-1.8-1-2.7-1.4c-1.5,2.8-2.9,5.5-4.3,8.3c0.9,0.5,1.8,0.9,2.7,1.3C94.1,26.2,95.6,23.5,97,20.8z M116.7,44.3
		c-3,0.8-5.9,1.6-8.9,2.4c0.2,0.9,0.2,1.8,0.4,2.7c3.1-0.8,6.1-1.6,9.2-2.4C117.2,46,116.9,45.2,116.7,44.3z M104.6,56.2
		c0,0.4-0.1,0.6-0.1,0.9c-0.1,1.2,0,2.5-0.3,3.7c-0.6,2.5-2.7,4.4-5.2,4.4c-1.5,0-2.7-0.5-3.8-1.5c-0.1-0.1-0.3-0.2-0.4-0.3
		c-0.4,1.4-0.1,2,1,2.5c2.4,1.1,4.8,1.1,7.1-0.5c2.8-2,3.7-5.6,2.1-8.8C104.9,56.5,104.8,56.4,104.6,56.2z M124.4,68.6
		c-0.4-1.1-1.1-1.5-2-1.5c-0.2,0-0.5,0-0.7,0c-2.4,0-4.8-0.1-7.3-0.1c-0.7,0-1.1-0.3-1.3-1c-0.2-0.7-0.3-1.4-0.5-2.1
		c-0.1-0.6-0.2-0.7-1-0.4c0,0.2,0,0.4,0,0.5c0.1,0.7,0.2,1.4,0.4,2.1c0.3,1.6,1,2.2,2.8,2.4c0.7,0.1,1.4,0.1,2.1,0.1
		c2.3,0,4.6,0,6.9,0C124,68.6,124.2,68.6,124.4,68.6z M109.3,52c0,0,0,0.1,0,0.1c0.6,0.3,1.1,0.7,1.7,1c0.3,0.2,0.7,0.3,1.1,0.3
		c3.5,0.1,7,0.1,10.5,0.1c0.1,0,0.3,0,0.4,0c0.9,0.1,1.9-0.4,2.4-1.3c-0.3,0-0.5,0-0.7-0.1c-0.5,0-1,0-1.6,0c-1.7-0.2-3.3-0.1-5-0.2
		c-2.7-0.2-5.4,0-8.2,0C109.7,52,109.5,52,109.3,52z M105.6,65.9c-0.1,0-0.1-0.1-0.2-0.1c-0.7,0.6-1.4,1.3-2.3,1.7
		c-0.9,0.4-1.7,0.8-2.7,0.9c-1,0.1-1.9,0.1-2.9,0c-0.9-0.1-1.8-0.5-2.8-0.7c-0.3,1.2-0.2,1.4,0.9,1.7c2.3,0.7,4.6,0.7,6.8-0.1
		c1-0.4,2-0.9,2.9-1.6c0.1-0.1,0.2-0.2,0.2-0.4C105.7,66.8,105.6,66.4,105.6,65.9z M76.8,38.2c0.3,0,0.5-0.1,0.7-0.1
		c1.3,0,2.6,0,3.9,0.1c0.7,0,1-0.3,1.4-0.7c-0.6-0.7-0.7-0.8-1.5-0.8c-1.6,0-3.2,0-4.8,0.1c-0.2,0-0.5,0-0.7,0.1
		c-0.5,1.6-0.2,5.1,0.5,5.8c0.2-0.1,0.3-0.3,0.5-0.4c0.4-0.2,0.4-0.4,0.3-0.9C77,40.5,77,39.4,76.8,38.2z M88.8,65.9
		c0.2-0.7,0.2-0.8-0.3-1.2c-0.9-0.7-1.9-1.4-2.8-2.2c-0.2-0.2-0.4-0.5-0.4-0.7c0-0.6,0-1.3,0.1-1.8c0.5-1.4,0.3-1.1,1.5-1.3
		c0.3,0,0.6-0.1,0.9-0.2c0.1,0,0.2-0.2,0.2-0.3c0-0.1-0.2-0.2-0.3-0.2c-0.8,0-1.5,0-2.3,0.1c-0.2,0-0.4,0.2-0.4,0.3
		c-0.3,0.7-0.6,1.4-0.7,2.1c-0.2,1.2,0,2.3,1.1,3.1c0.8,0.5,1.5,1.2,2.3,1.8C88.1,65.6,88.4,65.9,88.8,65.9z"/>
	<path fill="none" stroke="#000000" stroke-width="0.2335" stroke-miterlimit="10" d="M67,53.7C67,53.7,67,53.7,67,53.7
		c0.5-0.2,2.6-0.3,3.7-0.1c0.1,0.5,0.2,13.8,0,14.7c-0.6,0-1.2-0.1-1.7,0c-1.3,0.1-2.4-0.3-3.6-1c-4.7-3.2-9.4-6.3-14.1-9.4
		c-0.4-0.3-0.8-0.4-1.3-0.4c-0.8,0-1.6,0-2.4,0c-0.2,0-0.5,0-0.8,0c0-0.9,0-1.8,0-2.7c0-0.6-0.2-1-0.7-1.4c-1.9-1.2-3.7-2.4-5.5-3.6
		c-0.4-0.2-0.7-0.3-1.1-0.2c-1.8,0.5-3.4,1.3-4.6,2.8c-0.9,1.1-1.4,2.4-1.7,3.7C32.8,58,32.7,60,32.7,62c0,2.5-0.1,5-0.2,7.5
		c-0.1,1.5-0.4,3.1-1,4.5c-0.2,0.4-0.4,0.9-0.7,1.2c-0.8,0.9-1.6,1.8-2.5,2.6c-0.8,0.7-2,0.9-3,1.1c-0.2,0-0.5-0.1-0.6-0.2
		c-1.6-1-3.3-2.1-4.9-3.2c-4.8-3.1-9.5-6.3-14.3-9.4C5.2,66,5,65.8,4.7,65.6c0.4-0.2,0.7-0.3,1-0.4c1.2-0.4,2.2-0.9,3.2-1.7
		c1.2-1,1.9-2.2,2.4-3.6c0.5-1.8,0.7-3.7,0.7-5.6c0.1-2.3,0-4.5,0.1-6.8c0.1-1.6,0.2-3.1,0.4-4.7c0.2-1.4,0.9-2.7,1.7-3.9
		c0.1-0.1,0.3-0.2,0.4-0.4c-0.1,0.2-0.2,0.5,0.1,0.7c1.2,0.8,2.4,1.6,3.6,2.5c1.3-1.5,2.9-2.5,4.9-3.1C22,38,21,37.1,19.8,36.6
		c-0.5-0.2-1-0.2-1.5,0c-0.8,0.3-1.5,0.7-2.2,1.1c-0.5,0.3-1,0.7-1.5,1c0.4-0.7,1-1.2,1.7-1.5c0.7-0.4,1.4-0.7,2.2-1
		c0.4-0.2,0.7-0.3,0.9-0.6c0.5-0.6,1-1.1,1.5-1.7C36.3,44,51.5,54.1,66.7,64.2c0.1,0,0.1,0,0.1-0.1c0,0,0,0,0-0.1c0,0,0-0.1,0-0.1
		C67,60.5,67,57.1,67,53.7 M12.2,57.4c-0.5,1.9-0.9,3.6-1.9,5.2c0.3,0.2,0.5,0.4,0.7,0.5c0.9,0.6,1.8,1.2,2.6,1.8
		c0.2,0.1,0.3,0.3,0.5,0.5c-0.4,0.4-0.7,0.7-1,1c-0.9,0.7-1.9,1.2-2.9,1.6C10,68,9.8,68.2,9.4,68.4c0.2,0.2,0.3,0.2,0.5,0.3
		c1,0.6,2,1.2,3,1.8c0.5,0.3,1,0.3,1.6,0.1c1.1-0.5,2.2-1.1,3.2-1.9c0.2-0.2,0.4-0.5,0.6-0.7c-1.2-1.2-2.6-1.8-3.8-2.9
		c1-1.6,1.4-3.3,1.9-5.1c0.7,0.5,1.3,0.8,2,1.2c0.6,0.4,1.2,0.9,2,1.2c0-0.3,0.1-0.5,0.1-0.7c0-1.4,0.1-2.9,0.1-4.3
		c0-0.3,0.1-0.6,0.1-1c1.4,0.7,2.5,1.6,3.8,2.2c0-1.1,0.1-2.1,0.1-3.1c0.1-1,0-2,0.2-3.1c1.4,0.8,2.6,1.8,3.9,2.5
		c0.2-0.6,0.3-1.2,0.5-1.7c0.3-0.9,0.6-1.8,1-2.6c0.3-0.7,0.4-0.7-0.2-1.2c-1-0.7-2-1.3-2.9-2c-0.1-0.1-0.3-0.1-0.4-0.2
		c-1.1,1.5-1.4,3.2-1.9,5c-0.7-0.4-1.3-0.8-2-1.2c-0.6-0.4-1.2-0.8-1.9-1.1c-0.1,0.4-0.1,0.7-0.1,0.9c-0.1,1.4-0.1,2.8-0.2,4.3
		c0,0.2-0.1,0.5-0.1,0.8c-1.4-0.7-2.5-1.6-3.8-2.2c0,0.7-0.1,1.2-0.1,1.8c0,1.2-0.1,2.3-0.1,3.5c0,0.3-0.1,0.5-0.2,0.9
		C14.7,59,13.5,58.2,12.2,57.4z M28.2,67.7c0.1-0.5,0.1-0.9,0.1-1.3c0-1.4,0.1-2.8,0.1-4.2c0-0.2,0-0.4,0.1-0.6
		c0.2,0.1,0.4,0.2,0.6,0.3c0.8,0.5,1.6,1,2.4,1.5c0.2,0.1,0.4,0.2,0.7,0.3c0-0.2,0.1-0.3,0.1-0.4c0.1-1.8,0.2-3.6,0.2-5.3
		c0-0.3-0.2-0.5-0.4-0.7c-1-0.6-1.9-1.3-2.9-1.9c-0.1-0.1-0.3-0.1-0.5-0.2c-0.2,0.5-0.2,0.9-0.2,1.4c-0.1,1.4-0.1,2.7-0.2,4.1
		c0,0.2-0.1,0.4-0.1,0.6c-1.3-0.7-2.5-1.6-3.9-2.3c0,0.4,0,0.6,0,0.9c0,1.5-0.1,2.9-0.1,4.4c0,0.3,0.1,0.6-0.2,0.9
		c-0.6-0.4-1.2-0.8-1.9-1.2c-0.6-0.4-1.2-0.8-1.9-1.2c-0.3,1-0.5,1.8-0.8,2.7c-0.3,0.8-0.7,1.6-1,2.5c1.2,1,2.6,1.7,3.8,2.7
		c-0.6,0.8-1.3,1.4-2.1,1.8c-0.8,0.5-1.7,0.8-2.6,1.2c0.1,0.1,0.1,0.2,0.2,0.2c1.1,0.7,2.3,1.5,3.4,2.2c0.1,0.1,0.4,0.1,0.5,0.1
		c1.6-0.5,3.1-1.2,4.3-2.3c0.2-0.2,0.3-0.3,0.5-0.6c-1.3-0.9-2.6-1.8-3.9-2.7c0.9-1.6,1.4-3.3,1.8-5.1
		C25.6,66.1,26.8,66.9,28.2,67.7z M18.4,41.9c-0.2,0.3-0.4,0.6-0.6,0.9c-0.6,1.1-0.9,2.3-1.2,3.5c-0.1,0.2-0.1,0.4-0.2,0.7
		c-1.3-0.7-2.4-1.7-3.8-2.2c-0.1,0.2-0.1,0.3-0.1,0.4c-0.1,1.7-0.1,3.5-0.2,5.2c0,0.4,0.2,0.7,0.5,0.9c0.9,0.6,1.9,1.2,2.8,1.8
		c0.1,0.1,0.3,0.1,0.5,0.2c0-0.4,0-0.6,0.1-0.9c0-1.3,0.1-2.7,0.1-4c0-0.4,0.1-0.7,0.1-1.1c1.4,0.7,2.6,1.7,3.9,2.4
		c0.1-0.2,0.1-0.2,0.2-0.3c0.4-1.5,0.7-3,1.5-4.3c0.2-0.3,0.1-0.5-0.2-0.7c-0.3-0.2-0.5-0.4-0.8-0.6C20.3,43.1,19.4,42.6,18.4,41.9z
		 M28.3,67.8c-0.1,0.4-0.2,0.7-0.2,1c-0.3,1.3-0.6,2.6-1.4,3.8c-0.2,0.3-0.1,0.5,0.1,0.6c0.5,0.4,1,0.8,1.6,1.1
		c0.5,0.3,1,0.6,1.5,0.9c0.4,0.2,0.6,0.1,0.9-0.2c0.1-0.1,0.1-0.2,0.2-0.4c0.6-1.2,0.9-2.6,1.2-3.9c0.1-0.3-0.1-0.5-0.3-0.6
		c-0.8-0.5-1.7-1.1-2.5-1.6C29,68.3,28.7,68.1,28.3,67.8z M31.2,44c-0.1-0.1-0.1-0.2-0.2-0.2c-1.1-0.7-2.2-1.5-3.3-2.2
		c-0.3-0.2-0.5-0.1-0.7,0c-1.3,0.4-2.5,1-3.5,1.8c-0.3,0.3-0.6,0.6-0.9,0.9c0.4,0.6,2.9,2.3,3.8,2.7c0.7-0.6,1.4-1.2,2.2-1.7
		C29.4,44.8,30.3,44.5,31.2,44z M39.2,49.2c-1.2-1-2.4-1.7-3.5-2.3c-0.2-0.1-0.6-0.1-0.8,0c-0.7,0.3-1.5,0.6-2.1,1
		c-0.6,0.4-1.2,0.9-1.8,1.4c-0.4,0.3-0.3,0.5,0.1,0.8c0.3,0.2,0.7,0.5,1,0.7c0.8,0.5,1.6,1,2.4,1.6C35.7,50.8,37.3,49.9,39.2,49.2z"
		/>
	<path fill="none" stroke="#000000" stroke-width="0.2335" stroke-miterlimit="10" d="M93.6,81.3c-0.2,0-0.4,0.1-0.5,0.1
		c-9.9,0-19.8,0-29.7,0c-0.8,0-1-0.2-1-1c0-0.2,0-0.4,0-0.6c0-0.5,0.3-0.8,0.8-0.8c0.2,0,0.4,0,0.6,0c8.7,0,17.4,0,26,0
		c0.3,0,0.6,0,0.9,0c0-0.4,0-0.7,0-1.2c-0.3,0-0.6,0-0.8,0c-11.3,0-22.6,0-33.9,0c-0.2,0-0.4,0-0.6,0c-0.5,0-0.8-0.4-0.8-0.9
		c0-0.3,0-0.6,0-0.9c0-0.5,0.4-0.8,0.8-0.9c0.2,0,0.4,0,0.6,0c11.1,0,22.3,0,33.4,0c5.3,0,10.6,0,15.9,0c0.3,0,0.5,0,0.8,0
		c0-0.4,0-0.8,0-1.2c-0.3,0-0.6,0-0.8,0c-5.2,0-10.5,0-15.7,0c-13.7,0-27.3,0-41,0c-0.4,0-0.8,0.1-1.1-0.4c-0.1-0.2-0.2-0.4-0.3-0.6
		c0-0.3,0-0.5,0-0.8c0-0.6,0.4-1,1-1c0.2,0,0.4,0,0.6,0c13.7,0,27.4,0,41.1,0c5.2,0,10.3,0,15.5,0c0.7,0,1.4,0.1,2,0.3
		c1.2,0.4,1.8,1.3,1.9,2.5c0,0.4,0,0.9,0,1.3c-0.1,1.1-0.5,1.7-1.6,2c-0.3,0.1-0.6,0.2-1,0.2c-0.3,0-0.6,0.1-1.1,0.1
		c1.2,1.3,2.4,2.6,3.5,3.8c0,0,0,0.1,0,0.1c-0.6,0-1.2-0.1-1.8,0c-0.9,0.1-1.5-0.2-2.1-0.9c-0.8-1-1.7-1.8-2.5-2.7
		c-0.2-0.2-0.4-0.4-0.7-0.4c-2.7,0-5.3,0-8,0c0,0-0.1,0-0.2,0.1C93.6,78.9,93.7,80.1,93.6,81.3"/>
	<path fill="none" stroke="#000000" stroke-width="0.2335" stroke-miterlimit="10" d="M116.5,42.2c-0.5,0.8-1.1,1-1.8,0.4
		c-1.1-1-0.9-2.6,0.5-3.3c0.5-0.3,1.1-0.5,1.7-0.7c1.9-0.5,3.9-0.8,5.9-1.1c0.8-0.1,1.5-0.1,2.3-0.1c0.5,0,0.9,0.1,1.4,0.2
		c0.7,0.2,1.1,0.6,1.3,1.3c0.1,0.7,0.2,1.4,0.2,2c0,1.1-0.1,2.2-0.2,3.3c0,0.6-0.1,0.6-0.7,0.7c-0.2,0-0.5,0-0.7,0.1
		c-0.1,0-0.1,0-0.3,0.1c0,0.2-0.1,0.3-0.1,0.5c0,0.6,0.1,1.2,0.1,1.8c0.1,0.6,0.3,1.1,0.7,1.5c0.8,0.9,1.7,1.5,2.8,1.8
		c1,0.3,1.9,0.5,2.9,0.5c3.4,0,6.9,0.1,10.3,0.1c2.4,0,4.8-0.1,7.2-0.5c0.5-0.1,1,0,1.5,0.3c2.4,1.1,4.8,2.1,7.1,3.3
		c1.3,0.7,2.6,0.5,4,0.5c0-0.8,0.1-1.6,0.1-2.3c0-0.1,0-0.2-0.1-0.3c-0.7-0.7-0.3-1.6-0.5-2.4c-0.1-0.3,0.1-0.5,0.5-0.5
		c1.1,0,2,0.3,2.8,1c0.2,0.1,0.3,0.4,0.3,0.6c0,0.3-0.1,0.6-0.1,1c0.7,0.5,1.4,1,2.1,1.5c0.3,0.2,0.6,0.2,1,0.1c1-0.4,2-0.4,3-0.4
		c1.4,0,2.6,0.4,3.9,1c0.7,0.3,1.4,0.5,2.2,0.6c2,0.3,3.9,0.6,5.8,1c2,0.5,4,1.1,5.9,1.9c1,0.4,1.3,0.9,1.3,1.9
		c0,1.5-0.7,2.6-2.2,3.2c-0.4,0.2-0.7,0.3-1.1,0.5c0,0.5,0.3,0.6,0.7,0.6c1,0,1.9,0,2.9,0c0.6,0,1.2,0,1.8-0.1
		c0.3,0,0.6,0.1,0.8,0.3c0.8,0.9,1.6,1.8,2.3,2.7c0.1,0.1,0.2,0.2,0.2,0.3c0.3,0.6,0.2,1.1-0.7,1.1c-5.6,0-11.1,0-16.7,0
		c0,0-0.1,0-0.1,0c-0.8,0-1-0.4-0.6-1.1c0.2-0.3,0.4-0.7,0.5-1c0,0-0.1-0.1-0.1-0.1c-0.3,0.4-0.6,0.7-0.9,1.1
		c-1,1.1-2.2,1.9-3.5,2.4c-0.4,0.2-0.8,0.2-1.3,0.2c-0.8,0-1.6,0-2.3,0c-1.3,0.1-2.3-0.4-3.3-1.1c-0.6-0.4-1.2-0.9-1.8-1.4
		c-0.2-0.2-0.4-0.3-0.7-0.2c-2.2,0.4-4.4,0.8-6.6,1.1c-1.9,0.3-3.8,0.4-5.7,0.6c-0.6,0.1-1.2,0.1-1.8,0.1c-3.7,0-7.3,0.1-11,0.1
		c-2.1,0-4.2,0-6.3,0c-0.9,0-1.5-0.4-1.8-1.5c0.3,0,0.6-0.1,0.8-0.1c3.4,0,6.8,0,10.2,0c3.6,0,7.1,0,10.7-0.1c1.4,0,2.7-0.2,4.1-0.4
		c2-0.3,4.1-0.6,6.1-0.9c0.3,0,0.6-0.1,0.9-0.2c-0.1-0.3-0.2-0.5-0.3-0.7c-0.3-0.6-0.5-1.3-0.6-2c0-1,0-2,0-3.1c0-0.2,0-0.5,0.1-0.7
		c0.4-0.9,0.9-1.9,1.4-2.8c-0.4,0-0.8-0.2-1.2,0.2c-0.2,0.2-0.5,0.3-0.8,0.1c-0.2-0.2-0.5-0.1-0.7-0.1c-3.4,0.3-6.7,0.3-10.1,0.3
		c-2.4,0-4.8-0.4-7.1-0.7c-2-0.3-4-0.5-6-0.8c-1.5-0.2-2.9-0.4-4.4-0.6c-0.2,0-0.4-0.1-0.5-0.2c-0.6-0.3-1.2-0.6-1.8-1
		c-0.1-0.1-0.3-0.2-0.5-0.5c0.3,0,0.5-0.1,0.7-0.1c1,0.1,1.9,0.3,2.9,0.4c1.2,0.2,2.3,0.3,3.5,0.5c2.3,0.3,4.6,0.6,7,0.9
		c1.6,0.2,3.2,0.4,4.7,0.5c2,0.1,4,0.2,6,0.2c0.2,0,0.4,0,0.6-0.2c-0.3-0.2-0.7-0.4-1-0.6c-1.5-0.7-3-1.4-4.5-2.1
		c-0.3-0.1-0.7-0.2-1.1-0.2c-1.2,0-2.5,0.1-3.7,0.2c-1.5,0.1-3,0.2-4.5,0.2c-3,0.1-6,0-9-0.2c-1-0.1-2-0.1-3-0.3
		c-2.4-0.5-4.2-1.8-5.2-4c-0.4-1-0.5-2.1-0.3-3.2c0.1-1.3,0.2-1.3,1.5-1.4c0.1,0,0.1,0,0.3-0.1c0-0.4,0.1-0.9,0.1-1.3
		c0-0.8,0-1.7,0-2.5c0-0.7-0.2-0.9-1-0.9c-0.9,0-1.8,0-2.7,0.1c-1.2,0.1-2.4,0.4-3.6,0.6c-1,0.1-1.9,0.5-2.9,0.7
		c-0.4,0.1-0.7,0.3-0.9,0.7c-0.1,0.2-0.1,0.5,0.1,0.6C115.9,41.8,116.2,42,116.5,42.2 M164.6,61.3c-0.1,4,3.2,7,6.9,7
		c4,0,7.1-3.3,7-7.2c-0.1-3.8-3.3-6.9-7.3-6.8C167.7,54.5,164.5,57.4,164.6,61.3z M194.3,66.6c-0.4-0.4-0.8-0.8-1.1-1.3
		c-0.3-0.3-0.6-0.4-1-0.4c-1.5,0-2.9,0-4.4,0c-1.4,0-2.6-0.5-3.7-1.4c-0.9-0.7-1.5-1.7-1.9-2.8c-0.2-0.6-0.7-0.8-1.2-0.8
		c-0.1,1.1,0,2.3-0.2,3.4c-0.2,1.1-0.6,2.2-0.9,3.3C181,66.8,193.6,66.8,194.3,66.6z M186.9,61.6c1,0,1.6-0.4,2.1-1.2
		c0.6-1,0.6-1.4-0.6-1.8c-1.3-0.5-2.6-0.9-3.9-1.2c-1.9-0.5-3.7-0.8-5.6-1.2c-0.3-0.1-0.6,0-0.9-0.1c0.5,0.9,0.9,1.6,1.3,2.4
		c0.5,0,0.9-0.1,1.3,0c0.5,0.1,1,0.3,1.6,0.4c0.7,0.2,1,0.6,1.2,1.2c0.2,0.5,0.4,1,0.7,1.5c0,0.1,0.2,0.1,0.4,0.3c0-0.2,0-0.4,0-0.5
		c0-0.9,0-0.9,0.9-1c0.1,0,0.1,0,0.2,0c0.6,0,1,0.2,1.1,0.8C186.8,61.3,186.9,61.4,186.9,61.6z M163.9,54.8c1-0.1,1.8-0.1,2.7-0.5
		c-0.9-0.6-1.6-1.1-2.5-1.7C164.1,53.4,164,54.1,163.9,54.8z M164.8,51.1c-0.8-0.6-1-0.6-1.7-0.6c0.1,0.4-0.2,0.9,0.4,1.2
		C163.9,51.8,164.5,51.6,164.8,51.1z"/>
	<path fill="none" stroke="#000000" stroke-width="0.2335" stroke-miterlimit="10" d="M106.7,68.2c0-4.9,0-9.8,0-14.6
		c1.3,0,2.5,0,3.8,0c0,1.9,0,3.7,0,5.6c0.3,0,0.5,0,0.7,0c3.3,0,6.5,0,9.8,0c0.5,0,0.7-0.1,1-0.5c1.3-1.6,2.7-3.1,4-4.7
		c0.3-0.3,0.6-0.5,1-0.5c1.1,0,2.2,0,3.3,0c0,0.1,0.1,0.1,0.1,0.2c-2,2.4-4,4.7-6,7.1c2,2.5,4,4.9,6.1,7.4c-0.2,0-0.4,0.1-0.5,0.1
		c-1,0-1.9,0-2.9,0c-0.4,0-0.7-0.1-1-0.5c-1.3-1.6-2.7-3.2-4-4.8c-0.2-0.3-0.4-0.4-0.8-0.4c-3.4,0-6.8,0-10.2,0c-0.1,0-0.3,0-0.5,0
		c0,1.9,0,3.7,0,5.6C109.1,68.2,107.9,68.2,106.7,68.2"/>
	<path fill="none" stroke="#000000" stroke-width="0.2335" stroke-miterlimit="10" d="M183.5,75.3c4.2,0,8.4,0,12.6,0
		c0,0.2,0,0.4,0,0.6c0,1,0,2.1,0,3.1c0,0.8-0.3,1.5-1,1.9c-0.7,0.5-1.6,0.8-2.5,0.8c-1.1,0-2.2,0-3.3,0c-2.7,0-5.3,0-8,0
		c-0.8,0-1.6-0.1-2.3-0.5c-0.9-0.5-1.5-1.3-1.5-2.4c0-1.6,0-3.1,0-4.7c0-0.9,0.3-1.5,1-2c0.7-0.5,1.6-0.8,2.5-0.8c1.1,0,2.3,0,3.4,0
		c3.6,0,7.1,0,10.7,0c0.3,0,0.5,0,0.8,0c0,0.9,0,1.8,0,2.7c-0.3,0-0.6,0-0.9,0c-3.9,0-7.9,0-11.8,0c-0.6,0-1.2,0.1-1.7,0.3
		c-0.7,0.2-1.1,0.7-1,1.5c0,0.4,0,0.9,0,1.4c0,0.6,0.3,1.1,0.8,1.3c0.4,0.2,0.9,0.3,1.3,0.3c2.8,0,5.6,0,8.4,0
		c0.7,0,1.3-0.2,1.7-0.7c0.1-0.1,0.1-0.2,0.1-0.2c0,0,0-0.1,0-0.2c-3.2,0-6.3,0-9.5,0C183.5,76.9,183.5,76.1,183.5,75.3"/>
	<path fill="none" stroke="#000000" stroke-width="0.2335" stroke-miterlimit="10" d="M90,57.5c-3.4,0-6.6,0-9.9,0
		c0-1.3,0-2.6,0-3.9c8,0,15.9,0,23.8,0c0,1.3,0,2.5,0,3.8c-3.3,0-6.6,0-10,0c-0.1,0.8,0,1.5,0,2.2c0,0.7,0,1.4,0,2.1
		c0,0.7,0,1.5,0,2.2c0,0.7,0,1.4,0,2.1c0,0.7,0,1.4,0,2.2c-1.3,0-2.5,0-3.8,0C90,64.7,90,61.1,90,57.5"/>
	<path fill="none" stroke="#000000" stroke-width="0.2335" stroke-miterlimit="10" d="M101.2,24.7c-0.2,0.3-0.3,0.5-0.5,0.6
		c-6.3,7.2-12.5,14.4-18.8,21.5c-1.2,1.4-2.5,2.8-3.7,4.2c-0.3,0.3-0.6,0.5-1,0.5c-1.5-0.1-3-0.1-4.6-0.1c-0.2,0-0.5,0-0.8,0
		c0-1.3-0.1-2.5-0.1-3.7c0-0.2,0.2-0.4,0.4-0.6c1.8-1.5,3.7-2.9,5.5-4.4c7.5-5.9,14.9-11.8,22.4-17.7c0.2-0.1,0.4-0.3,0.6-0.4
		C100.8,24.6,100.9,24.7,101.2,24.7 M73.8,50c1,0,2,0,2.9,0c0.2,0,0.4-0.2,0.5-0.3c0.7-0.7,1.3-1.5,2-2.3c0.1-0.1,0.2-0.3,0.2-0.4
		c0-0.7,0-1.4,0-2.3c-0.8,0.3-1.6,0.7-2.3,1c-0.3,0.1-0.5,0.2-0.8,0.4c-0.8,0.7-1.6,1.3-2.4,2c-0.1,0.1-0.2,0.3-0.2,0.4
		C73.8,49,73.8,49.5,73.8,50z"/>
	<path fill="none" stroke="#000000" stroke-width="0.2335" stroke-miterlimit="10" d="M150.1,78.9c0,1,0,1.8,0,2.8
		c-0.2,0-0.4,0.1-0.5,0.1c-4.7,0-9.5,0-14.2,0c-0.9,0-1.8-0.2-2.5-0.8c-0.7-0.5-1.1-1.1-1.1-2c0-1.6,0-3.3,0-4.9
		c0-0.9,0.4-1.5,1.1-2c0.8-0.6,1.7-0.8,2.6-0.8c2.4,0,4.7,0,7.1,0c2.3,0,4.5,0,6.8,0c0.3,0,0.5,0,0.9,0c0,0.9,0,1.8,0,2.7
		c-0.3,0-0.6,0-0.8,0c-3.9,0-7.9,0-11.8,0c-0.6,0-1.2,0.1-1.7,0.3c-0.8,0.3-1.1,0.7-1.1,1.5c0,0.5,0,0.9,0,1.4
		c0,0.5,0.2,0.9,0.6,1.1c0.4,0.2,0.9,0.4,1.4,0.5c0.3,0.1,0.7,0,1.1,0c3.8,0,7.7,0,11.5,0C149.6,78.9,149.8,78.9,150.1,78.9"/>
	<path fill="none" stroke="#000000" stroke-width="0.2335" stroke-miterlimit="10" d="M175.7,81.7c-1,0-1.9,0-2.9,0
		c0-0.2,0-0.5,0-0.7c0-1.7,0-3.3,0-5c0-0.8-0.4-1.4-1.1-1.6c-0.4-0.2-0.9-0.3-1.4-0.3c-3.3,0-6.5,0-9.8,0c-0.1,0-0.1,0-0.3,0
		c-0.1,0.6,0,1.2,0,1.9c0,0.6,0,1.3,0,1.9c0,0.6,0,1.2,0,1.8c0,0.6,0,1.3,0,2c-1,0-1.9,0-2.8,0c-0.1-0.5-0.2-9.1-0.1-10.3
		c0.1,0,0.3-0.1,0.5-0.1c4.8,0,9.6,0,14.4,0c1,0,2,0.3,2.7,1c0.4,0.4,0.8,0.9,0.8,1.5C175.7,76.4,175.7,79,175.7,81.7"/>
	<path fill="none" stroke="#000000" stroke-width="0.2335" stroke-miterlimit="10" d="M88.9,52.3c-0.1,0-0.2-0.3-0.3-0.5
		c-0.4-1.2-0.8-2.4-1.2-3.6c0-0.1-0.1-0.2-0.1-0.3c-1.4-0.1-2.8,0-4.2-0.2c0.4-1,0.7-1.3,1.5-1.3c4.6,0,9.2,0.1,13.7,0.1
		c0.8,0,1.6,0,2.3,0c0.1,0,0.2,0,0.4-0.1c-0.3-0.8-0.7-1.5-1.2-2.1c-0.3-0.6-0.8-0.8-1.4-0.9c-1.7-0.2-3.3-0.5-5-0.8
		c-1.5-0.3-2.9-0.7-4.3-1c-0.1,0-0.2-0.1-0.3-0.1c0.3-0.9,0.6-1.1,1.4-0.9c2.2,0.5,4.4,0.9,6.6,1.4c0.8,0.1,1.5,0.2,2.3,0.3
		c0.3,0,0.6,0.1,0.8,0.3c1.1,1.1,2,2.4,2.5,3.9c0.1,0.2,0.1,0.4,0.1,0.6c0,0.5-0.1,0.7-0.6,0.8c-0.2,0.1-0.5,0.1-0.7,0.1
		c-1.6,0.1-3.2,0.1-4.8,0.1c-0.7,0-1.4,0-2.1,0c-0.1,0-0.2,0-0.4,0.1c0.4,0.7,0.7,1.2,1,1.8c0.2,0,0.3,0,0.4-0.1c1-0.4,2-0.5,3-0.5
		c0.4,0,0.7,0,1.1,0c1.5-0.1,3,0.3,4.3,1c0.3,0.2,0.6,0.2,0.9,0c0.4-0.3,0.8-0.6,1.2-0.9c0.2-0.1,0.4-0.3,0.5-0.4
		c0.4,0.2,0.4,0.5,0.4,0.8c0,0.3,0,0.6-0.3,0.8c-0.4,0.3-0.7,0.6-1.1,0.9c0.4,0.4,0.7,0.8,1.1,1.2c-1,0.3-1.8,0-2.6-0.5
		c-1.9-1.3-4-1.8-6.3-1.5c-1.3,0.2-2.6,0.7-3.7,1.4c-0.6,0.4-1.3,0.2-2,0.1c0.4-0.8,1.2-1.1,1.8-1.7c-0.5-0.8-0.9-1.6-1.4-2.4
		c-0.1-0.1-0.3-0.3-0.5-0.3c-1,0-2,0-3.2,0c0.5,1.5,1,2.9,1.4,4.3C89.7,52.5,89.2,52.4,88.9,52.3"/>
	<path fill="none" stroke="#000000" stroke-width="0.2335" stroke-miterlimit="10" d="M111.3,81.7c0.2-0.3,0.3-0.4,0.4-0.6
		c1.3-1.8,2.7-3.6,4-5.4c0.2-0.3,0.5-0.5,0.9-0.5c1.4,0,2.8,0,4.2,0c0.2,0,0.5,0,0.8,0c-0.3-0.4-0.6-0.8-0.9-1.1
		c-0.1-0.1-0.4-0.2-0.6-0.2c-0.8,0-1.6,0-2.4,0c-0.2,0-0.5,0-0.8,0c0.3-0.5,0.6-0.8,0.9-1.2c0.4-0.5,0.8-1,1.2-1.5
		c0.6,0,1.3,0,1.9,0c0.8-0.1,1.2,0.2,1.6,0.8c2.2,3,4.4,6,6.6,8.9c0.1,0.2,0.3,0.4,0.5,0.7c-1,0-1.9,0-2.8,0c-0.2,0-0.4-0.2-0.5-0.4
		c-0.8-1-1.7-2.1-2.5-3.1c-0.3-0.4-0.6-0.5-1.1-0.5c-1.5,0-3,0-4.5,0c-0.5,0-0.8,0.1-1.1,0.5c-0.8,1.1-1.7,2.1-2.5,3.1
		c-0.2,0.3-0.5,0.4-0.8,0.4C113,81.7,112.2,81.7,111.3,81.7"/>
	<path fill="none" stroke="#000000" stroke-width="0.2335" stroke-miterlimit="10" d="M73.5,68.2c0-4.9,0-9.7,0-14.6
		c0.5-0.1,2.6-0.2,3.7-0.1c0.1,0.5,0.2,13.8,0,14.6C76,68.2,74.8,68.2,73.5,68.2z"/>
	<path fill="none" stroke="#000000" stroke-width="0.2335" stroke-miterlimit="10" d="M139,62.2c-0.6,0.1-0.8-0.2-0.9-0.7
		c-0.3-1.5-0.7-3.1-1-4.6c-0.1-0.6,0-0.8,0.6-0.8c2.2,0.1,4.4,0.2,6.7,0.5c1.5,0.2,3,0.3,4.5,0.5c0.3,0,0.7,0.1,1,0.2
		c0.3,0.1,0.5,0.3,0.5,0.7c-0.1,0.4-0.3,0.5-0.7,0.5c-1-0.1-2.1-0.1-3.1-0.2c-1.6-0.2-3.1-0.4-4.7-0.6c-0.9-0.1-1.8-0.2-2.8-0.3
		c-0.1,0-0.2,0-0.4,0c0.1,1.2,0.5,2.3,0.7,3.5c0.2,0,0.5,0,0.7,0c1.2,0,2.4,0,3.6,0c0.5,0,1,0.1,1.6,0.1c0,0,0.1,0,0.1,0
		c0.4,0.1,0.6,0.3,0.6,0.6c0,0.4-0.3,0.5-0.6,0.5c-0.4,0-0.8,0-1.1,0.1c-0.4,0-0.9,0-1.3,0c0.8,0.1,1.5,0.1,2.3,0.2
		c0.1,0,0.2,0,0.3,0.1c0.3,0.2,0.4,0.6,0,0.8c-0.2,0.1-0.5,0.1-0.8,0.1c-1.3,0-2.6,0.1-3.9,0.1c-0.2,0-0.5,0-0.8,0
		c0.1,0.5,0.2,1,0.3,1.5c0.2,0,0.4,0.1,0.6,0.1c0.5,0,1,0,1.6,0c2.1,0,4.2,0.1,6.3,0.1c0.3,0,0.5,0,0.8,0.1c0.2,0.1,0.5,0.2,0.4,0.5
		c0,0.2-0.2,0.4-0.4,0.4c-0.5,0.1-0.9,0.2-1.4,0.2c-2.7,0-5.4,0-8,0c-0.8,0-0.8,0-0.9-0.8c-0.1-0.8-0.3-1.6-0.4-2.4
		C138.5,62.7,138.5,62.7,139,62.2"/>
	<path fill="none" stroke="#000000" stroke-width="0.2335" stroke-miterlimit="10" d="M50.6,59.3c0,3,0,6,0,9c-1.3,0-2.5,0-3.7,0
		c0-3,0-6,0-9C48.2,59.3,49.4,59.3,50.6,59.3"/>
	<path fill="none" stroke="#000000" stroke-width="0.2335" stroke-miterlimit="10" d="M152.3,71.3c1,0,1.9,0,2.8,0
		c0,3.4,0,6.9,0,10.4c-0.5,0-0.9,0-1.4,0c-0.5,0-0.9,0-1.5,0C152.3,78.3,152.3,74.8,152.3,71.3"/>
	<path fill="none" stroke="#000000" stroke-width="0.2335" stroke-miterlimit="10" d="M45.5,45.2c-2.8-1.3-5.6-2.5-8.4-3.7
		c0.4-1,0.7-2,1.1-3c0.5,0.1,8.1,3.4,8.7,3.9C46.5,43.2,46,44.2,45.5,45.2"/>
	<path fill="none" stroke="#000000" stroke-width="0.2335" stroke-miterlimit="10" d="M51.7,34.9c-2.4-2-4.7-3.9-7.1-5.9
		c0.6-0.9,1.3-1.7,1.9-2.7c2.4,2,4.8,4,7.3,6.1C53.1,33.3,52.4,34.1,51.7,34.9"/>
	<path fill="none" stroke="#000000" stroke-width="0.2335" stroke-miterlimit="10" d="M62.8,27.9c-1.4-2.9-2.9-5.7-4.3-8.6
		c0.9-0.5,1.8-0.9,2.8-1.4c1.4,2.9,2.7,5.7,4.1,8.6C64.5,27,63.7,27.5,62.8,27.9"/>
	<path fill="none" stroke="#000000" stroke-width="0.2335" stroke-miterlimit="10" d="M75.4,24.9c0-3.1,0.1-6,0.1-9.1
		c1-0.1,1.9-0.1,2.8-0.2c0.2,0.5,0.2,8.3,0,9.3C77.5,25,76.5,24.9,75.4,24.9"/>
	<path fill="none" stroke="#000000" stroke-width="0.2335" stroke-miterlimit="10" d="M101.2,35.8c2.5-1.9,5-3.8,7.5-5.7
		c0.6,0.8,1.1,1.6,1.7,2.4c-2.5,1.9-4.9,3.8-7.4,5.7C102.4,37.4,101.8,36.6,101.2,35.8"/>
	<path fill="none" stroke="#000000" stroke-width="0.2335" stroke-miterlimit="10" d="M90,27.6c1.4-2.8,2.9-5.5,4.3-8.3
		c0.9,0.5,1.7,0.9,2.7,1.4c-1.4,2.7-2.9,5.4-4.3,8.2C91.8,28.5,91,28.1,90,27.6"/>
	<path fill="none" stroke="#000000" stroke-width="0.2335" stroke-miterlimit="10" d="M107.8,46.7c3-0.8,5.9-1.6,8.9-2.4
		c0.2,0.9,0.5,1.7,0.7,2.7c-3.1,0.8-6.1,1.6-9.2,2.4C108,48.5,107.9,47.6,107.8,46.7"/>
	<path fill="none" stroke="#000000" stroke-width="0.2335" stroke-miterlimit="10" d="M104.6,56.2c0.2,0.2,0.3,0.3,0.4,0.4
		c1.6,3.1,0.7,6.8-2.1,8.8c-2.2,1.5-4.6,1.6-7.1,0.5c-1.1-0.5-1.4-1.1-1-2.5c0.2,0.1,0.3,0.2,0.4,0.3c1.1,1,2.3,1.5,3.8,1.5
		c2.5,0,4.7-1.9,5.2-4.4c0.3-1.3,0.2-2.5,0.3-3.7C104.5,56.8,104.6,56.6,104.6,56.2"/>
	<path fill="none" stroke="#000000" stroke-width="0.2335" stroke-miterlimit="10" d="M124.4,68.6c-0.3,0-0.4,0-0.6,0
		c-2.3,0-4.6,0-6.9,0c-0.7,0-1.4,0-2.1-0.1c-1.8-0.2-2.5-0.8-2.8-2.4c-0.1-0.7-0.3-1.4-0.4-2.1c0-0.2,0-0.4,0-0.5
		c0.7-0.3,0.8-0.2,1,0.4c0.1,0.7,0.3,1.4,0.5,2.1c0.2,0.7,0.6,1,1.3,1c2.4,0,4.8,0,7.3,0.1c0.2,0,0.5,0,0.7,0
		C123.3,67.1,124,67.5,124.4,68.6"/>
	<path fill="none" stroke="#000000" stroke-width="0.2335" stroke-miterlimit="10" d="M109.3,52.1c0,0,0-0.1,0-0.1
		c0.2,0,0.5,0,0.7,0c2.7,0,5.5-0.1,8.2,0c1.7,0.1,3.3,0,5,0.2c0.5,0,1,0,1.6,0c0.2,0,0.5,0,0.7,0.1c-0.5,0.9-1.5,1.4-2.4,1.3
		c-0.1,0-0.3,0-0.4,0c-3.5,0-7-0.1-10.5-0.1c-0.4,0-0.7-0.1-1.1-0.3C110.4,52.8,109.8,52.5,109.3,52.1"/>
	<path fill="none" stroke="#000000" stroke-width="0.2335" stroke-miterlimit="10" d="M105.4,65.8c0.1,0,0.1,0.1,0.2,0.1
		c0,0.4,0,0.9,0,1.3c0,0.1-0.1,0.3-0.2,0.4c-0.8,0.8-1.8,1.3-2.9,1.6c-2.3,0.8-4.5,0.8-6.8,0.1c-1.1-0.3-1.1-0.5-0.9-1.7
		c0.9,0.2,1.8,0.6,2.8,0.7c1,0.1,1.9,0.1,2.9,0c1-0.1,1.8-0.5,2.7-0.9C104,67.1,104.7,66.4,105.4,65.8"/>
	<path fill="none" stroke="#000000" stroke-width="0.2335" stroke-miterlimit="10" d="M76.4,42.8c-0.7-0.8-1-4.2-0.5-5.8
		c0.2,0,0.4-0.1,0.7-0.1c1.6,0,3.2-0.1,4.8-0.1c0.8,0,0.9,0,1.5,0.8c-0.4,0.4-0.7,0.8-1.4,0.7c-1.3-0.1-2.6-0.1-3.9-0.1
		c-0.2,0-0.4,0-0.7,0.1c0.1,1.1,0.2,2.2,0.4,3.3c0.1,0.4,0,0.7-0.3,0.9C76.7,42.5,76.5,42.6,76.4,42.8"/>
	<path fill="none" stroke="#000000" stroke-width="0.2335" stroke-miterlimit="10" d="M88.8,65.9c-0.4,0-0.7-0.3-1-0.5
		c-0.8-0.6-1.5-1.2-2.3-1.8c-1.2-0.8-1.4-1.9-1.1-3.1c0.1-0.7,0.4-1.4,0.7-2.1c0.1-0.1,0.3-0.3,0.4-0.3C86.2,58,87,58,87.7,58
		c0.1,0,0.3,0.1,0.3,0.2c0,0.1-0.1,0.3-0.2,0.3c-0.3,0.1-0.6,0.2-0.9,0.2c-1.2,0.1-1.1-0.1-1.5,1.3c-0.2,0.6-0.2,1.2-0.1,1.8
		c0,0.2,0.2,0.5,0.4,0.7c0.9,0.8,1.8,1.5,2.8,2.2C89,65.1,89,65.2,88.8,65.9"/>
	<path fill="none" stroke="#000000" stroke-width="0.2335" stroke-miterlimit="10" d="M12.2,57.4c1.3,0.8,2.5,1.6,3.8,2.4
		c0.1-0.3,0.2-0.6,0.2-0.9c0-1.2,0.1-2.3,0.1-3.5c0-0.5,0-1.1,0.1-1.8c1.4,0.7,2.5,1.6,3.8,2.2c0-0.3,0.1-0.6,0.1-0.8
		c0.1-1.4,0.1-2.8,0.2-4.3c0-0.3,0.1-0.6,0.1-0.9c0.7,0.3,1.3,0.8,1.9,1.1c0.6,0.4,1.3,0.7,2,1.2c0.5-1.8,0.8-3.5,1.9-5
		c0.1,0.1,0.3,0.1,0.4,0.2c1,0.7,2,1.3,2.9,2c0.6,0.4,0.5,0.5,0.2,1.2c-0.4,0.9-0.7,1.7-1,2.6c-0.2,0.5-0.3,1-0.5,1.7
		c-1.4-0.7-2.5-1.7-3.9-2.5c-0.2,1.1-0.1,2.1-0.2,3.1c-0.1,1-0.1,2-0.1,3.1c-1.4-0.6-2.5-1.5-3.8-2.2c0,0.4-0.1,0.7-0.1,1
		c0,1.4-0.1,2.9-0.1,4.3c0,0.2,0,0.4-0.1,0.7c-0.8-0.3-1.3-0.8-2-1.2c-0.6-0.4-1.2-0.8-2-1.2c-0.5,1.8-0.9,3.5-1.9,5.1
		c1.2,1.1,2.6,1.7,3.8,2.9c-0.2,0.3-0.4,0.5-0.6,0.7c-0.9,0.8-2,1.4-3.2,1.9c-0.5,0.2-1.1,0.2-1.6-0.1c-1-0.6-2-1.2-3-1.8
		c-0.1-0.1-0.2-0.2-0.5-0.3c0.4-0.2,0.6-0.3,0.8-0.4c1-0.4,2.1-0.9,2.9-1.6c0.3-0.3,0.7-0.6,1-1c-0.2-0.2-0.3-0.3-0.5-0.5
		c-0.9-0.6-1.8-1.2-2.6-1.8c-0.2-0.2-0.4-0.3-0.7-0.5C11.4,61,11.8,59.3,12.2,57.4z"/>
	<path fill="none" stroke="#000000" stroke-width="0.2335" stroke-miterlimit="10" d="M28.2,67.7c-1.4-0.8-2.6-1.5-4-2.3
		c-0.4,1.8-0.9,3.5-1.8,5.1c1.3,0.9,2.6,1.8,3.9,2.7c-0.2,0.2-0.3,0.4-0.5,0.6c-1.2,1.2-2.7,1.9-4.3,2.3c-0.2,0-0.4,0-0.5-0.1
		c-1.1-0.7-2.3-1.5-3.4-2.2c-0.1,0-0.1-0.1-0.2-0.2c0.9-0.4,1.8-0.7,2.6-1.2c0.8-0.5,1.5-1,2.1-1.8c-1.2-1-2.6-1.7-3.8-2.7
		c0.4-0.9,0.8-1.7,1-2.5c0.3-0.8,0.5-1.7,0.8-2.7c0.7,0.4,1.3,0.8,1.9,1.2c0.6,0.4,1.2,0.8,1.9,1.2c0.3-0.3,0.2-0.6,0.2-0.9
		c0.1-1.5,0.1-2.9,0.1-4.4c0-0.3,0-0.5,0-0.9c1.4,0.7,2.6,1.6,3.9,2.3c0-0.2,0.1-0.4,0.1-0.6c0.1-1.4,0.1-2.7,0.2-4.1
		c0-0.4,0-0.9,0.2-1.4c0.2,0.1,0.3,0.2,0.5,0.2c1,0.6,1.9,1.3,2.9,1.9c0.3,0.2,0.4,0.3,0.4,0.7c-0.1,1.8-0.2,3.6-0.2,5.3
		c0,0.1,0,0.2-0.1,0.4c-0.3-0.1-0.5-0.2-0.7-0.3c-0.8-0.5-1.6-1-2.4-1.5c-0.2-0.1-0.3-0.2-0.6-0.3c0,0.2-0.1,0.4-0.1,0.6
		c0,1.4-0.1,2.8-0.1,4.2C28.4,66.7,28.3,67.1,28.2,67.7z"/>
	<path fill="none" stroke="#000000" stroke-width="0.2335" stroke-miterlimit="10" d="M18.4,41.9c1,0.6,1.9,1.2,2.8,1.7
		c0.3,0.2,0.5,0.4,0.8,0.6c0.2,0.2,0.3,0.4,0.2,0.7c-0.8,1.3-1.2,2.8-1.5,4.3c0,0.1-0.1,0.2-0.2,0.3c-1.3-0.7-2.5-1.6-3.9-2.4
		c-0.1,0.4-0.1,0.8-0.1,1.1c-0.1,1.3-0.1,2.7-0.1,4c0,0.3,0,0.6-0.1,0.9c-0.2-0.1-0.4-0.1-0.5-0.2c-0.9-0.6-1.9-1.2-2.8-1.8
		c-0.3-0.2-0.6-0.5-0.5-0.9c0-1.7,0.1-3.5,0.2-5.2c0-0.1,0.1-0.2,0.1-0.4c1.4,0.5,2.5,1.5,3.8,2.2c0.1-0.3,0.2-0.5,0.2-0.7
		c0.3-1.2,0.6-2.4,1.2-3.5C18,42.5,18.2,42.3,18.4,41.9z"/>
	<path fill="none" stroke="#000000" stroke-width="0.2335" stroke-miterlimit="10" d="M28.3,67.8c0.4,0.3,0.7,0.5,1,0.7
		c0.8,0.5,1.7,1.1,2.5,1.6c0.2,0.2,0.4,0.3,0.3,0.6c-0.3,1.3-0.6,2.7-1.2,3.9c-0.1,0.1-0.1,0.3-0.2,0.4c-0.3,0.4-0.5,0.5-0.9,0.2
		c-0.5-0.3-1-0.6-1.5-0.9c-0.5-0.4-1-0.7-1.6-1.1c-0.3-0.2-0.3-0.4-0.1-0.6c0.8-1.1,1.1-2.4,1.4-3.8C28.1,68.6,28.2,68.3,28.3,67.8z
		"/>
	<path fill="none" stroke="#000000" stroke-width="0.2335" stroke-miterlimit="10" d="M31.2,44c-0.9,0.4-1.8,0.8-2.6,1.3
		c-0.8,0.5-1.5,1.1-2.2,1.7c-0.9-0.4-3.4-2.1-3.8-2.7c0.3-0.3,0.6-0.6,0.9-0.9c1-0.8,2.2-1.4,3.5-1.8c0.3-0.1,0.5-0.1,0.7,0
		c1.1,0.7,2.2,1.5,3.3,2.2C31.1,43.9,31.1,43.9,31.2,44z"/>
	<path fill="none" stroke="#000000" stroke-width="0.2335" stroke-miterlimit="10" d="M14.6,38.7c0.5-0.3,1-0.7,1.5-1
		c0.7-0.4,1.4-0.8,2.2-1.1c0.5-0.2,1-0.2,1.5,0c1.3,0.5,2.3,1.4,3.6,2.2c-2,0.6-3.6,1.6-4.9,3.1c-1.2-0.8-2.4-1.7-3.6-2.5
		C14.5,39.2,14.6,39,14.6,38.7C14.7,38.7,14.6,38.7,14.6,38.7z"/>
	<path fill="none" stroke="#000000" stroke-width="0.2335" stroke-miterlimit="10" d="M39.2,49.2c-1.9,0.6-3.5,1.6-4.7,3.1
		c-0.8-0.5-1.6-1-2.4-1.6c-0.3-0.2-0.7-0.4-1-0.7c-0.4-0.3-0.4-0.4-0.1-0.8c0.6-0.5,1.1-1,1.8-1.4c0.7-0.4,1.4-0.7,2.1-1
		c0.2-0.1,0.6-0.1,0.8,0C36.9,47.6,38,48.3,39.2,49.2z"/>
	<path fill="none" stroke="#000000" stroke-width="0.2335" stroke-miterlimit="10" d="M164.6,61.3c-0.1-3.9,3.1-6.8,6.6-6.9
		c4-0.2,7.2,3,7.3,6.8c0.1,3.9-3,7.2-7,7.2C167.8,68.3,164.4,65.3,164.6,61.3 M176.8,61.2c0.1-2.7-2.2-5.3-5.3-5.3
		c-2.9,0-5.3,2.3-5.3,5.3c0,3.2,2.7,5.3,5.4,5.3C174.4,66.5,176.9,64.1,176.8,61.2z"/>
	<path fill="none" stroke="#000000" stroke-width="0.2335" stroke-miterlimit="10" d="M181,59.9c0.6,0,1,0.2,1.2,0.8
		c0.4,1.1,1,2,1.9,2.8c1.1,0.8,2.3,1.3,3.7,1.4c1.5,0,2.9,0,4.4,0c0.4,0,0.7,0.1,1,0.4c0.4,0.4,0.7,0.8,1.1,1.3
		c-0.7,0.3-13.3,0.2-14.4,0c0.3-1.1,0.7-2.2,0.9-3.3C181,62.2,180.9,61.1,181,59.9"/>
	<path fill="none" stroke="#000000" stroke-width="0.2335" stroke-miterlimit="10" d="M178,56.1c0.3,0,0.6,0,0.9,0.1
		c1.9,0.4,3.8,0.8,5.6,1.2c1.3,0.3,2.6,0.8,3.9,1.2c1.2,0.4,1.2,0.8,0.6,1.8c-0.5,0.8-1.1,1.3-2.1,1.2c-0.1-0.2-0.1-0.4-0.2-0.5
		c-0.2-0.6-0.5-0.9-1.1-0.8c-0.1,0-0.1,0-0.2,0c-0.9,0.1-0.9,0.1-0.9,1c0,0.1,0,0.3,0,0.5c-0.2-0.1-0.3-0.2-0.4-0.3
		c-0.2-0.5-0.5-1-0.7-1.5c-0.2-0.7-0.6-1.1-1.2-1.2c-0.5-0.1-1-0.3-1.6-0.4c-0.4-0.1-0.8,0-1.3,0C178.9,57.7,178.5,56.9,178,56.1"/>
	<path fill="none" stroke="#000000" stroke-width="0.2335" stroke-miterlimit="10" d="M166.6,54.3c-0.9,0.4-1.7,0.4-2.7,0.5
		c0.1-0.8,0.1-1.4,0.2-2.2C165,53.2,165.8,53.7,166.6,54.3"/>
	<path fill="none" stroke="#000000" stroke-width="0.2335" stroke-miterlimit="10" d="M164.8,51.1c-0.3,0.5-0.9,0.7-1.3,0.6
		c-0.5-0.2-0.3-0.8-0.4-1.2C163.8,50.5,164,50.5,164.8,51.1"/>
	<path fill="none" stroke="#000000" stroke-width="0.2335" stroke-miterlimit="10" d="M73.8,50c0-0.5-0.1-1-0.1-1.5
		c0-0.1,0.1-0.3,0.2-0.4c0.8-0.7,1.6-1.4,2.4-2c0.2-0.2,0.5-0.3,0.8-0.4c0.7-0.3,1.5-0.6,2.3-1c0,0.8,0,1.6,0,2.3
		c0,0.1-0.1,0.3-0.2,0.4c-0.6,0.8-1.3,1.5-2,2.3c-0.1,0.1-0.3,0.3-0.5,0.3C75.8,50,74.9,50,73.8,50"/>
	<path fill="none" stroke="#000000" stroke-width="0.2335" stroke-miterlimit="10" d="M166.2,61.3c0-3.1,2.4-5.3,5.3-5.3
		c3.1,0,5.4,2.6,5.3,5.3c0.1,2.9-2.4,5.3-5.2,5.4C168.9,66.6,166.2,64.5,166.2,61.3 M171.5,65.4c2.4,0,4.1-1.9,4.1-4.1
		c0-2.4-2-4.1-4.1-4.1c-2.2,0-4.1,1.9-4.1,4.1C167.4,63.6,169.2,65.4,171.5,65.4z"/>
	<path fill="none" stroke="#000000" stroke-width="0.2335" stroke-miterlimit="10" d="M167.4,61.3c0-1.6,1-3.1,2.4-3.7"/>
	<path fill="none" stroke="#000000" stroke-width="0.2335" stroke-miterlimit="10" d="M169.8,57.6c0.5-0.2,1.1-0.4,1.7-0.4
		c2.1,0,4.1,1.7,4.1,4.1c0,2.2-1.8,4.1-4.1,4.1c-2.3,0-4-1.8-4.1-4.1"/>
</g>
</svg>
