<?xml version="1.0" encoding="utf-8"?>
<!-- Generator: Adobe Illustrator 17.0.0, SVG Export Plug-In . SVG Version: 6.00 Build 0)  -->
<!DOCTYPE svg PUBLIC "-//W3C//DTD SVG 1.1//EN" "http://www.w3.org/Graphics/SVG/1.1/DTD/svg11.dtd">
<svg version="1.1" id="Layer_1" xmlns="http://www.w3.org/2000/svg" xmlns:xlink="http://www.w3.org/1999/xlink" x="0px" y="0px"
	 width="200px" height="200px" viewBox="0 0 200 200" enable-background="new 0 0 200 200" xml:space="preserve">
<g>
	<path fill="none" stroke="#000000" stroke-width="0.2424" stroke-miterlimit="10" d="M172.3,112.8c0-0.1,0-0.1,0-0.2
		c0.2-0.1,0.4-0.3,0.6-0.4c0.9-0.7,1.3-1.6,1.2-2.7c-0.1-1.1-0.9-1.4-1.8-1.7c-1.5-0.5-3.1-1-4.6-1.4c-2.5-0.6-5-1.3-7.5-1.8
		c-1.1-0.2-2.3,0-3.5,0c-0.6,0-1.2-0.1-1.8-0.4c-0.3-0.2-0.6-0.7-0.7-1.1c-0.2-0.9-1.7-1.9-2.8-1.5c-1.2,0.3-0.6,1.3-0.5,2
		c0,0.7,0.2,1.5,0.4,2.2c-0.1,0.1-0.3,0.2-0.4,0.3c-1-0.3-2-0.4-2.9-0.8c-1.6-0.7-3.1-1.5-4.7-2.2c-0.7-0.3-1.5-0.4-2.2-0.4
		c-4.6,0-9.2,0.2-13.8,0.2c-2.7,0-5.1-1.5-4.5-4.3c1.1,0.1,1.3-0.7,1.3-1.6c0.1-1,0.1-2,0.1-3c-0.1-1.1-0.7-1.9-1.9-2
		c-3-0.2-5.9,0.3-8.7,1.5c-0.5,0.2-1,0.9-1,1.4c0,0.7,0.4,1.5,0.9,1.9c0.2,0.2,1.1-0.3,1.9-0.5c-0.6-0.5-0.9-0.8-1.2-1
		c0.1-0.1,0.2-0.2,0.3-0.3c2.4-0.9,4.8-1.3,7.3-1.2c0.2,0,0.5,0.1,0.5,0.2c0.1,0.8,0.2,1.6,0.1,2.4c0,0.2-0.5,0.4-0.8,0.7
		c-0.2,0.2-0.5,0.5-0.6,0.8c-0.5,2.1,0,4.1,1.8,5.3c2,1.3,4.3,2,6.5,3c0,0,0.1,0,0.1,0c1.2,0.2,2.5,0.4,3.7,0.6
		c-0.2,0.1-0.5,0.1-0.7,0.1c-1.8,0-1.8,0.1-1.5,1.7c0.5,2.3,1,4.6,1.5,7c-2.2,0-4.1,0-6.1,0c0.2,1.4,0.6,1.8,2,1.8
		c3.1,0,6.3-0.1,9.4-0.1c4.7,0.1,9.3-0.3,13.9-1.2c1-0.2,1.8-0.1,2.6,0.7c0.7,0.6,1.8,1,2.8,1.2c2.2,0.4,4.3,0,5.8-1.5
		c0.9,0.2,1.5,0.4,2.1,0.4c4,0,8,0,12,0c0.3,0,0.7,0.1,0.9-0.1c0.3-0.2,0.6-0.8,0.5-0.9c-0.7-1-1.4-2.1-2.4-2.9
		c-0.4-0.4-1.3-0.2-2-0.2C173.6,112.7,172.9,112.8,172.3,112.8z M106.6,104.9c0,4,0,8,0,12c1.2,0,2.3,0,3.6,0c0-1.5,0-2.8,0-4.2
		c0.3,0.4,0.3,0.8,0.3,1.2c0.1,0.4,0.1,0.9,0.2,1.3c0.3,1.4,0.9,2,2.3,2c2.3,0.1,4.5,0.1,6.8,0.1c0.4,0,0.9-0.2,1.3-0.3
		c-0.3-0.4-0.5-0.9-0.9-1.2c-0.3-0.2-0.7-0.2-1.1-0.2c-1.4,0-2.8,0-4.2,0c-2.7-0.1-2.7-0.1-3.2-2.9c0.9,0,1.8,0.1,2.7,0
		c3-0.5,5.2,0.4,6.8,3.1c1,1.5,3,1.8,4.9,1.1c-1.6-2-3.2-3.9-4.8-5.9c1.6-2,3.3-3.9,5-5.9c-2.2-0.4-4.1-0.7-5.4,1.5
		c-0.5,0.8-1.2,1.5-1.9,2.2c-0.2,0.3-0.6,0.6-0.8,0.6c-2.7,0-5.3,0-8,0c0-1.4,0-2.7,0-3.9c3.1,0,6.2-0.1,9.3,0c1.2,0,2-0.4,2.8-1.6
		c-4.7-0.3-9.2-0.6-13.7-0.3c-0.1,0.2-0.1,0.3-0.2,0.5c0.3,0.1,0.6,0.3,0.9,0.4c0,0.1-0.1,0.1-0.1,0.2c-0.7,0-1.5,0-2.2,0
		c-0.2-0.5-0.4-0.9-0.7-1.4c0.1-0.1,0.3-0.1,0.3-0.2c0.1-0.5,0.3-1.1,0.4-1.6c-0.4,0.1-0.9,0.2-1.3,0.3 M104.6,121.6
		c0.5,0,1,0,1.4,0c0,0.1,0,0.2,0,0.3c-0.5,0.1-1.1,0.1-1.6,0.1 M95.3,127.5c0.5,0,1-0.1,1.6-0.2c0-0.9,0-1.8,0-2.8
		c1.5,0,2.8,0.1,4.2,0c1.6-0.2,2.8,0.4,3.6,1.7c1.1,1.8,2.7,1.9,4.7,1.4c-0.9-1-1.8-2-2.7-3c2.2-0.5,2.7-1.2,2.5-3.4
		c-0.2-1.5-1.1-2.3-3-2.3c-1.8,0-3.6-0.1-5.4-0.1 M106,116.6c0.8-0.6,0.8-1.3-0.1-2.1 M104.2,114.6c1.9-1.4,3.1-4.2,1.8-6.8
		 M178.4,118.9c-4.3,0-8.4,0-12.6,0c-1.6,0-2.6,1.2-2.6,2.7c0,1.1,0,2.2,0,3.3c0,1.4,0.8,2.6,2.3,2.7c3.6,0.1,7.2,0.1,10.8,0
		c0.8,0,1.9-0.9,2.1-1.7c0.4-1.2,0.1-2.5,0.1-3.8c-3.6,0-7.1,0-10.6,0c0,0.8,0,1.6,0,2.4c2.3,0,4.6,0,6.9,0
		c-2.6,0.3-5.1,0.3-7.7,0.2c-0.4,0-0.8-0.8-1-1.2c-0.2-0.7-0.1-1.5,0.8-1.6c1.1-0.2,2.2-0.2,3.4-0.2c2.7,0,5.4,0,8.1,0
		C178.4,120.6,178.4,119.9,178.4,118.9z M141.8,118.9c-4.3,0-8.6-0.1-12.9,0c-1.4,0-2.3,1.2-2.3,2.6c0,1.1,0,2.1,0,3.2
		c0,1.9,0.8,2.9,2.7,3c4,0.1,8,0,12,0c0.1,0,0.3-0.1,0.4-0.1c0-0.9,0-1.8,0-2.7c-3.3,0-6.6,0-9.8,0c-0.5,0-1.1,0.1-1.5-0.2
		c-0.4-0.2-0.8-0.7-0.9-1.2c-0.2-1.6,0.3-1.9,2.4-1.9c2.9,0,5.7,0,8.6,0c0.4,0,0.9,0,1.3,0C141.8,120.6,141.8,119.8,141.8,118.9z
		 M159.3,127.7c0.6,0,1.1,0,1.5,0c1,0.1,1.5-0.2,1.4-1.3c-0.1-1.4-0.1-2.7,0-4.1c0.2-2.5-1.3-3.5-3.5-3.5c-3.5,0-6.9,0-10.4,0.1
		c-0.4,0-0.8,0-1.3,0c0,3,0,5.9,0,8.8c0.9,0,1.8,0,2.8,0c0-2.1,0-4,0-6.1c1,0,1.8,0,2.7,0c1.7,0,3.4,0,5.1,0.1
		c1.1,0.1,1.8,0.5,1.7,1.8C159.2,124.8,159.3,126.2,159.3,127.7z M118,121.7c0,0.1,0,0.3-0.1,0.4c-0.2,0-0.4,0-0.6,0
		c-2.3-0.5-3.9,0.5-5,2.5c-0.6,1-1.4,1.9-2.1,3c1.8,0.4,3.2,0.3,4.2-1.3c0.4-0.7,1.1-1.6,1.8-1.7c1.9-0.1,4.2-0.8,5.4,1.7
		c0.8,1.8,2.4,1.6,4.1,1.3c-0.3-0.4-0.5-0.8-0.7-1.1c-1.6-2.1-3.3-4.2-4.7-6.5c-0.9-1.4-2.2-1.4-3.3-1.1c-1.1,0.2-1.6,1.4-2.1,2.6
		C116,121.6,117,121.6,118,121.7z M70.9,76.3 M84.7,74.6c-0.8,0-1.5,0-2.2,0c-0.2,0-0.6,0.3-0.6,0.5 M110.3,88.3 M115.1,97.3
		c-2.6,0.7-5.1,1.4-7.6,2.1c0.2,1,0.3,1.8,0.4,2.7c2.7-0.7,5.3-1.4,8-2.1C115.6,99,115.3,98.2,115.1,97.3z M143,119
		c0,2.9,0,5.8,0,8.7c0.9,0,1.7,0,2.6,0c0-2.9,0-5.8,0-8.7C144.8,119,144,119,143,119z"/>
	<path fill="none" stroke="#000000" stroke-width="0.2424" stroke-miterlimit="10" d="M172.3,112.8c0.6,0,1.3,0,1.9,0
		c0.7,0,1.5-0.2,2,0.2c0.9,0.8,1.6,1.9,2.4,2.9c0.1,0.1-0.3,0.7-0.5,0.9c-0.2,0.2-0.6,0.1-0.9,0.1c-4,0-8,0-12,0
		c-0.6,0-1.2-0.2-2.1-0.4c-1.4,1.5-3.5,1.9-5.8,1.5c-1-0.2-2.1-0.6-2.8-1.2c-0.9-0.7-1.7-0.9-2.6-0.7c-4.6,0.9-9.3,1.3-13.9,1.2
		c-3.1,0-6.3,0.1-9.4,0.1c-1.4,0-1.8-0.4-2-1.8c2,0,3.9,0,6.1,0c-0.5-2.4-1-4.7-1.5-7c-0.4-1.7-0.3-1.7,1.5-1.7c0.2,0,0.5,0,0.7-0.1
		c-1.2-0.2-2.5-0.4-3.7-0.6c0,0-0.1,0-0.1,0c-2.2-1-4.5-1.8-6.5-3c-1.8-1.1-2.3-3.1-1.8-5.3c0.1-0.3,0.4-0.6,0.6-0.8
		c0.2-0.3,0.8-0.4,0.8-0.7c0.1-0.8,0-1.6-0.1-2.4c0-0.1-0.3-0.2-0.5-0.2c-2.5-0.1-5,0.3-7.3,1.2c-0.1,0-0.2,0.1-0.3,0.3
		c0.3,0.3,0.6,0.5,1.2,1c-0.8,0.2-1.6,0.7-1.9,0.5c-0.5-0.4-0.9-1.2-0.9-1.9c0-0.5,0.5-1.2,1-1.4c2.8-1.2,5.7-1.7,8.7-1.5
		c1.2,0.1,1.8,0.9,1.9,2c0.1,1,0,2-0.1,3c0,0.8-0.2,1.6-1.3,1.6c-0.6,2.8,1.8,4.3,4.5,4.3c4.6,0,9.2-0.1,13.8-0.2
		c0.7,0,1.5,0.1,2.2,0.4c1.6,0.7,3.1,1.5,4.7,2.2c0.9,0.4,2,0.5,2.9,0.8c0.1-0.1,0.3-0.2,0.4-0.3c-0.1-0.7-0.4-1.5-0.4-2.2
		c0-0.7-0.6-1.7,0.5-2c1.1-0.3,2.5,0.6,2.8,1.5c0.1,0.4,0.4,0.9,0.7,1.1c0.5,0.3,1.2,0.4,1.8,0.4c1.2,0.1,2.3-0.2,3.5,0
		c2.5,0.5,5,1.1,7.5,1.8c1.6,0.4,3.1,0.9,4.6,1.4c0.9,0.3,1.7,0.6,1.8,1.7c0.1,1.1-0.3,2.1-1.2,2.7c-0.2,0.1-0.4,0.3-0.6,0.4
		C172.3,112.6,172.3,112.7,172.3,112.8z M177.4,115.4L177.4,115.4c-0.7-1.3-1.6-2.3-3.4-2.1c-0.7,0.1-1.5,0.1-2.3,0
		c-0.4,0-0.7-0.4-1.2-0.7c0.9-0.5,1.6-0.6,2-1.1c0.5-0.6,0.8-1.4,0.8-2.1c0-0.4-0.7-0.9-1.2-1.1c-1.4-0.5-2.8-0.9-4.3-1.3
		c-2.1-0.5-4.2-0.9-6.4-1.3c-1.4-0.3-2.8-0.8-4.1-0.5c-1.6,0.3-2.7-0.3-3.8-1.1c-0.2-0.1-0.3-0.2-0.5-0.3c-0.1,0.1-0.1,0.2-0.2,0.2
		c0.8,0.6,1.5,1.1,2.6,1.9c-1.3,0.2-2.3,0.4-3.4,0.5c0-1,0-1.8,0-2.6c-0.3,2.9-1.3,3.5-4,2.2c0,0-0.1,0-0.1-0.1
		c-1.8-0.8-3.5-1.7-5.3-2.4c-0.5-0.2-1.1-0.2-1.7-0.2c-5,0-10,0.2-15,0c-2.5-0.1-4.5-1.8-4-5.2c1.3-0.4,1.3-0.4,1.4-2
		c0-0.4,0.1-0.8,0.1-1.2c0-1.9-0.6-2.6-2.5-2.4c-2.2,0.2-4.3,0.7-6.5,1.2c-0.4,0.1-0.8,0.4-1.1,0.7c-0.6,0.7-0.3,1.5,0.5,1.7
		c-0.7-1-0.7-1.7,0.5-1.9c2.5-0.5,5-0.8,7.6-1.1c0.3,0,0.9,0.6,0.9,1c0.1,0.9,0.1,1.8,0,2.7c0,0.3-0.4,0.6-0.6,0.9
		c-0.3,0.4-0.8,0.7-0.8,1.1c-0.3,2.4,1.5,4.7,4,5.1c5,0.8,10,0.5,15,0.2c2.8-0.2,4.9,1.3,7,2.7c0,0,0,0.1-0.1,0.4
		c-2.1-0.1-4.2-0.1-6.2-0.3c-2.1-0.2-4.2-0.5-6.2-0.7c-2-0.3-4-0.5-6-0.8c8.1,1.7,16.3,2.7,24.5,1.7c-0.4,1.5-1.1,2.7-1.2,4
		c-0.1,1.3,0.3,2.7,0.5,4c-8.3,2.2-16.9,1.1-25.5,1.6c0.4,0.2,0.9,0.4,1.3,0.4c1.8,0,3.6-0.1,5.3-0.1c6.1,0,12.2-0.1,18.2-1.3
		c0.6-0.1,1.5,0.1,2.1,0.5c3,2.4,6.8,2.1,9.2-0.9c0.2-0.3,0.5-0.6,0.8-0.9c0.1,0,0.3,0.1,0.4,0.1c-0.2,0.6-0.3,1.2-0.5,1.9
		c4.7,0,9.2,0,14.1,0C177.8,115.8,177.6,115.6,177.4,115.4z M133.8,113.3c0,0.2-0.1,0.3-0.1,0.5c0.3,0.1,0.7,0.3,1,0.3
		c1.8,0,3.5,0,5.3,0c1,0,1.7,0.2,1.2,1.7c3.8-0.5,7.4-0.9,11-1.4c-0.8-2.4-0.8-4.6,0.3-6.7c-3.6,0-7.2,0-10.8,0
		c0.5,1.2,0.1,1.6-1,1.5c-0.8-0.1-1.6-0.1-2.4-0.2c-1.8-0.2-3.7-0.4-5.6-0.7c0.1,0.4,0.1,0.6,0.1,0.8c0,1.2,0.6,1.6,1.7,1.5
		c0.8-0.1,1.5,0,2.3,0c0.7,0,1.5,0,1.4,0.8c0,0.8-0.1,1.8-1.4,1.8C135.9,113.3,134.8,113.3,133.8,113.3z M137.2,111.6
		c0-0.1,0-0.2,0-0.4c-1.1,0-2.3,0-3.4,0c-0.4,0-1.1-0.2-1.2-0.5c-0.3-0.9-0.5-1.9-0.7-3.1c3.2,0.3,6.1,0.7,9.1,1c0-0.1,0-0.3,0-0.4
		c-3.2-0.3-6.3-0.6-9.5-0.9c-0.1,0.1-0.1,0.2-0.2,0.3c0.8,1.3,0,3.3,1.9,4.2c-0.1,0.1-0.3,0.3-0.4,0.4c-0.5,0.7,0,2.7,0.7,2.7
		c2.1,0,4.3,0,6.4,0c0-0.1,0-0.3,0-0.4c-1.7,0-3.4,0-5,0c-1.8,0-1.8,0-1.8-2c1.3,0,2.7,0,4,0c0-0.1,0-0.1,0-0.2
		c-0.5-0.1-1.1-0.2-1.6-0.3c0-0.1,0-0.3,0.1-0.4C136.1,111.7,136.6,111.6,137.2,111.6z M145.2,106.2c0-0.2,0.1-0.4,0.1-0.6
		c-1.5-0.4-3-1-4.5-1.2c-1.3-0.2-2.6,0.1-4,0.2c-1,0.1-2,0.2-2.9,0.2c0,0.1,0,0.2,0,0.3C137.7,105.5,141.4,105.9,145.2,106.2z"/>
	<path fill="none" stroke="#000000" stroke-width="0.2424" stroke-miterlimit="10" d="M105.8,101.7c0.4-0.1,0.9-0.2,1.3-0.3
		c-0.1,0.5-0.2,1.1-0.4,1.6c0,0.1-0.2,0.2-0.3,0.2c0.2,0.5,0.4,0.9,0.7,1.4c0.7,0,1.4,0,2.2,0c0-0.1,0.1-0.1,0.1-0.2
		c-0.3-0.1-0.6-0.3-0.9-0.4c0.1-0.2,0.1-0.3,0.2-0.5c4.5-0.3,9-0.1,13.7,0.3c-0.8,1.2-1.6,1.6-2.8,1.6c-3.1-0.1-6.1,0-9.3,0
		c0,1.1,0,2.5,0,3.9c2.7,0,5.4,0,8,0c0.3,0,0.6-0.3,0.8-0.6c0.7-0.7,1.4-1.4,1.9-2.2c1.3-2.2,3.2-1.9,5.4-1.5c-1.7,2-3.3,4-5,5.9
		c1.6,2,3.2,3.9,4.8,5.9c-1.9,0.8-4,0.5-4.9-1.1c-1.6-2.6-3.8-3.5-6.8-3.1c-0.9,0.1-1.8,0-2.7,0c0.5,2.8,0.5,2.9,3.2,2.9
		c1.4,0,2.8,0,4.2,0c0.4,0,0.9,0,1.1,0.2c0.4,0.3,0.6,0.8,0.9,1.2c-0.4,0.1-0.9,0.3-1.3,0.3c-2.3,0-4.5,0-6.8-0.1
		c-1.4-0.1-2-0.7-2.3-2c-0.1-0.4-0.2-0.9-0.2-1.3c-0.1-0.4-0.1-0.8-0.3-1.2c0,1.4,0,2.8,0,4.2c-1.3,0-2.4,0-3.6,0c0-4,0-8,0-12
		 M105.3,103.8c0.5-0.7,0.9-1.2,1.2-1.6 M107.3,105.4c0,3.7,0,7.3,0,11c0.8,0,1.5,0,2.4,0c0-1.5,0-2.9,0-4.4c1.7,0,3.2,0.2,4.7,0
		c3.5-0.6,5.9,0.7,7.6,3.6c0.7,1.2,1.8,1,3.1,0.8c-1.6-1.9-3-3.7-4.4-5.5c1.5-1.8,3-3.6,4.4-5.3c-1.7-0.6-2.7,0.1-3.5,1.3
		c-0.4,0.6-1,1.1-1.5,1.8c-0.7,1-1.6,1.4-2.9,1.4c-1.9-0.1-3.7,0-5.6,0c-0.6,0-1.3-0.1-2-0.1c0-1.6,0-3,0-4.4
		C108.7,105.4,108,105.4,107.3,105.4z M111.9,115.9c2.7,1.3,5.6,0.6,8.4,0.8c0-0.2,0-0.4,0-0.5C117.5,116.1,114.7,116,111.9,115.9z
		 M120.6,104.5c0-0.1,0-0.1,0-0.2c-3.4,0-6.7,0-10.1,0c0,0.1,0,0.1,0,0.2C113.9,104.5,117.2,104.5,120.6,104.5z"/>
	<path fill="none" stroke="#000000" stroke-width="0.2424" stroke-miterlimit="10" d="M104.5,122.1c0.5,0,1.1-0.1,1.6-0.1
		c0-0.1,0-0.2,0-0.3c-0.5,0-1,0-1.4,0 M100.7,118.8c1.8,0,3.6,0.1,5.4,0.1c1.9,0,2.8,0.8,3,2.3c0.2,2.2-0.2,2.9-2.5,3.4
		c0.9,1,1.8,2,2.7,3c-1.9,0.5-3.5,0.3-4.7-1.4c-0.8-1.3-2-1.8-3.6-1.7c-1.3,0.1-2.7,0-4.2,0c0,1.1,0,1.9,0,2.8
		c-0.6,0.1-1.1,0.2-1.6,0.2 M104.9,121c0.6,0,1.3,0.1,1.9,0.1c-0.1,0.5-0.1,1-0.2,1.4c-0.7,0.1-1.3,0.1-1.9,0.1 M100.5,123.9
		c2.3-0.3,4,0.5,5.2,2.4c0.5,0.8,1.2,1.1,2.3,0.8c-0.9-1-1.7-1.9-2.6-2.9c0.6-0.1,1-0.2,1.4-0.3c1.5-0.3,1.8-0.7,1.8-2.1
		c0-1.3-0.6-2-1.9-2.1c-1.8-0.2-3.6-0.2-5.4-0.2 M95.3,126.9c0.3,0,0.6-0.1,1-0.1"/>
	<path fill="none" stroke="#000000" stroke-width="0.2424" stroke-miterlimit="10" d="M106.1,107.8c1.3,2.5,0,5.3-1.8,6.8
		 M105.9,114.5c0.9,0.8,0.9,1.5,0.1,2.1 M104.2,107.7 M103.1,113.2c1.5-1.2,1.8-2.8,1.7-4.7 M102.9,114.6c2.3-1,3.4-3.6,2.6-6.1
		c0.1,2.3-0.4,4.2-2.2,5.4 M105.6,115.7"/>
	<path fill="none" stroke="#000000" stroke-width="0.2424" stroke-miterlimit="10" d="M178.4,118.9c0,0.9,0,1.7,0,2.7
		c-2.7,0-5.4,0-8.1,0c-1.1,0-2.3,0.1-3.4,0.2c-0.9,0.1-1,1-0.8,1.6c0.1,0.5,0.6,1.2,1,1.2c2.6,0.1,5.1,0.1,7.7-0.2
		c-2.3,0-4.6,0-6.9,0c0-0.8,0-1.5,0-2.4c3.5,0,6.9,0,10.6,0c0,1.3,0.3,2.6-0.1,3.8c-0.2,0.7-1.3,1.6-2.1,1.7
		c-3.6,0.2-7.2,0.2-10.8,0c-1.4,0-2.3-1.2-2.3-2.7c0-1.1,0-2.2,0-3.3c0-1.5,1-2.7,2.6-2.7C170,118.9,174.1,118.9,178.4,118.9z
		 M176.1,123.9c-0.1,1.2-0.8,1.5-1.7,1.5c-2.3,0-4.6,0-6.9,0c-1.3,0-1.8-0.6-1.9-1.8c-0.1-1.7,0.3-2.4,1.7-2.5
		c1.7-0.1,3.5-0.1,5.2-0.1c1.8,0,3.5,0,5.4,0c0-0.5,0-1,0-1.4c-0.4,0-0.7-0.1-1-0.1c-3.3,0-6.7,0-10,0c-0.4,0-0.9,0-1.3,0.2
		c-1,0.3-1.6,0.9-1.5,2c0.1,1,0.1,2,0,3c-0.2,1.4,0.9,2.4,2.2,2.4c3.2,0.1,6.4,0.1,9.6,0c1.9-0.1,3.1-2.6,2.1-4.2
		c-0.1-0.2-0.4-0.3-0.6-0.3c-2.8,0-5.7,0-8.6,0c0,0.6,0.1,0.9,0.1,1.4C171.1,123.9,173.6,123.9,176.1,123.9z"/>
	<path fill="none" stroke="#000000" stroke-width="0.2424" stroke-miterlimit="10" d="M141.8,118.9c0,0.9,0,1.7,0,2.7
		c-0.4,0-0.9,0-1.3,0c-2.9,0-5.7,0-8.6,0c-2.1,0-2.5,0.4-2.4,1.9c0,0.4,0.5,1,0.9,1.2c0.4,0.2,1,0.2,1.5,0.2c3.2,0,6.5,0,9.8,0
		c0,0.9,0,1.8,0,2.7c-0.1,0-0.3,0.1-0.4,0.1c-4,0-8,0.1-12,0c-1.9,0-2.7-1.1-2.7-3c0-1.1,0-2.1,0-3.2c0-1.4,0.9-2.6,2.3-2.6
		C133.2,118.9,137.4,118.9,141.8,118.9z M141.1,119.5c-2.9,0-5.7,0-8.5,0c-1,0-2.1,0-3.1,0c-1.6,0.1-2.2,0.8-2.2,2.4
		c0,0.8,0,1.5,0,2.3c0,2.3,0.6,3,3,3c3,0,6,0,9,0c0.6,0,1.3,0,1.9,0c0-0.6,0-1.1,0-1.7c-0.5,0-0.9,0-1.4,0c-2.9,0-5.9,0-8.8,0
		c-1.4,0-1.9-0.5-2-1.7c-0.1-1.9,0.2-2.5,1.8-2.6c2.7-0.1,5.3-0.1,8-0.1c0.8,0,1.6,0,2.4,0C141.1,120.4,141.1,120.1,141.1,119.5z"/>
	<path fill="none" stroke="#000000" stroke-width="0.2424" stroke-miterlimit="10" d="M159.3,127.7c0-1.5-0.1-2.9,0-4.2
		c0.1-1.3-0.6-1.8-1.7-1.8c-1.7-0.1-3.4-0.1-5.1-0.1c-0.8,0-1.7,0-2.7,0c0,2,0,4,0,6.1c-1,0-1.9,0-2.8,0c0-2.9,0-5.7,0-8.8
		c0.4,0,0.8,0,1.3,0c3.5,0,6.9-0.1,10.4-0.1c2.2,0,3.8,0.9,3.5,3.5c-0.1,1.4-0.1,2.7,0,4.1c0.1,1.1-0.4,1.4-1.4,1.3
		C160.4,127.7,159.9,127.7,159.3,127.7z M149.2,127.1c0-1.8,0-3.4,0-5.1c0-0.7,0.2-1.1,0.9-1c2.5,0,4.9-0.1,7.4,0
		c2.1,0.1,2.4,0.5,2.4,2.6c0,1.1,0,2.3,0,3.5c0.6,0,1.1,0,1.6,0c0-1.6,0-3.2,0-4.7c0-2.2-0.9-3-3.1-3c-3.1,0-6.3,0.1-9.4,0.1
		c-0.4,0-0.9,0-1.3,0c0,2.7,0,5.1,0,7.6C148.2,127.1,148.6,127.1,149.2,127.1z"/>
	<path fill="none" stroke="#000000" stroke-width="0.2424" stroke-miterlimit="10" d="M118,121.7c-1,0-2-0.1-3.2-0.1
		c0.5-1.1,1-2.3,2.1-2.6c1.2-0.2,2.4-0.3,3.3,1.1c1.4,2.2,3.1,4.3,4.7,6.5c0.2,0.3,0.4,0.6,0.7,1.1c-1.7,0.2-3.2,0.4-4.1-1.3
		c-1.2-2.5-3.5-1.8-5.4-1.7c-0.6,0-1.4,1-1.8,1.7c-1,1.6-2.4,1.7-4.2,1.3c0.8-1.1,1.6-2,2.1-3c1.1-2,2.7-3,5-2.5c0.2,0,0.4,0,0.6,0
		C117.9,121.9,117.9,121.8,118,121.7z M111.3,127c0.1,0.1,0.2,0.2,0.2,0.4c0.6-0.3,1.3-0.6,1.8-1c0.5-0.4,0.9-1,1.2-1.5
		c0.5-0.8,1.2-0.9,2.1-1c2.5-0.2,4.7,0.2,6,2.7c0.2,0.4,1.1,0.5,1.6,0.7c0.1-0.1,0.1-0.2,0.2-0.3c-1.6-2.1-3.1-4.3-4.7-6.4
		c-1.2-1.7-2.6-1.5-3.7,0.4c1.4,0,2.9-0.1,3.3,1.8c-1.3,0-2.6,0-3.9,0c-0.4,0-0.9,0.1-1.2,0.4C113.2,124.4,112.3,125.7,111.3,127z"
		/>
	<path fill="none" stroke="#000000" stroke-width="0.2424" stroke-miterlimit="10" d="M70.9,76.3"/>
	<path fill="none" stroke="#000000" stroke-width="0.2424" stroke-miterlimit="10" d="M81.9,75.2c0-0.2,0.4-0.5,0.6-0.5
		c0.7-0.1,1.3,0,2.2,0 M84.1,75.3c-0.6,0-1,0-1.6,0"/>
	<path fill="none" stroke="#000000" stroke-width="0.2424" stroke-miterlimit="10" d="M110.3,88.3 M109.4,88.2
		c-0.3-0.5-0.6-0.9-1-1.3"/>
	<path fill="none" stroke="#000000" stroke-width="0.2424" stroke-miterlimit="10" d="M115.1,97.3c0.3,0.9,0.5,1.7,0.8,2.7
		c-2.7,0.7-5.2,1.4-8,2.1c-0.1-0.9-0.3-1.8-0.4-2.7C110,98.7,112.5,98,115.1,97.3z M114.6,98.1c-2.2,0.6-4.3,1.2-6.5,1.8
		c0.1,0.5,0.2,0.9,0.3,1.4c2.2-0.6,4.4-1.2,6.6-1.8C114.9,98.9,114.8,98.5,114.6,98.1z"/>
	<path fill="none" stroke="#000000" stroke-width="0.2424" stroke-miterlimit="10" d="M143,119c0.9,0,1.7,0,2.6,0c0,2.9,0,5.8,0,8.7
		c-0.9,0-1.8,0-2.6,0C143,124.7,143,121.9,143,119z M143.6,127.5c0.7-0.4,1.6-0.6,1.6-0.9c0.1-2.3,0.1-4.6,0.1-7c-0.7,0-1.2,0-1.6,0
		C143.6,122.1,143.6,124.6,143.6,127.5z"/>
	<path fill="none" stroke="#000000" stroke-width="0.2424" stroke-miterlimit="10" d="M133.8,113.3c1,0,2.1,0,3.1,0
		c1.3,0,1.4-1,1.4-1.8c0-0.9-0.8-0.9-1.4-0.8c-0.8,0-1.5-0.1-2.3,0c-1.2,0.2-1.7-0.3-1.7-1.5c0-0.2-0.1-0.5-0.1-0.8
		c1.9,0.2,3.7,0.5,5.6,0.7c0.8,0.1,1.6,0.1,2.4,0.2c1.1,0.1,1.4-0.4,1-1.5c3.6,0,7.2,0,10.8,0c-1.1,2.1-1.1,4.2-0.3,6.7
		c-3.6,0.5-7.2,0.9-11,1.4c0.5-1.5-0.2-1.7-1.2-1.7c-1.8,0-3.5,0-5.3,0c-0.3,0-0.7-0.2-1-0.3C133.7,113.6,133.8,113.4,133.8,113.3z"
		/>
	<path fill="none" stroke="#000000" stroke-width="0.2424" stroke-miterlimit="10" d="M177.4,115.4c0.2,0.2,0.4,0.4,0.8,0.8
		c-4.9,0-9.4,0-14.1,0c0.2-0.7,0.4-1.3,0.5-1.9c-0.1,0-0.3-0.1-0.4-0.1c-0.3,0.3-0.5,0.6-0.8,0.9c-2.4,3-6.2,3.3-9.2,0.9
		c-0.5-0.4-1.4-0.7-2.1-0.5c-6,1.2-12.1,1.3-18.2,1.3c-1.8,0-3.6,0.1-5.3,0.1c-0.5,0-0.9-0.1-1.3-0.4c8.6-0.5,17.2,0.6,25.5-1.6
		c-0.2-1.3-0.6-2.7-0.5-4c0.1-1.3,0.7-2.6,1.2-4c-8.3,1-16.4,0.1-24.5-1.7c2,0.3,4,0.5,6,0.8c2.1,0.3,4.2,0.6,6.2,0.7
		c2.1,0.2,4.2,0.2,6.2,0.3c0-0.2,0.1-0.3,0.1-0.4c-2.2-1.4-4.2-2.9-7-2.7c-5,0.4-10,0.6-15-0.2c-2.5-0.4-4.3-2.6-4-5.1
		c0-0.4,0.5-0.7,0.8-1.1c0.2-0.3,0.6-0.6,0.6-0.9c0.1-0.9,0.2-1.8,0-2.7c-0.1-0.4-0.6-1-0.9-1c-2.5,0.3-5.1,0.6-7.6,1.1
		c-1.1,0.2-1.2,0.9-0.5,1.9c-0.8-0.2-1.1-1-0.5-1.7c0.3-0.3,0.7-0.6,1.1-0.7c2.2-0.4,4.3-1,6.5-1.2c1.9-0.2,2.5,0.5,2.5,2.4
		c0,0.4-0.1,0.8-0.1,1.2c-0.1,1.5-0.1,1.5-1.4,2c-0.6,3.4,1.5,5.1,4,5.2c5,0.2,10,0,15,0c0.6,0,1.2,0,1.7,0.2
		c1.8,0.8,3.5,1.6,5.3,2.4c0,0,0.1,0,0.1,0.1c2.7,1.3,3.7,0.7,4-2.2c0,0.8,0,1.6,0,2.6c1.1-0.2,2.1-0.3,3.4-0.5
		c-1.1-0.8-1.9-1.4-2.6-1.9c0.1-0.1,0.1-0.2,0.2-0.2c0.2,0.1,0.3,0.2,0.5,0.3c1.1,0.8,2.2,1.5,3.8,1.1c1.3-0.3,2.7,0.3,4.1,0.5
		c2.1,0.4,4.3,0.8,6.4,1.3c1.4,0.3,2.9,0.8,4.3,1.3c0.5,0.2,1.2,0.7,1.2,1.1c0,0.7-0.4,1.5-0.8,2.1c-0.4,0.5-1.1,0.6-2,1.1
		c0.5,0.3,0.8,0.6,1.2,0.7c0.8,0.1,1.5,0.1,2.3,0C175.7,113,176.6,114.1,177.4,115.4c-1.2-1.5-2.8-1.9-4.7-1.6c-0.1,0-0.2,0-0.4,0
		c-2.3,0.1-4-0.8-4.9-3c-0.3-0.8-0.9-1.1-1.5-0.8c-0.3,2-0.6,3.9-1,5.9c3.1,0,6.3,0,9.5,0C175.4,115.8,176.4,115.5,177.4,115.4z
		 M152.7,111.2c0,3.3,2.6,5.9,5.9,5.8c3.3-0.1,5.8-2.7,5.8-6c-0.1-3.2-2.7-5.7-6-5.7C155.2,105.4,152.6,108,152.7,111.2z
		 M170.9,111.8c0.3-0.1,0.7-0.1,0.9-0.3c0.5-0.5,1-1.2,1.2-1.8c0.1-0.3-0.8-1-1.3-1.1c-2.3-0.7-4.6-1.2-7-1.8c-0.4-0.1-0.9,0-1.4,0
		c0.7,2,0.8,2.1,2.7,2.5c1,0.2,1.7,0.6,2,1.7c0.1,0.4,0.5,0.7,0.8,1c0.4-0.5,0.7-0.9,1-1.3C170.1,111,170.4,111.4,170.9,111.8z"/>
	<path fill="none" stroke="#000000" stroke-width="0.2424" stroke-miterlimit="10" d="M137.2,111.6c-0.5,0-1.1,0.1-1.6,0.1
		c0,0.1,0,0.3-0.1,0.4c0.5,0.1,1.1,0.2,1.6,0.3c0,0.1,0,0.1,0,0.2c-1.3,0-2.7,0-4,0c0,2,0,2,1.8,2c1.7,0,3.4,0,5,0
		c0,0.1,0,0.3,0,0.4c-2.1,0-4.3,0-6.4,0c-0.7,0-1.2-2-0.7-2.7c0.1-0.2,0.3-0.4,0.4-0.4c-1.9-0.9-1.1-2.9-1.9-4.2
		c0.1-0.1,0.1-0.2,0.2-0.3c3.2,0.3,6.3,0.6,9.5,0.9c0,0.1,0,0.3,0,0.4c-3-0.3-5.9-0.6-9.1-1c0.2,1.2,0.4,2.1,0.7,3.1
		c0.1,0.3,0.8,0.5,1.2,0.5c1.1,0.1,2.3,0,3.4,0C137.2,111.4,137.2,111.5,137.2,111.6z"/>
	<path fill="none" stroke="#000000" stroke-width="0.2424" stroke-miterlimit="10" d="M145.2,106.2c-3.8-0.4-7.5-0.8-11.3-1.1
		c0-0.1,0-0.2,0-0.3c1-0.1,2-0.2,2.9-0.2c1.3-0.1,2.7-0.4,4-0.2c1.5,0.2,3,0.8,4.5,1.2C145.3,105.8,145.2,106,145.2,106.2z"/>
	<path fill="none" stroke="#000000" stroke-width="0.2424" stroke-miterlimit="10" d="M107.3,105.4c0.8,0,1.5,0,2.3,0
		c0,1.4,0,2.9,0,4.4c0.8,0,1.4,0.1,2,0.1c1.9,0,3.7-0.1,5.6,0c1.3,0.1,2.2-0.3,2.9-1.4c0.4-0.6,1-1.1,1.5-1.8
		c0.8-1.2,1.8-1.9,3.5-1.3c-1.4,1.7-2.9,3.5-4.4,5.3c1.4,1.8,2.9,3.5,4.4,5.5c-1.3,0.2-2.3,0.4-3.1-0.8c-1.7-2.9-4.2-4.2-7.6-3.6
		c-1.5,0.3-3.1,0-4.7,0c0,1.5,0,2.9,0,4.4c-0.9,0-1.6,0-2.4,0C107.3,112.7,107.3,109.1,107.3,105.4z"/>
	<path fill="none" stroke="#000000" stroke-width="0.2424" stroke-miterlimit="10" d="M106.5,102.3c-0.3,0.4-0.7,0.9-1.2,1.6"/>
	<path fill="none" stroke="#000000" stroke-width="0.2424" stroke-miterlimit="10" d="M111.9,115.9c2.8,0.1,5.6,0.2,8.4,0.3
		c0,0.2,0,0.4,0,0.5C117.4,116.5,114.5,117.3,111.9,115.9z"/>
	<path fill="none" stroke="#000000" stroke-width="0.2424" stroke-miterlimit="10" d="M120.6,104.5c-3.4,0-6.7,0-10.1,0
		c0-0.1,0-0.1,0-0.2c3.4,0,6.7,0,10.1,0C120.6,104.3,120.6,104.4,120.6,104.5z"/>
	<path fill="none" stroke="#000000" stroke-width="0.2424" stroke-miterlimit="10" d="M96.3,126.8c-0.4,0-0.7,0.1-1,0.1"/>
	<path fill="none" stroke="#000000" stroke-width="0.2424" stroke-miterlimit="10" d="M101.3,119.4c1.8,0,3.6,0.1,5.4,0.2
		c1.4,0.1,1.9,0.8,1.9,2.1c0,1.4-0.3,1.8-1.8,2.1c-0.4,0.1-0.9,0.2-1.4,0.3c0.9,1,1.7,1.9,2.6,2.9c-1.1,0.3-1.8,0-2.3-0.8
		c-1.2-1.9-2.9-2.7-5.2-2.4"/>
	<path fill="none" stroke="#000000" stroke-width="0.2424" stroke-miterlimit="10" d="M104.8,122.6c0.6,0,1.2-0.1,1.9-0.1
		c0-0.4,0.1-0.8,0.2-1.4c-0.7,0-1.3-0.1-1.9-0.1"/>
	<path fill="none" stroke="#000000" stroke-width="0.2424" stroke-miterlimit="10" d="M104.2,107.7"/>
	<path fill="none" stroke="#000000" stroke-width="0.2424" stroke-miterlimit="10" d="M104.9,108.5c0.1,1.8-0.2,3.5-1.7,4.7"/>
	<path fill="none" stroke="#000000" stroke-width="0.2424" stroke-miterlimit="10" d="M103.3,113.9c1.8-1.2,2.3-3.1,2.2-5.4
		c0.9,2.5-0.3,5.1-2.6,6.1"/>
	<path fill="none" stroke="#000000" stroke-width="0.2424" stroke-miterlimit="10" d="M105.6,115.7"/>
	<path fill="none" stroke="#000000" stroke-width="0.2424" stroke-miterlimit="10" d="M176.1,123.9c-2.5,0-4.9,0-7.5,0
		c0-0.4-0.1-0.8-0.1-1.4c3,0,5.8,0,8.6,0c0.2,0,0.5,0.1,0.6,0.3c1,1.6-0.1,4.2-2.1,4.2c-3.2,0.1-6.4,0.1-9.6,0c-1.4,0-2.4-1-2.2-2.4
		c0.1-1,0.1-2,0-3c-0.1-1.1,0.6-1.7,1.5-2c0.4-0.1,0.9-0.2,1.3-0.2c3.3,0,6.7,0,10,0c0.3,0,0.6,0,1,0.1c0,0.5,0,0.9,0,1.4
		c-1.8,0-3.6,0-5.4,0c-1.7,0-3.5,0-5.2,0.1c-1.4,0.1-1.8,0.8-1.7,2.5c0.1,1.2,0.6,1.8,1.9,1.8c2.3,0,4.6,0,6.9,0
		C175.2,125.4,176,125.1,176.1,123.9z"/>
	<path fill="none" stroke="#000000" stroke-width="0.2424" stroke-miterlimit="10" d="M141.1,119.5c0,0.6,0,1,0,1.5
		c-0.8,0-1.6,0-2.4,0c-2.7,0-5.3,0-8,0.1c-1.5,0.1-1.9,0.7-1.8,2.6c0.1,1.2,0.6,1.7,2,1.7c2.9,0,5.9,0,8.8,0c0.4,0,0.9,0,1.4,0
		c0,0.6,0,1,0,1.7c-0.6,0-1.2,0-1.9,0c-3,0-6,0-9,0c-2.4,0-3-0.6-3-3c0-0.8,0-1.5,0-2.3c0-1.5,0.7-2.3,2.2-2.4c1-0.1,2.1,0,3.1,0
		C135.4,119.5,138.2,119.5,141.1,119.5z"/>
	<path fill="none" stroke="#000000" stroke-width="0.2424" stroke-miterlimit="10" d="M149.2,127.1c-0.6,0-1,0-1.4,0
		c0-2.5,0-5,0-7.6c0.4,0,0.9,0,1.3,0c3.1,0,6.3,0,9.4-0.1c2.2,0,3.1,0.8,3.1,3c0,1.6,0,3.1,0,4.7c-0.6,0-1,0-1.6,0
		c0-1.2,0-2.3,0-3.5c0-2.1-0.3-2.5-2.4-2.6c-2.5-0.1-4.9,0-7.4,0c-0.7,0-1,0.3-0.9,1C149.2,123.7,149.2,125.4,149.2,127.1z"/>
	<path fill="none" stroke="#000000" stroke-width="0.2424" stroke-miterlimit="10" d="M111.3,127c1-1.3,1.9-2.6,2.9-3.8
		c0.2-0.3,0.8-0.4,1.2-0.4c1.3,0,2.5,0,3.9,0c-0.5-1.9-2-1.7-3.3-1.8c1.1-2,2.5-2.1,3.7-0.4c1.6,2.1,3.1,4.3,4.7,6.4
		c-0.1,0.1-0.1,0.2-0.2,0.3c-0.5-0.2-1.4-0.3-1.6-0.7c-1.3-2.5-3.4-2.9-6-2.7c-0.9,0.1-1.6,0.2-2.1,1c-0.3,0.5-0.7,1.1-1.2,1.5
		c-0.5,0.4-1.2,0.7-1.8,1C111.5,127.2,111.4,127.1,111.3,127z"/>
	<path fill="none" stroke="#000000" stroke-width="0.2424" stroke-miterlimit="10" d="M82.5,75.3c0.5,0,1,0,1.6,0"/>
	<path fill="none" stroke="#000000" stroke-width="0.2424" stroke-miterlimit="10" d="M108.4,86.8c0.3,0.5,0.6,0.9,1,1.3"/>
	<path fill="none" stroke="#000000" stroke-width="0.2424" stroke-miterlimit="10" d="M114.6,98.1c0.1,0.5,0.3,0.9,0.5,1.5
		c-2.2,0.6-4.4,1.2-6.6,1.8c-0.1-0.5-0.2-0.9-0.3-1.4C110.3,99.2,112.4,98.7,114.6,98.1z"/>
	<path fill="none" stroke="#000000" stroke-width="0.2424" stroke-miterlimit="10" d="M143.6,127.5c0-2.9,0-5.4,0-7.9
		c0.5,0,0.9,0,1.6,0c0,2.4,0,4.7-0.1,7C145.2,126.8,144.3,127.1,143.6,127.5z"/>
	<path fill="none" stroke="#000000" stroke-width="0.2424" stroke-miterlimit="10" d="M152.7,111.2c0-3.3,2.5-5.9,5.7-5.9
		c3.2,0,5.9,2.5,6,5.7c0.1,3.3-2.5,5.9-5.8,6C155.3,117.1,152.7,114.6,152.7,111.2z M158.4,106c-2.9,0-5.2,2.3-5.2,5.2
		c0,2.8,2.5,5.3,5.3,5.2c2.8,0,5.2-2.4,5.2-5.3C163.7,108.3,161.4,106,158.4,106z"/>
	<path fill="none" stroke="#000000" stroke-width="0.2424" stroke-miterlimit="10" d="M177.4,115.4c-1,0.1-1.9,0.4-2.9,0.4
		c-3.2,0.1-6.4,0-9.5,0c0.3-2,0.6-3.9,1-5.9c0.6-0.2,1.2,0,1.5,0.8c0.9,2.1,2.6,3,4.9,3c0.1,0,0.2,0,0.4,0
		C174.5,113.5,176.1,113.9,177.4,115.4C177.4,115.4,177.4,115.4,177.4,115.4z M165.8,115.1c3.3,0,6.6,0,10,0c0-0.1,0-0.2,0.1-0.4
		c-0.4-0.1-0.8-0.4-1.2-0.4c-0.9-0.1-1.8,0-2.7,0c-2.4,0.1-4-1-5-3.1c-0.1-0.2-0.3-0.4-0.4-0.7C166.3,112.1,166,113.5,165.8,115.1z"
		/>
	<path fill="none" stroke="#000000" stroke-width="0.2424" stroke-miterlimit="10" d="M170.9,111.8c-0.5-0.5-0.8-0.8-1.2-1.1
		c-0.3,0.4-0.6,0.8-1,1.3c-0.3-0.3-0.7-0.6-0.8-1c-0.3-1-1-1.4-2-1.7c-1.8-0.4-1.9-0.5-2.7-2.5c0.5,0,1-0.1,1.4,0
		c2.3,0.6,4.7,1.1,7,1.8c0.5,0.2,1.4,0.8,1.3,1.1c-0.2,0.7-0.7,1.3-1.2,1.8C171.6,111.8,171.2,111.8,170.9,111.8z M171.2,111.4
		c0.5-0.6,0.9-1.1,1.6-1.9c-3-0.8-5.6-1.5-8.3-2.1c-0.1,0.2-0.1,0.4-0.2,0.6c0.4,0.2,0.8,0.5,1.3,0.7c1.1,0.3,2.4,0.4,2.8,1.9
		C170.1,109.8,170.4,109.9,171.2,111.4z"/>
	<path fill="none" stroke="#000000" stroke-width="0.2424" stroke-miterlimit="10" d="M158.4,106c3,0,5.2,2.2,5.2,5.2
		c0,2.9-2.4,5.3-5.2,5.3c-2.8,0-5.2-2.4-5.3-5.2C153.2,108.4,155.5,106,158.4,106z M154,111.2c0,2.5,2.1,4.6,4.5,4.6
		c2.5,0,4.5-2.1,4.5-4.6c0-2.5-2.1-4.6-4.5-4.6C156,106.6,154,108.7,154,111.2z"/>
	<path fill="none" stroke="#000000" stroke-width="0.2424" stroke-miterlimit="10" d="M165.8,115.1c0.3-1.6,0.5-3,0.8-4.6
		c0.2,0.3,0.3,0.5,0.4,0.7c1.1,2,2.7,3.1,5,3.1c0.9,0,1.8-0.1,2.7,0c0.4,0,0.8,0.3,1.2,0.4c0,0.1,0,0.2-0.1,0.4
		C172.4,115.1,169,115.1,165.8,115.1z"/>
	<path fill="none" stroke="#000000" stroke-width="0.2424" stroke-miterlimit="10" d="M171.2,111.4c-0.8-1.4-1.2-1.5-2.8-1
		c-0.4-1.5-1.7-1.5-2.8-1.9c-0.5-0.1-0.9-0.4-1.3-0.7c0.1-0.2,0.1-0.4,0.2-0.6c2.6,0.7,5.3,1.4,8.3,2.1
		C172.1,110.3,171.7,110.7,171.2,111.4z"/>
	<path fill="none" stroke="#000000" stroke-width="0.2424" stroke-miterlimit="10" d="M154,111.2c0-2.5,2.1-4.6,4.5-4.6
		c2.5,0,4.5,2.1,4.5,4.6c0,2.5-2.1,4.6-4.5,4.6C156.1,115.7,154,113.6,154,111.2z M154.9,111.1c0,2.1,1.7,3.9,3.7,3.9
		c1.8,0,3.7-2,3.8-3.8c0-1.9-1.7-3.6-3.8-3.7C156.4,107.5,154.9,108.9,154.9,111.1z"/>
	<path fill="none" stroke="#000000" stroke-width="0.2424" stroke-miterlimit="10" d="M154.9,111.1c0-2.2,1.5-3.6,3.7-3.6
		c2,0,3.8,1.8,3.8,3.7c0,1.8-2,3.8-3.8,3.8C156.7,115,154.9,113.2,154.9,111.1z M158.6,108.2c-1.7,0-2.9,1.2-3,2.8
		c0,1.7,1.2,3,2.9,3c1.7,0,3-1.3,3-2.9C161.5,109.5,160.2,108.3,158.6,108.2z"/>
	<path fill="none" stroke="#000000" stroke-width="0.2424" stroke-miterlimit="10" d="M158.6,108.2c1.7,0,2.9,1.3,2.9,2.9
		c0,1.7-1.3,3-3,2.9c-1.7,0-3-1.3-2.9-3C155.6,109.4,156.9,108.2,158.6,108.2z"/>
</g>
</svg>
